<?xml version="1.0" standalone="no"?>
<!DOCTYPE svg PUBLIC "-//W3C//DTD SVG 1.1//EN" "http://www.w3.org/Graphics/SVG/1.1/DTD/svg11.dtd" >
<svg xmlns="http://www.w3.org/2000/svg" xmlns:xlink="http://www.w3.org/1999/xlink" version="1.1">
<metadata>
Created by FontForge 20200427 at Sun Aug 31 14:42:26 2003
 By www
Copyright (c) Typographer Mediengestaltung, 1999. All rights reserved.
</metadata>
<defs>
<font id="Hercules" horiz-adv-x="580" >
  <font-face 
    font-family="Hercules"
    font-weight="400"
    font-stretch="normal"
    units-per-em="1000"
    panose-1="2 0 5 3 2 0 0 2 0 4"
    ascent="800"
    descent="-200"
    x-height="534"
    cap-height="750"
    bbox="-107.114 -214 983 962"
    underline-thickness="20"
    underline-position="-143"
    unicode-range="U+0005-E00B"
  />
<missing-glyph horiz-adv-x="962" 
d="M60 0h842v962h-842v-962zM842 60h-722v842h722v-842z" />
    <glyph glyph-name=".notdef" horiz-adv-x="962" 
d="M60 0h842v962h-842v-962zM842 60h-722v842h722v-842z" />
    <glyph glyph-name="breve" horiz-adv-x="589" 
d="M294 598q68 0 122 56q54 57 54 88q-2 9 -10 9l-81 -51q-23 -13 -42.5 -18t-42.5 -5q-21 0 -43 6t-42 16q-23 13 -43 26t-38 26q-9 0 -9 -9q0 -34 54 -89t121 -55z" />
    <glyph glyph-name="dotaccent" horiz-adv-x="401" 
d="M182 595q34 0 64 13q33 13 30 46q-4 20 -19 30q-14 11 -48 11q-16 0 -31.5 -3t-28 -9t-20 -15.5t-7.5 -23.5q0 -27 18 -38t42 -11z" />
    <glyph glyph-name="ring" horiz-adv-x="448" 
d="M141 584q19 0 38 4.5t33 14.5t23 25t9 36t-8.5 35.5t-23 24.5t-33 14.5t-37.5 4.5q-21 0 -39.5 -4.5t-32.5 -14t-22.5 -24.5t-8.5 -36q0 -44 29 -62q31 -18 73 -18zM142 709q22 0 34.5 -13.5t12.5 -31.5q0 -21 -13.5 -33.5t-34.5 -12.5q-22 0 -35 13q-12 15 -12 33
q0 20 12.5 32.5t35.5 12.5z" />
    <glyph glyph-name="ogonek" horiz-adv-x="413" 
d="M224 -11h-55q-58 -40 -72 -55q-15 -17 -15 -36q0 -33 35 -54.5t99 -21.5t89.5 16t25.5 42q-1 16 -8 16l-28 -10q-21 -10 -39 -10q-26 0 -44 15t-18 39q0 32 30 59z" />
    <glyph glyph-name="caron" horiz-adv-x="527" 
d="M229 573q27 0 94 52q68 53 68 84q-2 13 -7 20q-9 9 -17 9q-12 0 -67 -29q-53 -28 -72 -28q-20 0 -69 28q-50 29 -70 29q-11 0 -17 -9t-6 -20q0 -32 67 -84t96 -52z" />
    <glyph glyph-name="dotlessi" unicode="&#xd;" horiz-adv-x="360" 
d="M281 169q-12 21 -12 80l4 93l10 104q0 10 -2 18.5t-6 18.5q-8 20 -24 28t-25 10q-9 3 -14.5 4t-16.5 4h-22q-43 0 -73 -21t-30 -54l6 -34q8 -27 8 -45q0 -2 0.5 -5.5t1.5 -8.5v-13v-18l-6 -84q-3 -31 -4 -54t-1 -36l1 -41l7 -41q6 -20 19.5 -34t29.5 -22.5t33 -12
t31 -3.5q38 0 68 18q30 19 33 37l4 29q2 10 2 23l-5 27q-4 11 -8 18t-9 15z" />
    <glyph glyph-name="fraction" horiz-adv-x="225" 
d="M227 519q18 48 35.5 88.5t30 71.5t19.5 51.5t6 29.5q-5 17 -29 17l-28 -3q-18 -3 -27.5 -15t-18.5 -38l-222 -537l-69 -177q-33 -75 -31 -89q5 -17 37 -17l31 3q16 3 34 51l40 114z" />
    <glyph glyph-name="fi" horiz-adv-x="420" 
d="M229 588q18 -10 26 -12l25 -3q30 0 48.5 21t18.5 49q0 15 -14 45q-13 30 -40 46.5t-64 16.5q-34 0 -68.5 -16.5t-52.5 -37.5q-17 -20 -23 -36.5t-6 -32.5q0 -21 10 -57t10 -50q0 -17 -30 -17q-31 -3 -39 -9.5t-8 -28.5q0 -19 6.5 -28.5t14.5 -9.5h17h13l23 -2q3 0 8 -6
l-3 -203q0 -23 -0.5 -43t-2 -39.5t-3 -40t-4.5 -44.5q0 -22 -29 -69t-29 -70l7 -31l17 -36q6 -9 16 -14.5t22.5 -9t25.5 -5t24 -1.5q74 0 95 52q23 51 23 121v18q0 2 1 19.5t3 50.5q2 34 3.5 64t1.5 58q0 13 1.5 51t5.5 102q1 18 1.5 37t0.5 39h15l31 1l21 1q12 2 15.5 7
t4.5 7t4 12.5t3 21.5q0 18 -10.5 23.5t-47.5 5.5q-38 0 -44 13q-6 14 -34 27q-27 16 -30 29l7 9q8 8 13 5zM621 583q41 26 41 74q0 19 -11 39q-13 19 -39 33.5t-62 14.5q-20 0 -37 -6t-30.5 -14.5t-22 -19t-11.5 -19.5q-4 -18 -5 -27t-1 -16q0 -15 8 -33q9 -15 37.5 -30
t63.5 -15q34 0 69 19zM630 169q-12 21 -12 80l4 93l10 104q0 10 -2 18.5t-6 18.5q-8 20 -24 28t-25 10q-9 3 -14.5 4t-16.5 4h-22q-43 0 -73 -21t-30 -54l6 -34q8 -27 8 -45q0 -2 0.5 -5.5t1.5 -8.5v-13v-18l-6 -84q-3 -31 -4 -54t-1 -36l1 -41l7 -41q6 -20 19.5 -34
t29.5 -22.5t33 -12t31 -3.5q38 0 68 18q30 19 33 37l4 29q2 10 2 23l-5 27q-4 11 -8 18t-9 15z" />
    <glyph glyph-name="fl" horiz-adv-x="420" 
d="M229 588q18 -10 26 -12l25 -3q30 0 48.5 21t18.5 49q0 15 -14 45q-13 30 -40 46.5t-64 16.5q-34 0 -68.5 -16.5t-52.5 -37.5q-17 -20 -23 -36.5t-6 -32.5q0 -21 10 -57t10 -50q0 -17 -30 -17q-31 -3 -39 -9.5t-8 -28.5q0 -19 6.5 -28.5t14.5 -9.5h17h13l23 -2q3 0 8 -6
l-3 -203q0 -23 -0.5 -43t-2 -39.5t-3 -40t-4.5 -44.5q0 -22 -29 -69t-29 -70l7 -31l17 -36q6 -9 16 -14.5t22.5 -9t25.5 -5t24 -1.5q74 0 95 52q23 51 23 121v18q0 2 1 19.5t3 50.5q2 34 3.5 64t1.5 58q0 13 1.5 51t5.5 102q1 18 1.5 37t0.5 39h15l31 1l21 1q12 2 15.5 7
t4.5 7t4 12.5t3 21.5q0 18 -10.5 23.5t-47.5 5.5q-38 0 -44 13q-6 14 -34 27q-27 16 -30 29l7 9q8 8 13 5zM623 219q-4 28 -6 60.5t-2 70.5l-1 125v172q0 57 -39 75l-34 11q-20 7 -47 7q-24 0 -43.5 -9t-32.5 -24t-20 -34.5t-7 -40.5q0 -49 19 -68q19 -18 19 -25q2 -8 2 -18
v-19l-8 -137l-3 -116l4 -88l11 -85q9 -36 41 -57t72 -21l41 5q26 7 47.5 35t21.5 64q0 16 -6 37l-17 46q-12 27 -12 34z" />
    <glyph glyph-name="Lslash" horiz-adv-x="1177" 
 />
    <glyph glyph-name="Zcaron" horiz-adv-x="690" 
d="M345 244q17 31 44.5 68t65.5 80q41 46 69.5 80.5t45.5 59.5q39 54 48 92q11 41 11 53q0 29 -18 53q-20 24 -43 24q-8 -1 -17 -4.5t-19 -8.5q-19 -13 -42 -19.5t-43 -6.5q-26 0 -84 18q-57 19 -97 19l-54 -7q-38 -8 -76 -47q-37 -37 -37 -88q0 -33 17 -65q18 -28 41 -40
t50 -12q14 0 29 3t26 7q29 12 44.5 23t25.5 11l10 -2l4 -4q-27 -64 -114 -160q-86 -96 -123 -150q-36 -53 -36 -135v-17l3 -24q3 -15 21 -27t39 -12l10 1l49 24q46 24 67 24q8 -1 20 -4.5t28 -8.5q17 -7 36 -12.5t39 -10.5q39 -10 78 -10t78 14q19 7 36 20.5t29.5 30.5
t19.5 36.5t7 40.5q1 22 -8.5 42t-24 35.5t-31 25t-28.5 11.5q-15 5 -31 5q-30 0 -72 -19q-9 -4 -31 -14q-20 -8 -27 -9q-14 -2 -25 2q-15 6 -10 14zM416 795q27 0 94 52q68 53 68 84q-2 13 -7 20q-9 9 -17 9q-12 0 -67 -29q-53 -28 -72 -28q-20 0 -69 28q-50 29 -70 29
q-11 0 -17 -9t-6 -20q0 -32 67 -84t96 -52z" />
    <glyph glyph-name="space" unicode=" " horiz-adv-x="260" 
 />
    <glyph glyph-name="exclam" unicode="!" horiz-adv-x="351" 
d="M234 284l33 206q12 84 12 194q0 37 -28 55.5t-70 18.5q-26 0 -48.5 -7t-40 -20.5t-27.5 -32t-10 -41.5l25 -272q8 -54 20 -96.5t27 -57.5q18 -15 35 -15q12 0 24 6t22 16t17 22t9 24zM92 14q31 -22 72 -22q68 0 88 36q21 37 21 54q0 35 -26.5 59.5t-69.5 24.5
q-22 -2 -39.5 -6.5t-30.5 -9.5q-29 -14 -39.5 -35t-10.5 -37q0 -40 35 -64z" />
    <glyph glyph-name="quotedbl" unicode="&#x22;" horiz-adv-x="500" 
d="M373 498q18 33 27 69t9 72q0 45 -19 79q-20 33 -57 33q-40 0 -59.5 -32t-19.5 -80q0 -20 2 -37t6 -36q9 -40 16 -55l23 -45q18 -27 26 -27q11 0 23 18zM160 498q18 33 27 69t9 72q0 45 -19 79q-20 33 -57 33q-40 0 -59.5 -32t-19.5 -80q0 -20 2 -37t6 -36q9 -40 16 -55
l23 -45q18 -27 26 -27q11 0 23 18z" />
    <glyph glyph-name="numbersign" unicode="#" horiz-adv-x="560" 
d="M489 564q26 16 35.5 29.5t9.5 27.5q0 17 -11 28l-16 16q-30 9 -65 9l-5 26q-3 15 -10 24q-7 14 -20 23t-25 9q-8 -1 -14.5 -3.5t-13.5 -6.5q-18 -14 -21 -20q-5 -12 -8 -32l-6 -27h-73q-5 38 -13 53q-13 20 -25 28t-24 8q-18 0 -30 -12l-18 -18q-6 -15 -8.5 -24.5
t-5.5 -27.5l-28 -7l-17 -9q-24 -9 -38 -26.5t-14 -36.5q0 -16 13 -29q14 -11 42 -14l-17 1q3 -2 6.5 -3t11.5 -2l36 -3l-3 -33l-2 -36q-26 -3 -34 -7l-17 -9q-24 -10 -38.5 -29.5t-14.5 -35.5q0 -17 12.5 -28t42.5 -14l-17 1q5 -4 14 -5l33 -1l4 -35l9 -31q6 -18 21 -30
t33 -12q19 0 32.5 15t17.5 43l-3 -14l7 26q4 11 5 17.5t3 23.5h68l4 -37q6 -23 9 -26q6 -23 21.5 -35.5t33.5 -12.5q19 0 32.5 15t17.5 43l-2 -14l6 27l9 41l33 9q15 4 27 12q16 11 25.5 24t9.5 27q-1 15 -10 27l-15 16l-34 7q-5 1 -12.5 1.5t-18.5 0.5q0 18 2 35t5 38l35 8
zM236 550h79l-6 -82h-81l2 36z" />
    <glyph glyph-name="dollar" unicode="$" horiz-adv-x="510" 
d="M342 473q33 0 52.5 22.5t19.5 54.5q0 23 -9.5 45.5t-25.5 36.5q-20 20 -29 24l-32 15l-5 17q-2 7 -5.5 14t-7.5 14q-8 15 -27.5 26.5t-34.5 11.5l-18 -3l-13 -6q-5 -11 -11 -27.5t-11 -37.5q-60 -14 -98 -58q-39 -45 -39 -100q0 -57 31 -99t100 -75q69 -32 83 -53
q13 -19 13 -28q0 -14 -10.5 -24.5t-28.5 -10.5q-16 0 -53 24q-35 25 -54 28l-11 1q-24 0 -43.5 -14.5t-30.5 -31.5q-12 -26 -12 -43q0 -16 6 -29t30.5 -39.5t72.5 -45.5l1 -16l2 -16q9 -22 30 -36.5t42 -14.5q29 0 36 28l-2 -10l16 23q7 16 9 28q59 13 99.5 46.5t50.5 69.5
q11 35 11 57q0 72 -57 131q-57 58 -104 69q-49 12 -61 25q-12 16 -12 28q3 15 9 21t15 6q16 0 57 -24q42 -24 59 -24z" />
    <glyph glyph-name="percent" unicode="%" horiz-adv-x="643" 
d="M206 392q32 27 47.5 74.5t15.5 99.5q0 89 -24 124q-24 36 -46.5 45.5t-47.5 9.5q-43 0 -70 -24.5t-42 -70.5q-8 -25 -11 -48t-3 -51q0 -38 9 -75.5t24 -61.5q16 -23 37 -33t49 -10q38 0 62 21zM500 622q9 12 13 34q6 23 4 34q-6 34 -17.5 46t-24.5 12q-14 0 -20 -6
l-20 -21q-15 -15 -24 -42q-6 -15 -24 -54t-49 -103l-130 -263q-71 -135 -82 -147q-11 -13 -14 -22l-3 -18l2 -13l5 -10q0 -20 14.5 -35.5t30.5 -15.5q16 1 28 15l20 19q11 15 15 23q4 11 20 48.5t45 100.5l130 268q69 138 81 150zM543 22q32 26 47 72t15 100q0 90 -24 126
t-45.5 45.5t-48.5 9.5q-42 0 -70 -25q-27 -27 -41.5 -70t-14.5 -100q0 -39 9 -76q17 -58 42 -80.5t67 -22.5q40 0 64 21zM147 645q14 -3 20 -14t6 -25l-1 -103q-2 -16 -8.5 -26.5t-18.5 -7.5q-15 6 -20 15t-5 26l3 103q0 2 3 10.5t4 10.5q8 11 17 11zM483 275q14 -3 20 -14
t6 -25l-1 -103q-1 -16 -8 -26.5t-19 -7.5q-15 6 -20 15t-5 26l3 102l8 21q9 12 16 12z" />
    <glyph glyph-name="ampersand" unicode="&#x26;" horiz-adv-x="808" 
d="M634 234q38 14 56 42q20 29 20 65q1 28 -10.5 53t-30.5 43t-44 28t-52 8q-73 0 -115 -48q-15 -20 -50 -124q-36 -105 -106 -114l-9 -1q-23 0 -44 15q-23 14 -26 30l-4 25q0 16 12 31t34 30q47 32 53 48q7 15 7 23q2 6 2 15q0 13 -6.5 24.5t-15.5 14.5q-10 5 -17 5h-12
q-9 1 -27 11q-18 13 -18 44q0 19 14.5 32.5t42.5 13.5l54 -10q26 -7 36.5 -8.5t19.5 -1.5l26 4q19 8 37.5 33.5t18.5 59.5q0 27 -14 50q-13 22 -63 46t-117 24q-48 1 -92.5 -16.5t-78 -47t-53 -68.5t-18.5 -81q0 -45 22 -86q24 -41 65 -65q-26 -14 -47.5 -34t-37 -44.5
t-24 -52.5t-8.5 -56q0 -42 19 -80t61 -66q42 -27 82 -38.5t85 -11.5q106 0 160 45q54 44 83 115q28 69 37 80q9 9 21 9l14 -3.5t14 -4.5q20 -7 32 -7z" />
    <glyph glyph-name="quotesingle" unicode="'" horiz-adv-x="270" 
d="M196 639q0 45 -19 79q-20 33 -57 33q-40 0 -59.5 -32t-19.5 -80q0 -20 2 -37t6 -36q9 -40 16 -55l23 -45q18 -27 26 -27q11 0 22 17q12 17 17 27l10 20q15 29 24 64.5t9 71.5z" />
    <glyph glyph-name="parenleft" unicode="(" horiz-adv-x="480" 
d="M400 628q24 15 33.5 32.5t9.5 36.5q0 20 -11 41.5t-22 29.5q-19 18 -39 24.5t-42 6.5q-30 0 -59 -13.5t-63 -40.5q-33 -27 -61.5 -70t-46.5 -101q-14 -34 -23 -66.5t-15 -68.5q-7 -34 -10 -69t-3 -71q0 -45 6 -92t16 -90q19 -68 46.5 -127.5t60.5 -103t70 -68t75 -23.5
q21 0 47 10q27 9 45 43t18 66q0 31 -13 47l-107 111q-48 51 -62 106q-12 54 -15 85l-3 56q0 108 53 194z" />
    <glyph glyph-name="parenright" unicode=")" horiz-adv-x="480" 
d="M171 -204q136 63 202 200q66 136 66 307q0 111 -27 215q-27 105 -64 168q-37 65 -82 91t-94 26q-30 0 -53 -9t-38 -24t-22.5 -34.5t-7.5 -40.5q0 -45 26 -66l67 -55q42 -34 62 -67q22 -35 33 -84t11 -107q0 -28 -2 -49.5t-6 -45.5q-9 -46 -26 -87q-17 -40 -88 -108
q-72 -69 -83 -86q-9 -20 -9 -38q0 -43 33 -77q33 -36 72 -36q9 1 16.5 3t13.5 4z" />
    <glyph glyph-name="asterisk" unicode="*" horiz-adv-x="570" 
d="M379 470q0 10 42 16q43 7 43 27l-18 52q-12 27 -34 30l-21 -4l-41 -15l2 49q0 27 -19 36t-49 9q-14 0 -23 -4t-17 -12q-15 -16 -12 -34l9 -27q2 -8 1 -15q-6 1 -9 3q-5 2 -10 4.5t-12 5.5q-26 14 -39 14q-22 0 -37 -34q-14 -36 -14 -44q0 -20 39 -32q39 -11 39 -16
q-2 -8 -29 -32q-28 -28 -28 -44q0 -17 29 -43t43 -26q14 2 40 35q15 18 28 31l4 4q7 0 28 -39q23 -38 32 -38q12 0 47 26q34 28 34 41q0 9 -15 30z" />
    <glyph glyph-name="plus" unicode="+" horiz-adv-x="510" 
d="M430 305q23 17 29 30q8 14 8 30q0 15 -9 30q-8 17 -18 23q-9 3 -18 5.5t-18 2.5q-4 1 -10.5 1.5t-17.5 0.5l-22 -1l-42 -5l3 26q3 16 -6 50t-20 48q-12 18 -27 24q-14 8 -29 8q-16 0 -31.5 -9t-21.5 -18l-10 -40l-1 -24l2 -22l5 -44l-43 6l-19 1q-25 0 -38 -7l-20 -13
q-20 -10 -31.5 -27.5t-11.5 -39.5q0 -21 12 -34q14 -13 41 -16l-16 1q1 -4 25 -8q24 -3 47 -3l14 1l40 5l-5 -43l-1 -10l-1 -11q0 -25 6 -37l14 -19q10 -20 28 -31.5t39 -11.5q45 0 51 53l-1 -14l4 10q6 31 6 60l-1 14l-4 39l26 -4q15 -3 49 6q19 6 29.5 10.5t14.5 6.5z" />
    <glyph glyph-name="comma" unicode="," horiz-adv-x="345" 
d="M170 -121q54 41 76 80q26 42 29 71l3 43q0 25 -9 43q-8 20 -33.5 35t-52.5 15q-18 0 -36 -6l-37 -15q-21 -11 -34.5 -30t-13.5 -40q0 -19 11 -33l16.5 -16.5t18.5 -16.5q24 -20 24 -32q0 -19 -13 -41q-13 -23 -13 -31q0 -12 13.5 -22t29.5 -10q13 0 21 6z" />
    <glyph glyph-name="hyphen" unicode="-" horiz-adv-x="480" 
d="M389 299q23 17 29 33q8 16 8 34q0 21 -11 38l-17 21q-27 10 -39 10q-8 2 -26 2l-40 -6q-16 -3 -32.5 -4t-30.5 -1q-13 0 -24.5 0.5t-36.5 4.5l-35 6q-20 0 -34 -7.5t-22 -15.5q-42 -24 -42 -68q0 -32 23 -52.5t80 -20.5l26 4q17 5 54 5q23 0 40 -2t37 -6q17 -2 49 7
q33 10 44 18z" />
    <glyph glyph-name="period" unicode="." horiz-adv-x="345" 
d="M97 16q34 -21 75 -21q25 0 48 8t39.5 22t26.5 34.5t10 44.5q0 22 -7 36.5t-26 22.5q-19 9 -31 11t-30 2q-29 0 -53.5 -10.5t-43 -26.5t-28.5 -35.5t-8 -35.5q0 -33 28 -52z" />
    <glyph glyph-name="slash" unicode="/" horiz-adv-x="510" 
d="M465 606q12 13 19 44q8 34 5 45q-9 45 -26 61q-20 18 -43 18l-16 -2l-16 -5q-9 -3 -23 -26q-16 -21 -25 -51l-77 -168q-30 -63 -65 -134.5t-76 -152.5q-72 -145 -89 -163q-14 -16 -19 -29.5t-5 -28.5l3 -15q0 -28 20.5 -50t47.5 -22q24 0 37 13l27 27q14 14 20 33l76 164
q32 66 67 137.5t74 149.5q71 141 84 155z" />
    <glyph glyph-name="zero" unicode="0" 
d="M389 31q32 28 55.5 66t39 83t23 95.5t7.5 104.5q0 84 -18 159t-47.5 119t-74.5 61q-44 19 -98 19q-43 0 -76 -11q-34 -12 -74 -50q-39 -37 -69 -131q-30 -92 -30 -197q0 -38 4.5 -76t13 -73t20 -65.5t25.5 -54.5q31 -48 76.5 -68t99.5 -20q76 0 123 39zM273 538
q29 -6 40 -26.5t11 -52.5l-4 -204q0 -28 -12 -49t-33 -21l-21 4q-16 6 -27.5 28t-11.5 51l8 205q0 12 7 25q2 4 4.5 8t4.5 8q16 24 34 24z" />
    <glyph glyph-name="one" unicode="1" horiz-adv-x="390" 
d="M313 64v28t1 40t1 41v31l1 187q0 26 -3 107q-1 41 -1.5 70.5t-0.5 49.5q0 48 -4 75t-9 34q-9 15 -25 21.5t-34 6.5q-8 -1 -15.5 -2.5t-11.5 -2.5q-14 -6 -23 -20q-7 -12 -57 -70l-84 -100q-37 -43 -37 -56q0 -11 6.5 -21t16.5 -17.5t23 -12t27 -4.5q18 0 28 10t19 10
t9 -9q0 -58 -24 -161q-24 -104 -24 -145q0 -18 2 -32t6 -29q14 -49 43 -71t75 -22q39 0 67 17.5t28 46.5z" />
    <glyph glyph-name="two" unicode="2" horiz-adv-x="610" 
d="M262 215l181 161q75 88 75 169q0 31 -12.5 67t-42.5 72q-29 38 -76 56.5t-104 18.5q-38 -1 -77.5 -10.5t-71.5 -27t-52 -43.5t-19 -60q0 -55 29 -82q32 -27 42 -31q13 -5 29 -5q25 0 57 22l43 33q17 14 30 14q21 0 28 -13.5t7 -22.5l-3 -18l-19 -31q-8 -10 -26.5 -31.5
t-49.5 -54.5q-18 -19 -31 -33t-23.5 -25.5t-19 -21.5t-17.5 -20q-17 -21 -29 -40t-22 -40q-19 -39 -25.5 -62t-6.5 -44q0 -30 9 -54q10 -24 27 -36q19 -11 35 -11q12 2 29 11t36 14q9 3 15 4.5t10.5 2.5t9.5 1h12q22 0 75 -15q54 -15 98 -15q36 4 61 20q28 20 39.5 48.5
t11.5 59.5q0 27 -13 53t-37 40q-23 15 -35.5 18.5t-25.5 3.5q-18 0 -37 -10l-68 -43q-2 -1 -11 -1q-10 0 -25 3z" />
    <glyph glyph-name="three" unicode="3" horiz-adv-x="615" 
d="M435 422q37 31 55.5 59t21.5 52l3 37q0 66 -53 119q-53 52 -102 57q-25 2 -43.5 3.5t-31.5 1.5q-51 0 -95 -15t-70 -39t-36 -46.5t-10 -47.5q0 -26 13 -49q16 -23 42 -36.5t49 -13.5q15 0 24.5 3t18.5 7q18 10 34 24t30 14q17 0 25 -9t8 -19q0 -5 -2 -13q-1 -4 -64 -45
q-61 -39 -61 -63t22.5 -42.5t64.5 -37.5q21 -9 32.5 -18t17.5 -17t7 -16.5t1 -15.5q-5 -32 -24 -38l-19 -3q-17 0 -49 19l-45 24q-12 5 -37 5q-75 0 -91 -48q-16 -47 -16 -71q0 -30 14.5 -55.5t46.5 -45.5t73.5 -31.5t83.5 -11.5q104 0 160 49q28 25 46.5 48.5t28.5 46.5
t14 47t4 50q0 52 -21 94q-22 41 -64 66q-12 6 -12 12q0 4 6 9z" />
    <glyph glyph-name="four" unicode="4" horiz-adv-x="653" 
d="M503 161q7 21 45 21q39 0 47 30l7 35l1 26q0 24 -8.5 41.5t-36.5 25.5l-40 12q-12 6 -15 28l-4 30l1 19l1 21l-4 26q-8 20 -23 32.5t-38 12.5q-11 0 -18.5 -1.5t-15.5 -6.5l-19 -12q-6 -6 -21 -50q-14 -45 -14 -61q0 -17 -13.5 -25t-34.5 -8q-22 0 -25 8q-4 13 17.5 48.5
t59.5 80.5q24 26 43 79q20 57 20 93q-1 8 -3.5 16.5t-6.5 18.5q-10 23 -40 39q-29 17 -66 17q-34 0 -68 -13.5t-47 -34.5q-18 -24 -18 -123q0 -48 -5.5 -82.5t-13.5 -49.5q-16 -33 -63 -103q-46 -67 -46 -107l5 -28q6 -16 22.5 -26t40.5 -10l169 40l18 -5q10 -3 6 -13
l-19 -54q-6 -23 -6 -46l3 -27q3 -13 24 -43q23 -29 89 -29q41 0 71 18.5t35 41.5l6 31l-1 21l-1 21z" />
    <glyph glyph-name="five" unicode="5" horiz-adv-x="650" 
d="M294 579q15 -5 25 -7.5t18.5 -4t17.5 -2.5t23 -4h31q23 0 48 5q23 7 49 23q27 19 27 67q0 32 -19 59t-45 33q-18 6 -21.5 7t-9.5 1l-15 1l-62 -10q-41 -10 -69 -10q-36 0 -63 10q-23 10 -42 10q-29 0 -48.5 -16.5t-19.5 -45.5l1 -19l1 -17v-19q0 -36 -9 -117
q-1 -11 -2.5 -24t-2.5 -26t-2 -25t-1 -20l5 -39q7 -34 15 -49q4 -7 11.5 -12t16.5 -8.5t18 -5t15 -1.5q10 0 28 6t39 16q46 23 57 23q36 0 50 -46q9 -23 9 -34q0 -22 -16 -41q-16 -18 -30.5 -23t-24.5 -5l-122 56l-20 2q-18 0 -34.5 -6.5t-29.5 -17.5t-21.5 -24.5
t-11.5 -27.5l-5 -32q0 -63 74 -105q75 -42 159 -42q114 0 173 55q30 28 50 54t32 51.5t16.5 51t4.5 52.5q0 74 -32 140q-32 65 -73 83q-39 19 -92 19l-44 -4l-41 -7q-9 3 -9 32q0 15 1 18q1 5 5.5 15t16.5 7z" />
    <glyph glyph-name="six" unicode="6" horiz-adv-x="610" 
d="M418 547l11 -1q37 0 58 37q22 37 22 78l-1 12q-1 15 -12 30.5t-34 28t-58 20.5t-83 7q-47 0 -87 -13.5t-82 -54.5q-42 -42 -76 -138t-34 -202q0 -38 5.5 -75t15 -71t23.5 -64t32 -52q36 -45 78 -62.5t91 -17.5q39 0 76.5 11.5t75.5 39.5q38 29 67 91q30 61 30 130
q0 42 -15.5 85t-37.5 71q-25 29 -52 42q-29 13 -55 13q-43 0 -76 -24q-32 -23 -38 -49t-6 -36q0 -26 12 -44.5t39 -24.5q28 -6 38.5 -23.5t10.5 -42.5q0 -13 -6 -35q-6 -21 -42 -21l-22 4q-33 11 -45.5 48t-12.5 94q0 58 11 113q12 58 18 66l9 24q7 16 60 16q14 0 37 -2.5
t55 -7.5z" />
    <glyph glyph-name="seven" unicode="7" horiz-adv-x="556" 
d="M331 146q-19 60 -19 116q0 70 26 130q15 31 34 64.5t42 70.5q51 78 57 99q6 16 7 20t1 11l2 17q0 51 -17 63q-18 15 -28 18q-12 5 -23 5q-18 -2 -46 -18t-49 -16l-24 2l-63 14q-50 12 -73 12q-21 0 -42 -7q-22 -7 -33 -12t-24 -12q-56 -35 -56 -93q0 -46 24 -71
q26 -25 38 -30q16 -6 32 -6q23 0 77 25q28 14 47.5 20t30.5 6l13 -6q3 -2 5 -8q-4 -8 -20 -31t-44 -61q-28 -37 -50.5 -72.5t-39.5 -70.5q-34 -67 -34 -144q0 -31 7 -63t18 -58q15 -31 40 -42.5t56 -11.5q27 0 54 9q28 10 52 43q25 34 25 67z" />
    <glyph glyph-name="eight" unicode="8" horiz-adv-x="630" 
d="M443 431q38 26 65 64t27 84q0 19 -6 39.5t-30 56.5q-24 37 -72 58.5t-109 21.5q-24 0 -48.5 -4t-48 -10.5t-44.5 -15t-37 -17.5q-31 -19 -52.5 -55.5t-21.5 -76.5q0 -36 20 -74q22 -37 49 -55q27 -21 21 -29l-70 -70q-43 -43 -43 -115q0 -42 17 -93q18 -49 60 -81t90 -44
q53 -13 94 -13q125 0 190 74q64 74 64 157q0 54 -28.5 100.5t-85.5 76.5q-8 3 -8 9q1 6 7 12zM316 604q18 -3 27 -15q11 -11 11 -27l-5 -21q-5 -15 -21 -31q-17 -17 -29 -14q-23 6 -43 29q-18 24 -12 42q9 20 25 27q16 8 26 10t21 0zM310 338q10 -4 19.5 -13t16.5 -20
t11 -23.5t4 -22.5q-1 -11 -11 -32q-12 -21 -59 -21l-34 7q-22 7 -22 46q0 14 9.5 31t30.5 35q24 17 35 13z" />
    <glyph glyph-name="nine" unicode="9" horiz-adv-x="590" 
d="M430 93q41 57 65 144q25 87 25 185q0 96 -30 171t-80 109q-48 34 -84 43q-31 10 -72 10q-98 0 -164 -72q-65 -71 -65 -198q0 -35 6 -80q8 -47 51 -95q44 -47 102 -47l38 3q27 6 56 33q28 28 28 69q-1 10 -2.5 19t-2.5 14q-6 20 -16.5 32.5t-31.5 12.5q-23 3 -35 18
q-12 18 -12 39l5 25q6 18 19 26.5t29 8.5q19 -2 33.5 -8.5t24 -23.5t14 -46.5t3.5 -76.5q0 -75 -15 -130q-15 -54 -40 -66q-26 -12 -43 -12l-36 4q-17 3 -29.5 4t-20.5 1l-23 -2q-7 -2 -16 -6.5t-24 -13.5q-30 -18 -30 -68q0 -14 6 -28t16 -27q23 -28 64 -43t87 -15
q30 0 60 6.5t56.5 17.5t48 27t35.5 36z" />
    <glyph glyph-name="colon" unicode=":" horiz-adv-x="345" 
d="M98 375q18 -12 37 -17t41 -5q48 0 79.5 25.5t31.5 70.5l-1 14q0 41 -36 56q-33 16 -67 16q-76 0 -99 -41q-21 -41 -21 -56q0 -19 10 -37t25 -26zM102 16q18 -12 37 -16.5t41 -4.5q48 0 79.5 25t31.5 70l-1 14q0 29 -24.5 50.5t-78.5 21.5q-29 1 -52 -10t-39 -27
t-23.5 -33.5t-5.5 -27.5q0 -41 35 -62z" />
    <glyph glyph-name="semicolon" unicode=";" horiz-adv-x="345" 
d="M105 375q18 -12 37 -17t41 -5q48 0 79.5 25.5t31.5 70.5l-1 14q0 41 -36 56q-33 16 -67 16q-76 0 -99 -41q-21 -41 -21 -56q0 -19 10 -37t25 -26zM170 -121q54 41 76 80q26 42 29 71l3 43q0 25 -9 43q-8 20 -33.5 35t-52.5 15q-18 0 -36 -6l-37 -15q-21 -11 -34.5 -30
t-13.5 -40q0 -19 11 -33l16.5 -16.5t18.5 -16.5q24 -20 24 -32q0 -19 -13 -41q-13 -23 -13 -31q0 -12 13.5 -22t29.5 -10q13 0 21 6z" />
    <glyph glyph-name="less" unicode="&#x3c;" horiz-adv-x="600" 
d="M519 108q9 0 14 15t5 32l-1 30q0 17 -7 27q-7 8 -28 18l-249 108l248 108q24 11 30.5 19.5t6.5 26.5v30q0 15 -6 30.5t-14 15.5l-19 -4l-17 -6l-389 -169q-11 -6 -13 -17q-2 -10 -2 -34l3 -33q5 -14 13 -17l388 -169l16 -7q9 -4 21 -4z" />
    <glyph glyph-name="equal" unicode="=" horiz-adv-x="510" 
d="M430 403q23 17 29 30q8 14 8 30q0 15 -9 30q-8 17 -18 23q-18 5 -21 5q-3 1 -13.5 3t-27.5 2l-41 -5q-11 -2 -28 -3t-40 -1h-13h-15l-60 2l-42 3l-16 3l-11 1q-24 0 -37 -7l-19 -13q-23 -12 -31.5 -27.5t-8.5 -34.5q0 -24 13 -41q13 -16 39 -19l36 -4l19 -1l19 2
q12 4 37 4q17 2 29 2h26q32 0 58 -2t45 -5q15 -3 49 6q19 6 29.5 10.5t14.5 6.5zM430 180q21 15 29 29t8 31q0 15 -9 30q-8 17 -18 23q-18 5 -21 5q-3 1 -13.5 3t-27.5 2l-41 -5q-11 -2 -28 -3t-40 -1h-13h-15l-60 2l-42 3l-16 3l-11 1q-24 0 -37 -7l-19 -13
q-39 -21 -39 -61q0 -21 14 -41q16 -18 31 -19l32 -4q7 -1 12 -1.5t8 -0.5h11l23 3q12 4 81 4q73 0 108 -6q15 -3 49 6q19 6 29.5 10.5t14.5 6.5z" />
    <glyph glyph-name="greater" unicode="&#x3e;" horiz-adv-x="600" 
d="M533 288q11 6 14 17l3 33l-7 39q-4 10 -11 12l-388 169l-18 6q-7 4 -18 4t-13 -9.5t-5 -18.5v-18v-30q0 -19 6 -28q11 -11 29 -18l250 -108l-249 -108q-24 -9 -30.5 -17.5t-6.5 -27.5l1 -30l4 -31q6 -16 15 -16l15 3l20 8z" />
    <glyph glyph-name="question" unicode="?" horiz-adv-x="529" 
d="M238 302q70 43 119 80q48 36 79.5 80t31.5 99q0 53 -28 100q-61 97 -145 97q-54 0 -99.5 -10t-93.5 -30q-91 -39 -91 -114q0 -31 15 -61q16 -30 31.5 -40.5t36.5 -10.5q31 0 58 15l56 35q28 20 36 20q15 0 27 -13t12 -25l-4 -15l-161 -128q-6 -8 -10.5 -17.5t-6.5 -16.5
q-6 -18 -6 -35q0 -33 21 -63q29 -38 66 -38q21 0 37 16q7 7 10 39q4 33 9 36zM265 8q39 21 39 67q0 14 -5 27t-8 19q-14 24 -34.5 30.5t-49.5 6.5q-41 0 -75 -18q-33 -17 -41 -40q-8 -21 -8 -33q0 -26 18 -47q20 -21 37 -25q18 -6 25 -7t21 -1q24 0 42 6z" />
    <glyph glyph-name="at" unicode="@" horiz-adv-x="770" 
d="M506 152q55 18 97.5 41.5t72 56t46.5 75t22 99.5l1 10v17q0 120 -97 192q-98 72 -213 72q-158 0 -270 -106t-121 -193l-10 -96v-20q0 -139 98 -226q97 -87 243 -87q100 0 195 59q96 58 96 76q0 6 -4 13t-9.5 13.5t-12 10.5t-12.5 4l-103 -73q-62 -33 -126 -33
q-130 0 -210 79q-80 80 -80 214q0 128 94 210q94 84 216 84q124 0 186 -66q61 -64 61 -144l-4 -49q-5 -36 -32 -78q-27 -43 -54 -49l-4 -2q-3 13 -4.5 21t-2.5 13t-1 11v16l29 157q0 18 -4 31.5t-10 22.5q-18 28 -44 31l-47 6q-12 2 -21 2h-18q-54 0 -99 -13
q-45 -15 -65.5 -39.5t-20.5 -51.5q0 -16 5.5 -27.5t14.5 -18.5t19 -10t19 -3q20 0 52 18q17 10 29.5 16.5t20.5 9.5q12 3 18 -2t6 -13q0 -13 -8 -18q-15 -12 -100 -38t-105 -49q-41 -47 -41 -97q0 -42 29 -65q28 -21 60 -21q24 0 49.5 11.5t37.5 22.5l21 17l2 -2q3 -3 7 -13
q9 -16 28 -24.5t43 -8.5zM364 303q16 14 35 17q8 1 13 0.5t8 -1.5q0 -28 -22 -47q-22 -20 -36 -20q-2 0 -10 2q-14 6 -14 16q2 13 11 20z" />
    <glyph glyph-name="A" unicode="A" horiz-adv-x="760" 
d="M520 521l22 -6q13 -4 37 -4q50 0 87 25q37 27 43 69l1 12q0 40 -27 72q-26 33 -72 42q-47 9 -81 9q-100 0 -159 -53q-58 -52 -88 -129l-30 -88l-5 -15q-5 -6 -11 -6h-17l-39 -2l-41 -8q-12 -3 -24.5 -11.5t-22.5 -21t-16.5 -28t-6.5 -31.5l4 -27q4 -11 18 -35
q15 -21 48 -21q42 0 71 36q8 -3 10.5 -4.5t5.5 -5.5l4 -16q0 -18 -3 -44.5t-7 -50.5q-5 -29 -9.5 -48t-7.5 -28q-7 -18 -72 -70q-66 -53 -66 -92q0 -25 11 -58q12 -31 42.5 -49.5t64.5 -18.5l68 10q61 10 100 84q23 43 36 89.5t13 101.5l12 127q4 9 14 9t19 -9l15 -16
q5 -5 7 -16t4 -33q6 -45 20 -71t32 -44q21 -18 44.5 -25t44.5 -7q47 0 78 31q33 31 33 74q0 32 -26 73q-15 23 -22 43.5t-10 47.5q-4 24 -5.5 56.5t-1.5 74.5q0 27 -14.5 48t-35.5 24l-26 3q-48 0 -76 -72q-29 -73 -40 -83q-8 -5 -24 5q-16 12 -13 29q0 62 13 108
q13 48 54 48l11 -1z" />
    <glyph glyph-name="B" unicode="B" horiz-adv-x="660" 
d="M504 -138q69 42 97 110t28 162q0 47 -29 91q-30 45 -54 58q-25 15 -31 22t-6 12q0 8 30 22q31 14 53 57q23 44 23 95q0 63 -30 122q-31 60 -74 91q-43 32 -83.5 43t-94.5 11q-86 0 -148 -25q-63 -24 -72 -55q-4 -15 -6.5 -24.5t-3.5 -14.5q-2 -10 -2 -23q0 -23 10 -44
q12 -21 36 -34.5t52 -13.5q12 0 27.5 3.5t28.5 6.5q24 7 35 9t23 2l25 -3q11 0 25 -7.5t26.5 -20t21 -30t7.5 -38.5q0 -28 -15.5 -48t-40.5 -20q-22 0 -35 49q-12 51 -30 58q-9 4 -15 6.5t-9 3.5q-6 2 -17 5t-24 3q-16 -1 -31 -7t-26.5 -19.5t-17.5 -35.5t-4 -56v-24l1 -22
q0 -27 -27 -72q-4 -5 -8.5 -12.5t-9.5 -16.5q-10 -18 -12.5 -25.5t-5.5 -15.5v-16q0 -43 37 -77q38 -35 84 -35l40 8q32 9 60 73q29 65 39 74q10 10 16 10q13 0 27 -13t21 -34q8 -21 8 -47q0 -39 -21 -69t-47 -39.5t-45 -9.5q-27 0 -79 15q-53 15 -77 15q-15 0 -42 -7
q-24 -8 -42 -31t-18 -54q0 -33 21 -67q25 -37 91 -59q69 -23 148 -23q49 0 101 13q26 8 49 17.5t42 20.5z" />
    <glyph glyph-name="C" unicode="C" horiz-adv-x="570" 
d="M411 506q38 10 59.5 40.5t21.5 67.5q0 12 -2 22t-5 19q-7 21 -26 47q-17 26 -55.5 35.5t-95.5 9.5q-97 0 -163 -57q-65 -56 -86 -126q-10 -35 -16.5 -63.5t-9.5 -51.5q-6 -47 -6 -96q0 -156 70 -263q71 -107 224 -107q71 0 124 39q52 39 52 97l-3 28q-2 10 -5.5 19
t-8.5 19q-12 25 -31.5 37.5t-43.5 12.5t-70 -17t-60 -17q-11 1 -28 8q-9 4 -18 17.5t-16 33t-11.5 43.5t-4.5 51q0 56 18 106q18 48 39 62q23 14 34 14q15 0 51 -16t56 -16z" />
    <glyph glyph-name="D" unicode="D" horiz-adv-x="700" 
d="M344 321q-5 12 -5 30q0 16 9 49q10 31 10 49q2 12 -4 23t-18 20t-28.5 15t-34.5 7q-43 0 -77 -33q-33 -32 -33 -69q0 -80 -6 -101t-19.5 -43t-18.5 -48q-1 -3 -1.5 -8t-2.5 -12v-31q4 -28 18 -49q14 -20 45 -32t62 -12q57 0 90 43t33 105q0 47 -19 97zM534 -68
q61 76 92 167.5t31 194.5q0 67 -17 141q-17 75 -55 150q-38 79 -126 125q-46 25 -91 36t-96 11l-17 -1l-35 -3q-6 -1 -23 -3.5t-33 -7.5q-32 -11 -62 -35q-33 -27 -33 -73q0 -10 2 -17.5t5 -17.5q7 -14 19.5 -26t27.5 -21t32 -13.5t34 -2.5l49 4l48 4l24 -1l51 -15
q44 -15 72 -70q29 -56 29 -129q0 -51 -12 -104.5t-27 -99.5q-16 -46 -49 -66q-34 -19 -83 -19l-50 5l-50 12q-20 7 -39 7q-23 0 -43 -8t-35 -22.5t-23.5 -33.5t-8.5 -41q-2 -29 14 -55.5t47.5 -47t76.5 -32.5t101 -12q78 0 144.5 31.5t108.5 88.5z" />
    <glyph glyph-name="E" unicode="E" 
d="M353 554q51 -27 96 -27q42 0 67 23.5t25 68.5q0 52 -44 84t-86 38l-25 5t-25 3l-25 1q-44 0 -86 -12q-46 -13 -81 -32q-39 -23 -60 -62.5t-21 -84.5t22 -90t62 -78q-60 -34 -92.5 -79t-32.5 -103q0 -36 16 -80q12 -35 38 -59t57.5 -39t63 -22.5t54.5 -8.5q16 -3 32 -4
t32 -1q78 0 132 30q55 30 61 63l9 43v12q2 20 -5.5 37t-20.5 29t-29 18t-31 5q-18 0 -65 -19t-69 -19q-21 0 -36 6q-31 18 -31 46q0 54 53 69l102 17q35 9 35 48q0 28 -18 45q-18 18 -74 24t-66 27q-7 13 -9 20t-2 14q0 21 15 36t36 15q17 -2 26 -7z" />
    <glyph glyph-name="F" unicode="F" horiz-adv-x="650" 
d="M289 561q25 7 59 7l45 -2l57 -2q20 0 37 2t30 5q28 7 48 26q20 18 26.5 32t6.5 33q0 31 -21 55t-42 24l-46 -10q-41 -10 -72 -10q-12 0 -22 0.5t-39 4.5l-66 17q-36 12 -67 12q-58 0 -104 -31t-58 -67q-13 -36 -13 -43l-1 -17q-1 -15 5 -32t19 -31.5t33.5 -25t49.5 -11.5
q14 0 23 2t17 6l46 30q31 23 49 26zM545 263q28 27 28 62q0 20 -11 37q-10 18 -29 26t-31 8q-16 -1 -25 -5l-14 -10q-1 -1 -7 -5l-7 -1q-9 0 -9 12l3 18l10 35q5 14 6.5 19.5t1.5 14.5q0 20 -13 34q-13 15 -35 20.5t-32 5.5q-48 0 -70 -39q-20 -36 -39 -86q-18 -48 -71 -78
q-52 -28 -55 -56l-3 -18q0 -17 13.5 -25t29.5 -8q12 0 21 4t15.5 8.5t11.5 8.5t10 4q14 0 14 -10l6 -39q1 -6 1.5 -15.5t0.5 -23.5q0 -51 -25.5 -84t-70.5 -43q-45 -9 -60.5 -33t-15.5 -56q0 -39 22 -68q23 -30 50 -43t61 -13q48 0 107 33q58 33 84.5 98t26.5 156l-2 56
l-5 56l-1 18q1 7 8 7l22 1l39 4q27 4 39 13z" />
    <glyph glyph-name="G" unicode="G" 
d="M484 513q40 33 40 81q0 22 -12 55q-13 34 -54 61t-83 27q-80 0 -138 -15q-57 -15 -107 -69q-48 -54 -75.5 -134t-27.5 -173q0 -55 13 -117.5t34 -122.5q22 -60 65.5 -85.5t97.5 -25.5q38 0 76 12q39 14 43 18q6 5 8.5 6t5.5 2l13 -7l23 -18q13 -9 26 -11l23 -3
q31 0 51 17t20 42l-3 20l-12 55q-9 43 -9 71q0 42 20 90t20 57q0 12 -5.5 24.5t-14 22t-19.5 16t-23 8.5q-22 4 -36.5 5t-24.5 1q-23 0 -47.5 -7.5t-40.5 -19.5q-15 -12 -21 -23t-6 -27q1 -12 3 -21t8 -27q11 -33 11 -55l-1 -19q-2 -16 -13 -30t-30 -14q-15 1 -30 13
q-16 16 -24 32t-13 38q-4 23 -4 34v27q0 71 21 134q22 64 35 70l19 8h6q12 -1 60 -23q48 -20 76 -20q30 0 56 20z" />
    <glyph glyph-name="H" unicode="H" horiz-adv-x="810" 
d="M750 194q-35 47 -48.5 85.5t-13.5 85.5q0 33 12 76t34 94q48 107 51 122l4 24q0 34 -31.5 54t-74.5 20l-16 -1q-7 -1 -24.5 -5.5t-45.5 -13.5q-56 -17 -81 -135l-25 -203q-3 -3 -8 -4l-17 5q-10 7 -16 47l-25 166q-19 124 -82 133l-70 12h-11q-45 0 -79 -32
q-33 -32 -33 -77l3 -33q4 -15 47 -58q42 -43 44 -50q4 -7 4 -15q0 -14 -24 -14q-65 0 -123 -27q-57 -26 -57 -79q0 -15 5 -30.5t8 -22.5q13 -29 28 -38t33 -9q29 0 60 20q30 21 42.5 36.5t18.5 15.5q11 0 14 -19l3 -39q0 -29 -7 -57.5t-18 -52.5q-13 -26 -27.5 -48
t-30.5 -39l-73 -77q-40 -39 -40 -74q0 -13 2.5 -26t10.5 -31q14 -27 49 -44q18 -9 37 -13t38 -4q94 0 150 104q57 105 74 203l27 161l13 -3q24 -16 27 -28q20 -110 37 -157q18 -49 66 -64q27 -8 42.5 -11t26.5 -3q47 0 82 29q35 30 35 73q0 15 -7 33q-7 19 -10 24t-10 14z
" />
    <glyph glyph-name="I" unicode="I" horiz-adv-x="550" 
d="M426 135q9 24 12 51l3 57l-6 89q0 8 -1.5 29.5t-3.5 55.5q-1 7 -1 15v19q0 68 17 131q18 63 41 92t23 38q0 17 -12 29t-28 9l-73 -16q-20 -5 -31.5 -6.5t-37.5 -1.5q-39 0 -75 10q-30 10 -54 10q-54 0 -94 -33q-39 -32 -39 -79q0 -18 9 -46q10 -29 30.5 -44t45.5 -15
q33 0 67 19q18 10 31 18t22 15q15 6 24 6q14 0 14 -10l-20 -58q-14 -38 -20 -66.5t-8 -54.5t-1.5 -55t-0.5 -68q0 -25 -10 -38q-11 -11 -23 -11l-18 7q-13 7 -44 7q-22 0 -42 -5.5t-35 -16t-24 -26t-9 -36.5q0 -24 15 -63q16 -38 55.5 -61.5t93.5 -23.5q69 0 129 36
q61 37 79 91z" />
    <glyph glyph-name="J" unicode="J" horiz-adv-x="550" 
d="M486 141l-36 201q-15 85 -15 115q0 45 33 128l51 133q1 2 1 9q0 13 -11 21q-16 10 -29 7q-18 -5 -29.5 -8t-21.5 -5.5t-18.5 -4t-20.5 -3.5h-41q-50 0 -89 9l-45 9h-14q-48 0 -88 -28q-20 -14 -31.5 -29.5t-18 -31t-8.5 -29.5t-2 -24q1 -17 5 -28q12 -24 37.5 -41.5
t50.5 -17.5q22 0 72 29t70 29q3 1 9 1q10 -3 10 -11l-16 -38q-16 -33 -26 -71q-11 -36 -11 -83q0 -70 16 -144t16 -91l2 -19q0 -32 -12 -54.5t-36 -28.5q-15 -5 -37 -5h-19l-18 1l-32 -2q-11 -2 -24 -8.5t-24.5 -17.5t-19.5 -27.5t-8 -38.5q2 -29 13 -51t27.5 -37t36.5 -23
t40 -9l39 -3q112 0 193 91q82 91 82 194z" />
    <glyph glyph-name="K" unicode="K" horiz-adv-x="790" 
d="M637 530q49 17 75.5 47.5t26.5 73.5q0 36 -27 68q-26 32 -45 32l-30 3l-14 1q-113 0 -143 -56q-15 -28 -25.5 -65.5t-18.5 -85.5q-15 -95 -63 -119q-4 7 -6.5 14.5t-4.5 15.5l-3 29q0 36 33 101q33 64 33 99q0 16 -7 37q-8 21 -31 21q-12 0 -36 -6l-31 -6l-55 2l-80 3
q-72 0 -112.5 -22t-40.5 -80l1 -18q0 -39 28 -61q29 -20 68 -20q35 0 61 15l24 27q12 13 23 13l17 -4q-64 -109 -64 -247q0 -42 6 -87q0 -15 -33 -20l-47 -7q-32 -5 -60 -28q-28 -22 -28 -64q0 -53 33 -81t60 -37.5t54 -9.5q35 0 68 13q34 13 75 45q40 31 40 119
q0 42 3 70.5t6 42.5q3 6 13 0q20 -11 34 -50t14 -96l-3 -48l-2 -62q0 -19 2 -36.5t5 -33.5q9 -37 26.5 -64t41.5 -40q22 -16 45 -19q22 -5 35 -5q52 0 93 33q40 31 40 74q0 32 -38 76t-65 153q-30 117 -39 140q-9 24 -41 49q10 9 45 80q34 70 64 81z" />
    <glyph glyph-name="L" unicode="L" horiz-adv-x="660" 
d="M528 492q70 25 70 102q0 32 -16 68q-17 39 -58 58q-45 23 -78 29q-35 6 -41 6q-5 1 -13 1l-30 1q-150 0 -192 -69q-40 -67 -45 -89q-5 -20 -5 -43q0 -37 14 -84l30 -85q17 -42 17 -48l1 -21q0 -40 -53 -96q-52 -53 -55 -75l-5 -27q-2 -8 -2 -22q0 -18 6 -34
q15 -27 33.5 -36.5t35.5 -9.5q16 0 55 19q38 20 57 20q10 0 54 -18q22 -10 41.5 -17t33.5 -12q29 -10 67 -10q41 0 72 19q32 21 43 45.5t11 55.5l-5 44q-6 27 -30 42t-60 15q-47 0 -69 -13t-38 -13l-30 4q-16 6 -21 12t0 14l12 18l18 51q11 31 11 51q0 22 -19 82l-30 102
q-1 8 9.5 14.5t22.5 6.5q9 -1 27 -11l54 -31q40 -21 70 -21l15 1z" />
    <glyph glyph-name="M" unicode="M" horiz-adv-x="980" 
d="M685 526q5 3 35 7.5t75 4.5q105 10 117 92v10q0 34 -22 64.5t-61 41.5q-22 7 -38 9t-37 2q-95 0 -153 -67q-60 -68 -113 -181q0 75 -42 144q-40 70 -87 85q-22 8 -39 12.5t-28 6.5l-41 3q-56 0 -97 -25t-49 -51q-3 -13 -4.5 -20.5t-2.5 -10.5q-1 -4 -1 -17
q0 -31 12.5 -55t32.5 -35l32 -13q10 -2 27 -2l38 3l37 3l23 -1q10 -1 20 -13q14 -14 27 -47q11 -22 17.5 -50.5t6.5 -67.5l16 -162q9 -82 33.5 -121.5t51.5 -39.5q25 0 48 18t30 42l46 252q26 137 90 179zM712 44q28 -12 52 -12q49 0 83 37q35 38 35 83l-3 21q-2 10 -4 17.5
t-4 12.5q-8 17 -22.5 33.5t-21.5 39.5q-3 12 -5 19.5t-3 14t-1 12.5v17l4 47l4 29l1 16q0 12 -2.5 25.5t-10.5 33.5q-14 32 -46 32q-24 0 -47 -13.5t-43 -60.5q-11 -25 -17 -52.5t-9 -63.5q-4 -32 -5.5 -78.5t-1.5 -108.5q0 -32 19 -61q19 -28 48 -40zM117 -140
q120 0 165 88q45 87 45 237q0 57 -6 128l-11 137q0 14 -6 25.5t-16 20.5q-23 20 -50 20h-5l-32 -5q-28 -4 -37 -61q-4 -28 -6 -58.5t-2 -62.5l-1 -131q0 -46 -45 -103q-44 -58 -53 -83q-9 -26 -9 -57q0 -39 16 -67q18 -28 53 -28z" />
    <glyph glyph-name="N" unicode="N" horiz-adv-x="790" 
d="M623 275q-3 16 -4 28t-1 22q0 57 62 176l69 130q6 13 6 25q0 29 -22 57q-23 29 -48 32l-32 5h-17q-105 0 -126 -118q0 -13 -1 -33t-3 -49q-4 -51 -5.5 -83.5t-1.5 -49.5q0 -19 -7 -19q-5 0 -8 24l-28 141q-24 88 -77 143q-53 54 -156 54q-62 0 -109 -38q-45 -38 -45 -90
q0 -29 15 -60q15 -30 37.5 -39t54.5 -9l27 1l28 1q18 0 26.5 -1t19.5 -4q22 -8 58 -41q38 -33 50 -125q7 -45 13 -91.5t10 -86.5q22 -92 76 -123q52 -30 79 -30q43 0 75 28q34 28 34 47l2 33q0 35 -14.5 69t-36.5 74zM337 27q9 54 9 119q0 43 -3 87t-8 80l-18 126
q0 17 -32 41q-31 25 -62 25q-28 0 -44.5 -22t-16.5 -76q-1 -35 -2 -73.5t-1 -86.5q0 -27 -5.5 -57t-14.5 -65q-17 -65 -40 -95q-24 -31 -31 -47q-6 -18 -6 -35q0 -21 9 -40q9 -20 36 -45q28 -26 68 -26q17 0 57 23q38 22 64 57q26 36 41 110z" />
    <glyph glyph-name="O" unicode="O" horiz-adv-x="590" 
d="M472 100q37 67 58 142t21 147q0 81 -26.5 157t-69.5 128q-21 26 -41.5 42.5t-41.5 26.5t-44 13.5t-48 3.5l-67 -7q-46 -7 -96 -50q-49 -40 -49 -110q0 -23 6 -39.5t21 -29.5q31 -26 70 -26l25 4q9 4 20.5 10t25.5 16l39 25q7 4 15 4q18 0 30 -15q15 -15 24 -46
q12 -31 18 -67q7 -27 7.5 -43t0.5 -29q0 -45 -16 -85.5t-50 -65.5q-8 -8 -24 -8q-20 0 -40 17q-19 19 -25.5 40t-6.5 46q0 14 3.5 33t6.5 35q8 29 9 40q1 6 1.5 15t0.5 20q0 18 -18 27q-19 11 -41 11q-8 -1 -19.5 -4.5t-27.5 -8.5q-33 -14 -62 -66q-28 -50 -28 -117
q0 -93 34 -154q17 -30 32 -51t26 -33q26 -24 67 -38t90 -14q128 0 190 104z" />
    <glyph glyph-name="P" unicode="P" horiz-adv-x="660" 
d="M436 213q42 15 75.5 40.5t57.5 58.5t37 71.5t13 80.5q0 98 -73 195q-37 49 -97 75t-126 26q-28 0 -58 -3t-53 -7q-85 -17 -122.5 -47.5t-37.5 -77.5q0 -37 18 -61l25 -33q8 -8 18 -8l26 -1q22 0 78 9q55 9 77 9q5 0 14 -0.5t26 -4.5q18 -4 28 -7.5t21 -9.5
q26 -15 37.5 -36.5t11.5 -47.5q0 -38 -21 -65l-23 -34q-8 -9 -18 -9q-7 0 -17 12q-11 13 -11 64q0 50 -17 73q-16 22 -33 30t-35 8q-36 0 -63 -29t-27 -67q0 -75 -4 -131.5t-12 -111.5q-16 -103 -47 -160q-30 -54 -30 -78q0 -36 23 -68q25 -32 56.5 -44.5t50.5 -12.5
q15 0 32 6q14 5 49 29q34 22 49 104q9 42 13 94t4 116q16 42 47 46z" />
    <glyph glyph-name="Q" unicode="Q" horiz-adv-x="600" 
d="M402 14q32 26 57 54t44 57q39 57 45 117l9 92l3 64q0 102 -36 188q-34 85 -94 120q-32 19 -55.5 30.5t-38.5 15.5q-32 8 -62 8q-38 0 -78 -15t-66 -34q-61 -47 -61 -109q0 -23 10 -43.5t26 -36t33.5 -23.5t32.5 -5q29 0 74 22q48 23 61 22q30 -4 48 -59q18 -53 18 -122
q0 -23 -2 -43t-5 -38q-4 -19 -9 -34.5t-10 -28.5q-1 -5 -9 -13l-10 3l-7 17q-8 16 -18 17l-12 3q-13 0 -23 -12l-15 -17q-4 -4 -12 -4q-12 0 -18 17t-6 46q0 17 14 71q15 54 15 74l-3 24q-3 20 -20.5 29.5t-41.5 9.5q-19 0 -54 -16q-18 -8 -34 -25.5t-28.5 -42t-19.5 -55
t-7 -63.5q0 -80 25 -143q25 -64 65 -95q41 -32 65 -36l31 -6q8 -3 17 -45q12 -44 60 -92q49 -48 113 -48q22 0 52 10q33 9 51 33q20 23 20 56q0 9 -2.5 20.5t-6.5 22.5t-10 20t-13 13q-13 10 -39 10l-30 -3l-28 -3q-18 3 -18 11q1 10 13 13z" />
    <glyph glyph-name="R" unicode="R" horiz-adv-x="610" 
d="M470 348q39 25 66 67q29 43 29 91q0 67 -44 132q-21 32 -49.5 52.5t-62 32.5t-71 17t-76.5 5q-90 0 -152 -31q-62 -32 -62 -96q0 -12 2 -23t6 -27q11 -32 33.5 -45.5t60.5 -13.5l61 5l71 6l26 -2q35 -5 55 -19.5t20 -45.5l-4 -23q-4 -19 -22 -34q-18 -17 -46 -21
q-10 -1 -16 6l-9 10q0 15 -6.5 32.5t-22.5 36.5q-15 20 -29 26t-28 6q-50 0 -70 -38q-19 -37 -19 -60l4 -30l6 -36q5 -20 5 -34l3 -22q0 -13 -12 -32l-17 -30q-7 -7 -16 -33l-15 -39q-5 -17 -5 -32q0 -29 13 -53.5t35 -35.5q15 -7 21 -9.5t16 -4.5l31 -3q66 0 97 67
q33 67 33 150q0 7 9 13q10 6 15 0q15 -18 18 -34q5 -17 5 -38l-4 -47l-3 -39q0 -73 38 -138q37 -64 111 -64q48 0 78 27q32 26 35 52l3 36q0 40 -38 78q-40 40 -46 54q-5 13 -18 84q-12 70 -33 90l-26 24l-3 10q2 11 19 23z" />
    <glyph glyph-name="S" unicode="S" horiz-adv-x="560" 
d="M437 484q43 0 69 30t26 73q0 25 -12 51q-11 27 -38 56t-70 41q-44 14 -98 14q-100 0 -171 -62t-71 -152q0 -28 10 -64q12 -33 33 -66q23 -34 110 -81q45 -23 69.5 -39.5t31.5 -25.5q13 -16 13 -30q0 -18 -14.5 -32.5t-33.5 -14.5q-11 0 -27.5 8t-39.5 23q-48 33 -58 34
l-21 2q-31 0 -56 -16q-13 -9 -22 -18.5t-16 -19.5l-18 -34q-4 -12 -4 -29q0 -35 36 -74t89.5 -61.5t113.5 -22.5q86 0 159 46t91 101q18 54 18 86q0 84 -65 155t-125 83q-60 15 -73 34t-10 31q6 20 13 27t20 7q12 0 66 -30t75 -30z" />
    <glyph glyph-name="T" unicode="T" 
d="M376 541l26 -3l28 -1q56 0 97 22q42 24 42 77q0 13 -5.5 26t-14.5 23t-20.5 16t-23.5 6l-29 -8q-15 -5 -26 -6t-32 -1q-15 0 -28.5 2t-28.5 5q-34 10 -64.5 23t-65.5 13q-56 0 -99 -28q-42 -28 -59 -55t-17 -61q0 -37 28 -75q30 -37 73 -37q15 0 30.5 5t22.5 8
q15 7 30 17t30 23q16 15 51 15l25 -2zM427 254l-7 45l-1 48l2 52l3 55q0 26 -6 40q-6 15 -28 26q-20 13 -31 10q-91 -22 -107 -142l-10 -112q-4 -49 -61 -64q-56 -14 -74 -24t-30 -33.5t-12 -50.5q0 -54 50 -89q49 -34 105 -34q42 -1 76.5 17.5t60 45.5t41 57.5t20.5 54.5
q8 23 9.5 38t1.5 30v15z" />
    <glyph glyph-name="U" unicode="U" horiz-adv-x="650" 
d="M528 291l-1 19l-1 24q0 61 22 159q11 51 16.5 86.5t5.5 56.5v18l-4 31q-6 25 -36 43t-70 18q-39 0 -83 -28q-45 -29 -45 -109q0 -9 1.5 -19.5t3.5 -23.5l12 -41q8 -18 8 -62v-12l-4 -104l-8 -73q-3 -6 -9 -15t-11 -15q-17 -17 -29 -17q-16 1 -23 20l-10 37q-3 19 -3 55
l8 104q9 78 9 111q0 69 -25 115q-26 47 -67 62q-39 16 -57 16q-46 0 -81 -38q-33 -38 -33 -87q0 -38 24 -71q26 -34 35 -71q11 -38 11 -80q0 -6 -1.5 -19.5t-3.5 -35.5t-4 -37t-4 -25q-7 -48 -10 -76t-3 -44v-18l4 -40q6 -30 30 -63q25 -32 58 -38q17 -2 30 -3.5t21 -1.5
q42 0 65 21q22 22 40 52q19 31 25 31q4 0 14 -17.5t26.5 -38t40 -37.5t55.5 -15l14 -1q52 0 84 32t32 83q0 27 -35 94q-34 67 -34 88z" />
    <glyph glyph-name="V" unicode="V" horiz-adv-x="600" 
d="M453 90q110 151 110 344q0 130 -36 210q-35 80 -65 97q-29 18 -62 18q-50 0 -88 -29t-38 -66q0 -20 23 -61q11 -21 22 -47.5t21 -58.5q21 -63 21 -122q0 -68 -28 -125q-11 -26 -43 -26l-22 5q-14 6 -21 24.5t-7 39.5l5 110l6 119q0 48 -6 89.5t-16 70.5q-9 30 -26 42
q-16 13 -41.5 23.5t-50.5 10.5q-24 0 -44.5 -9.5t-35.5 -26t-23 -39t-8 -48.5q0 -20 27 -65q27 -44 29 -55q3 -11 5 -21t2 -21q0 -2 0.5 -6.5t1.5 -10.5v-16v-20l-2 -62l-2 -84q0 -90 26 -153q26 -60 89 -89q61 -27 109 -27q49 0 95 23t73 62z" />
    <glyph glyph-name="W" unicode="W" horiz-adv-x="820" 
d="M720 134q25 72 37.5 136.5t12.5 136.5q0 28 -3 59.5t-7 55.5q-6 32 -13.5 60t-15.5 54q-21 57 -67 90t-101 33q-20 0 -49 -7q-31 -6 -58 -39t-27 -68q0 -12 3 -22.5t11.5 -21.5t23 -23t38.5 -27q47 -29 63 -61q17 -32 17 -97l-3 -50l-6 -47q-6 -25 -14.5 -32.5
t-21.5 -7.5q-18 0 -28 22q-5 11 -9.5 43t-9.5 84q-11 105 -77 105l-48 -6q-23 -4 -37 -30t-14 -74q-9 -102 -13 -115q-4 -15 -16 -24t-22 -9q-16 0 -22 19l-9 37q-2 12 -2 24v26l7 100q4 32 5.5 56t1.5 41q0 70 -27 117q-26 48 -70 62q-45 14 -56 14q-45 0 -75 -36
q-29 -37 -29 -83l4 -31q4 -15 27 -51q25 -35 29 -60q5 -16 6 -22.5t1 -16.5l1 -48l-3 -61l-2 -79q0 -31 2 -53.5t6 -43.5q9 -43 27.5 -76.5t39.5 -45.5q21 -14 48 -20q25 -7 52 -7q55 0 98 32t74 84l41 -69q23 -35 50 -41q14 -3 26 -4t19 -1q61 0 113 34q51 34 71 85z" />
    <glyph glyph-name="X" unicode="X" horiz-adv-x="670" 
d="M450 464q17 20 84 59q68 41 71 65l7 36q1 4 1.5 10t0.5 15q2 19 -5 36.5t-19.5 31.5t-27.5 23.5t-30 11.5q-18 6 -39 6q-41 0 -77 -24q-35 -25 -44 -42t-10.5 -21t-3.5 -10q-8 -14 -14 -14q-3 1 -7 7t-8.5 14.5t-9.5 17.5t-11 17q-12 18 -31 31q-19 15 -37 20.5t-37 5.5
q-23 0 -47 -9t-43 -23t-31.5 -39.5t-12.5 -50.5q0 -44 33 -77l100 -78q51 -41 51 -88l-5 -36q-6 -23 -108 -95q-102 -71 -102 -118q0 -11 2 -20t5 -21q6 -15 11 -24.5t12 -21.5q17 -25 39.5 -36t54.5 -11q37 0 72 16.5t54 45.5l36 64q7 15 15 15q10 -1 16 -26q10 -27 42 -73
q35 -47 99 -47l18 1l35 8q31 9 59 40q29 32 29 69q0 1 -1 6.5t-2 11.5t-2.5 11t-1.5 7q-5 11 -10.5 21t-12.5 20q-19 23 -78 56q-59 34 -79 69.5t-20 72.5q0 35 20 64z" />
    <glyph glyph-name="Y" unicode="Y" horiz-adv-x="680" 
d="M451 -43q11 37 20 87.5t18 125.5q19 145 48 249q30 104 71 169q42 64 42 80q0 24 -15 48.5t-42 30.5q-17 6 -24.5 7t-21.5 1q-36 0 -64 -15q-28 -16 -62 -51q-36 -36 -49 -123q-2 -14 -4 -34t-6 -47q-2 -20 -3 -40.5t-1 -40.5q-1 -14 -5 -23q-6 -9 -17 -6l-16 8
q-4 4 -7.5 18t-7 40t-7 65t-8.5 93q-23 119 -80 131q-59 12 -70 12q-23 0 -42.5 -8t-34 -21.5t-22.5 -32t-8 -39.5q0 -35 12 -54l42 -59q30 -36 53 -150q11 -57 22 -93.5t22 -53.5q24 -34 70 -52q45 -16 50 -23q6 -6 6 -15l-4 -20l-11 -51q-10 -33 -28 -39l-29 -6
q-6 1 -23 3.5t-26 4.5q-8 3 -19 5.5t-25 2.5l-34 -7q-21 -8 -34 -30q-8 -12 -11 -24t-3 -28q0 -27 14 -66q16 -38 56 -56.5t91 -18.5l22 1l60 6q23 4 45.5 15t42 29t34.5 41.5t23 53.5z" />
    <glyph glyph-name="Z" unicode="Z" horiz-adv-x="690" 
d="M345 244q17 31 44.5 68t65.5 80q41 46 69.5 80.5t45.5 59.5q39 54 48 92q11 41 11 53q0 29 -18 53q-20 24 -43 24q-8 -1 -17 -4.5t-19 -8.5q-19 -13 -42 -19.5t-43 -6.5q-26 0 -84 18q-57 19 -97 19l-54 -7q-38 -8 -76 -47q-37 -37 -37 -88q0 -33 17 -65q18 -28 41 -40
t50 -12q14 0 29 3t26 7q29 12 44.5 23t25.5 11l10 -2l4 -4q-27 -64 -114 -160q-86 -96 -123 -150q-36 -53 -36 -135v-17l3 -24q3 -15 21 -27t39 -12l10 1l49 24q46 24 67 24q8 -1 20 -4.5t28 -8.5q17 -7 36 -12.5t39 -10.5q39 -10 78 -10t78 14q19 7 36 20.5t29.5 30.5
t19.5 36.5t7 40.5q1 22 -8.5 42t-24 35.5t-31 25t-28.5 11.5q-15 5 -31 5q-30 0 -72 -19q-9 -4 -31 -14q-20 -8 -27 -9q-14 -2 -25 2q-15 6 -10 14z" />
    <glyph glyph-name="bracketleft" unicode="[" horiz-adv-x="524" 
d="M423 709q18 0 33.5 8.5t15.5 26.5q0 41 -42 49q-42 9 -151 9q-119 0 -147 -22t-28 -152v-644q0 -117 23 -146q24 -28 104 -28h48q110 0 151 9q42 9 42 49q0 14 -11.5 24.5t-37.5 10.5l-26 -2l-35 -2q-50 0 -58 14t-8 71v644v22q0 19 2.5 31.5t9.5 19.5t20 9.5t34 2.5
l27 -2z" />
    <glyph glyph-name="backslash" unicode="\" horiz-adv-x="510" 
d="M382 -55q21 -18 42 -18q13 0 25.5 6t22 16.5t15 23t5.5 26.5l2 4l1 11q0 13 -7 28q-6 15 -20 33q-7 8 -29 48.5t-59 113.5l-139 282q-32 67 -51 109t-25 59q-8 21 -16 36t-10 18q-15 25 -21 25l-14 5l-20 3q-23 0 -43 -17t-26 -62q-1 -13 6 -46q9 -34 21 -47
q14 -14 74 -134q26 -52 61 -123t78 -162q79 -167 84 -183q6 -17 18 -30z" />
    <glyph glyph-name="bracketright" unicode="]" horiz-adv-x="524" 
d="M420 -16v644q0 131 -28 152q-26 22 -147 22q-110 0 -152 -9q-41 -9 -41 -49q1 -15 11 -25q13 -10 38 -10l25 2l36 2q21 0 34 -3t20 -10.5t9.5 -19.5t2.5 -30v-22v-644q0 -55 -9 -70t-57 -15l-27 2l-34 2q-18 0 -33.5 -8.5t-15.5 -26.5q0 -38 35 -47q36 -11 116 -11h42
q119 0 147 22t28 152z" />
    <glyph glyph-name="asciicircum" unicode="^" horiz-adv-x="598" 
d="M483 158l30 4q16 6 16 15l-4 18l-6 18l-169 388q-6 10 -19 13l-32 3q-20 0 -33 -3t-17 -13l-169 -388l-7 -16q-4 -9 -4 -20q2 -12 14.5 -15.5t32.5 -3.5h30q16 0 26 7q9 8 19 29l108 249l109 -249q9 -23 17.5 -29.5t27.5 -6.5h30z" />
    <glyph glyph-name="underscore" unicode="_" horiz-adv-x="500" 
d="M499 -137v90h-499v-90h499z" />
    <glyph glyph-name="grave" unicode="`" horiz-adv-x="368" 
d="M198 583q17 0 27 5.5t7 19.5q-6 24 -29 44l-47 33l-37 26q-11 6 -19 6q-31 0 -59 -9t-25 -32q4 -22 58 -58q30 -19 59.5 -27t64.5 -8z" />
    <glyph glyph-name="a" unicode="a" horiz-adv-x="560" 
d="M539 122q-22 48 -31 85t-9 71l5 68q3 23 4 41.5t1 31.5q0 35 -29 68q-29 36 -63 40q-17 3 -27 4.5t-14 2.5q-5 1 -20 1q-11 2 -24 2h-27q-66 0 -121 -18q-27 -9 -45 -20t-28 -24t-14 -27t-4 -27q0 -22 10 -43q11 -20 32 -35q22 -13 47 -13q27 0 69 27l47 30q6 2 12 2
q11 0 17.5 -8.5t6.5 -19.5q-2 -14 -20 -30q-20 -17 -111 -39t-111 -52q-13 -17 -19 -28.5t-10 -25.5q-6 -15 -7 -23t-1 -27q0 -28 14 -61q15 -30 49 -51.5t70 -21.5q33 0 62 16q31 17 41 27l17 17l6 5q4 -1 16 -19q8 -10 17.5 -18t20.5 -15q25 -13 54 -13q14 0 36 5l36 11
q9 3 18 11t16.5 19t12 23.5t4.5 24.5q0 14 -6 26zM256 202q11 13 27.5 18t29.5 5q9 0 11 -6l2 -9q0 -25 -20 -48t-41 -23l-22 5q-13 6 -13 21q1 14 11 24l5 5t6 5q2 2 4 3z" />
    <glyph glyph-name="b" unicode="b" horiz-adv-x="510" 
d="M411 66q39 42 57.5 98.5t18.5 125.5q-1 61 -10.5 105t-24 73t-31.5 44t-34 17q-26 6 -48 6q-24 0 -45.5 -7t-33.5 -19l6 6l-26 -21h-12q-7 18 -7 48l1 29l1 31q0 44 -13 74q-12 33 -39 45q-13 7 -23 10.5t-17 5.5l-29 3q-21 0 -40 -8t-32.5 -21.5t-21.5 -31.5t-8 -39
l2 -25l20 -48q8 -17 12 -28t6 -19.5t2.5 -15t2.5 -12.5v-37l-5 -78q0 -14 -0.5 -29.5t-1.5 -33.5t-1.5 -29t-0.5 -16q0 -27 2 -46.5t6 -41.5q5 -33 22 -65t43.5 -57t62 -39.5t78.5 -12.5q45 0 89.5 16t71.5 43zM259 373q16 -3 27 -15q12 -12 12 -27v-119q-4 -40 -39 -35
q-16 3 -27 16t-11 30l3 106q0 18 11.5 32t23.5 12z" />
    <glyph glyph-name="c" unicode="c" horiz-adv-x="480" 
d="M374 333q33 14 48 29q20 20 20 46q0 42 -25 76.5t-70 44.5q-26 7 -39 9q-7 1 -17.5 1.5t-26.5 0.5q-60 0 -107.5 -23.5t-70.5 -65.5q-25 -40 -38 -93q-8 -28 -11 -52t-3 -51q0 -77 35 -141q34 -63 85 -81q33 -12 46.5 -16t28.5 -7t28.5 -4t24.5 -1q42 0 78.5 15.5
t48.5 36.5q5 7 7.5 12t4.5 7q3 6 8.5 20t5.5 29q0 14 -6 31t-24 38t-54 21q-41 0 -61 -20q-18 -19 -25 -19q-23 0 -35 30t-12 78q0 34 10 58q12 23 29 23l38 -18q37 -18 55 -18z" />
    <glyph glyph-name="d" unicode="d" horiz-adv-x="600" 
d="M536 97q-4 19 -8 37t-8 37q-11 58 -11 81q-2 22 -3 96t-1 203v22l1 24q0 43 -10 75.5t-32 44.5q-24 15 -39 18q-15 5 -33 5q-46 0 -78 -26q-15 -13 -24 -22.5t-13.5 -17.5t-6 -15.5t-1.5 -16.5q0 -21 25 -68q25 -46 25 -77l-4 -17q-4 -7 -13 -7q-19 30 -47 44t-54 14
q-34 2 -63.5 -21t-51.5 -61.5t-34 -88t-12 -100.5q0 -60 15.5 -114.5t38.5 -87.5q25 -33 46 -43.5t48 -10.5q40 0 74 21.5t52 52.5q21 -35 47 -55t60 -20l30 3q23 5 57 31q34 28 28 60zM276 366q37 -6 37 -41l-1 -119q0 -19 -11 -28t-27 -7q-17 3 -27.5 16.5t-10.5 30.5
l5 103q0 18 10 32t25 13z" />
    <glyph glyph-name="e" unicode="e" horiz-adv-x="510" 
d="M228 193q72 17 138 52q69 38 82 71q14 36 14 67q0 23 -6.5 45t-17.5 40.5t-26.5 32.5t-33.5 22q-33 16 -57 19q-18 4 -26 4h-19q-82 0 -138 -46q-57 -46 -82 -102.5t-25 -122.5q0 -43 13 -91q15 -46 44 -92q29 -45 79.5 -69t108.5 -24q48 0 92 18q42 21 63.5 51.5
t21.5 59.5q0 16 -6 30q-5 13 -25 34q-20 20 -46 20q-19 0 -41 -16l-45 -38q-7 -7 -18 -10l-18 -3q-16 0 -29 8.5t-13 15.5q0 21 16 24zM212 372l4 9q23 26 43 26q16 0 24.5 -13t8.5 -22q0 -27 -30 -54q-30 -26 -51 -21q-16 6 -16 30q0 25 17 45z" />
    <glyph glyph-name="f" unicode="f" horiz-adv-x="420" 
d="M229 588q18 -10 26 -12l25 -3q30 0 48.5 21t18.5 49q0 15 -14 45q-13 30 -40 46.5t-64 16.5q-34 0 -68.5 -16.5t-52.5 -37.5q-17 -20 -23 -36.5t-6 -32.5q0 -21 10 -57t10 -50q0 -17 -30 -17q-31 -3 -39 -9.5t-8 -28.5q0 -19 6.5 -28.5t14.5 -9.5h17h13l23 -2q3 0 8 -6
l-3 -203q0 -23 -0.5 -43t-2 -39.5t-3 -40t-4.5 -44.5q0 -22 -29 -69t-29 -70l7 -31l17 -36q6 -9 16 -14.5t22.5 -9t25.5 -5t24 -1.5q74 0 95 52q23 51 23 121v18q0 2 1 19.5t3 50.5q2 34 3.5 64t1.5 58q0 13 1.5 51t5.5 102q1 18 1.5 37t0.5 39h15l31 1l21 1q12 2 15.5 7
t4.5 7t4 12.5t3 21.5q0 18 -10.5 23.5t-47.5 5.5q-38 0 -44 13q-6 14 -34 27q-27 16 -30 29l7 9q8 8 13 5z" />
    <glyph glyph-name="g" unicode="g" horiz-adv-x="570" 
d="M487 72v78q0 46 2 83.5t5 69.5q4 33 10.5 58t12 42.5t9.5 28t4 16.5q0 13 -5 25t-8 18q-13 23 -28 29.5t-23 8.5q-7 3 -14 4.5t-26 1.5q-68 0 -85 -32q-8 -16 -13 -25t-8.5 -13t-6.5 -4.5t-6 -0.5q-5 0 -10 6t-12.5 14.5t-17.5 18t-23 17.5q-29 15 -58 15q-36 0 -73 -24
q-38 -23 -54.5 -66.5t-16.5 -109.5l5 -93l6 -100q0 -37 23 -71q25 -32 52 -38l38 -6l20 -1q57 0 81 30q25 31 31 31q10 0 10 -30l6 -30q4 -17 4 -35q0 -27 -16 -27q-5 0 -19.5 5.5t-33 11.5t-40.5 10t-42 3q-51 0 -81.5 -20.5t-30.5 -54.5q0 -12 12 -45q6 -17 23.5 -30.5
t43 -24t58 -16t68.5 -5.5q75 0 140 24q64 22 81 54q17 30 20.5 45t3.5 33q0 16 -9 57q-9 40 -9 64zM271 366q18 -3 27 -15t9 -28l1 -119q0 -19 -12.5 -31t-27.5 -10q-21 4 -26.5 15t-5.5 38l-2 97q0 20 11 37q13 17 26 16z" />
    <glyph glyph-name="h" unicode="h" 
d="M526 358l2 30l3 41l-3 29q-4 21 -26 46q-12 13 -25 21t-24.5 12t-21 5t-15.5 1q-29 0 -54 -12t-45 -32l-28 -25q-2 -1 -4.5 -2t-7.5 -2q-8 2 -8 11l5 65q3 24 4 42t1 28l-3 38l-10 42q-8 22 -27 32q-18 13 -53 19l-22 2q-20 0 -37.5 -6t-31.5 -16.5t-23.5 -24
t-12.5 -28.5l-2 -17q0 -11 2 -18.5t6 -16.5l16 -34q9 -20 9 -29l-15 -205q0 -11 -1 -32t-3 -52q-3 -60 -3 -89l-10 -32q-5 -17 -5 -39q0 -35 20 -61q22 -27 55 -33l48 -6q41 0 69 19q29 20 29 38l3 35q0 16 -9 78q-9 61 -9 87q0 32 9 58q14 30 23 39q13 13 24 13
q22 0 28 -24q7 -18 7.5 -30t0.5 -21q0 -15 -2 -31.5t-7 -45.5l-3.5 -24.5t-2.5 -15.5t-1 -13v-18q0 -29 6 -54q12 -43 38 -67t67 -21l37 3q27 5 51 29q26 26 26 60q0 10 -9 34l-23 70q-3 16 -4 30.5t-1 26.5q0 2 0.5 6t1.5 9v14v17z" />
    <glyph glyph-name="i" unicode="i" horiz-adv-x="360" 
d="M271 583q41 26 41 74q0 19 -11 39q-13 19 -39 33.5t-62 14.5q-20 0 -37 -6t-30.5 -14.5t-22 -19t-11.5 -19.5q-4 -18 -5 -27t-1 -16q0 -15 8 -33q9 -15 37.5 -30t63.5 -15q34 0 69 19zM280 169q-12 21 -12 80l4 93l10 104q0 10 -2 18.5t-6 18.5q-8 20 -24 28t-25 10
q-9 3 -14.5 4t-16.5 4h-22q-43 0 -73 -21t-30 -54l6 -34q8 -27 8 -45q0 -2 0.5 -5.5t1.5 -8.5v-13v-18l-6 -84q-3 -31 -4 -54t-1 -36l1 -41l7 -41q6 -20 19.5 -34t29.5 -22.5t33 -12t31 -3.5q38 0 68 18q30 19 33 37l4 29q2 10 2 23l-5 27q-4 11 -8 18t-9 15z" />
    <glyph glyph-name="j" unicode="j" horiz-adv-x="380" 
d="M118 603q37 -22 78 -22q28 0 52.5 14t32.5 31l12 32q4 11 4 22q0 17 -9 31q-9 15 -37.5 30.5t-64.5 15.5q-46 0 -77 -28q-32 -29 -32 -61q0 -18 10 -37q12 -18 31 -28zM278 8q-9 9 -9 57l7 134q0 14 1 37.5t3 57.5t3 54t1 26l-1 48l-3 40q-3 16 -12 33q-12 18 -36.5 35.5
t-63.5 17.5q-38 0 -67 -19q-29 -20 -37 -50l-2 -12q-2 -8 -2 -23q0 -23 6 -45l16 -42q8 -14 9.5 -27t1.5 -28l-9 -159l-3 -136l4 -98q6 -49 35.5 -71.5t72.5 -22.5q19 0 37 6q39 12 63 39.5t24 63.5q0 46 -39 84z" />
    <glyph glyph-name="k" unicode="k" horiz-adv-x="600" 
d="M418 351l70 4q27 6 49.5 28t22.5 60q0 34 -21 61q-20 29 -47 35l-33 7l-12 1q-45 0 -79 -28q-36 -28 -50 -49q-14 -22 -17.5 -31t-8.5 -14l-3 -3q-8 4 -13 25.5t-5 54.5l2 46l2 47l-2 37q-2 11 -4.5 23t-5.5 22q-7 26 -37 44t-66 18l-22 -2l-35 -10q-25 -9 -41.5 -29.5
t-16.5 -48.5q0 -20 10 -49l24 -51v-20q0 -11 1 -25t1 -25v-17v-19t1 -26q1 -14 1 -25v-18l-2 -101l-6 -64q-6 -19 -27 -31t-21 -45q0 -25 10 -58q10 -34 46 -53q35 -19 72 -19l15 1l51 14q46 13 46 88q0 35 4.5 62t10.5 39q3 11 9 11q5 0 13 -9l9 -12l-3 -31q0 -62 38 -112
q39 -48 94 -48l35 5q15 3 30 11.5t27 21.5t19.5 29t7.5 34q0 27 -17 55q-15 25 -71 76q-53 48 -63 67q-9 16 -9 23q0 9 5.5 16t11.5 7z" />
    <glyph glyph-name="l" unicode="l" horiz-adv-x="340" 
d="M273 226q-4 28 -6 60.5t-2 70.5l-1 125v172q0 57 -39 75l-34 11q-20 7 -47 7q-24 0 -43.5 -9t-32.5 -24t-20 -34.5t-7 -40.5q0 -49 19 -68q19 -18 19 -25q2 -8 2 -18v-19l-8 -137l-3 -116l4 -88l11 -85q9 -36 41 -57t72 -21l41 5q26 7 47.5 35t21.5 64q0 16 -6 37l-17 46
q-12 27 -12 34z" />
    <glyph glyph-name="m" unicode="m" horiz-adv-x="850" 
d="M798 199q-8 35 -8 82q0 2 0.5 6.5t1.5 9.5v26v26l1 85q0 30 -16 56q-14 27 -49 32q-35 6 -55 6q-33 0 -59.5 -16t-65.5 -52q-5 -3 -8 -3q-9 0 -16 12l-20 30q-2 11 -32 20q-31 11 -58 11q-30 0 -55 -11q-28 -13 -52 -39q-23 -26 -29 -26q-5 1 -18 22q-11 23 -27 32
q-17 13 -37 13l-35 3q-51 0 -83 -26t-35 -49l-3 -33q0 -26 17 -55q18 -27 21 -48q3 -11 4 -26t1 -32q0 -46 -6 -67l-15 -20q-5 -6 -6.5 -14t-1.5 -29q0 -63 16 -88.5t54 -31.5q7 -1 15 -2t19 -3q5 -1 10 -1h12q38 0 66 14q14 9 21 19.5t10 22t3.5 23t0.5 23.5l-5 61
q0 11 -0.5 23.5t-1.5 26.5t-1.5 23t-0.5 13l2 47l10 39q8 20 30 20q32 0 32 -17l3 -29l1 -21q0 -24 -2 -43.5t-6 -40.5q-4 -23 -8 -42t-8 -33l-8 -38q0 -30 25 -56q26 -26 50 -31l33 -3l15 -1q42 0 66.5 15t30.5 33q8 18 8 42l-3 35l-7 41l-7 40l-3 41l4 45q2 6 6 20t8 22
q10 24 28 24h4l12 -4q9 -3 17.5 -15t8.5 -26q0 -11 -3 -31t-8 -51q-10 -59 -10 -88q0 -26 8.5 -51.5t25.5 -45.5t42.5 -32.5t60.5 -12.5q43 0 74 19q18 12 27 25.5t9 31.5q0 12 -2 23t-8 24z" />
    <glyph glyph-name="n" unicode="n" horiz-adv-x="610" 
d="M557 194q-3 12 -5.5 20.5t-3.5 16.5t-1.5 17t-0.5 22l4 61q1 5 1.5 12t2.5 17v35l-1 32l-3 26q-3 14 -17 38q-27 46 -97 46q-29 0 -63 -14q-32 -14 -44 -27l-19 -22q-4 -5 -6.5 -6t-4.5 -2q-10 0 -20 12l-29 36q-23 20 -56 20q-12 0 -23 -2t-30 -6q-18 -4 -34 -12
t-28 -19.5t-19 -25t-7 -28.5l8 -31l23 -66q16 -41 16 -84q0 -31 -13 -64l-18 -52q-6 -23 -6 -44q0 -28 14 -51q7 -11 20 -20t28.5 -15.5t32.5 -10t33 -3.5q38 0 67 17q30 18 36.5 39t6.5 33l-4 37l-10 51l-8 49q-2 12 -2 23v25q0 45 12 72q13 27 45 33q14 2 20 -13t7.5 -21
t1.5 -16l-7 -81q-2 -15 -6 -42q-1 -6 -1 -18v-28q0 -27 6 -55q9 -47 39 -75.5t81 -27.5q30 0 54 12q20 13 31.5 24.5t17 22.5t7.5 21t2 19q0 15 -11 43z" />
    <glyph glyph-name="o" unicode="o" horiz-adv-x="520" 
d="M127 30q29 -22 60 -31t65 -9q57 0 110 27q52 27 75 62q11 18 20.5 42t17 51t11.5 56t4 57q0 80 -34 144q-33 65 -90 86q-54 22 -97 22q-42 0 -80.5 -15t-68.5 -44q-29 -27 -55 -100q-24 -71 -24 -145q0 -63 20 -116.5t66 -86.5zM271 371q17 -3 26.5 -18.5t9.5 -36.5
l1 -101q0 -24 -13 -49t-33 -22q-17 3 -29 18q-11 17 -11 41l3 117q0 27 15 39.5t31 11.5z" />
    <glyph glyph-name="p" unicode="p" 
d="M465 33q37 40 58.5 109t21.5 148q0 66 -18 125q-18 58 -41 83q-24 28 -41 34.5t-38 6.5q-12 0 -24.5 -2.5t-29.5 -10.5q-26 -14 -36 -27l-20 -22q-6 -5 -8.5 -6t-5.5 -2q-10 0 -10 12q-28 40 -35 43q-7 6 -21 8t-26 5h-23q-45 0 -77 -19q-31 -21 -34 -41l-3 -35
q0 -32 15 -62q16 -28 16 -42q0 -6 0.5 -17t0.5 -23t0.5 -23t0.5 -17l1 -87l-2 -79l-6 -68q-5 -27 -12 -48l-14 -35q-6 -17 -6 -29q0 -29 18 -53q9 -12 22.5 -22.5t28.5 -18t30.5 -11.5t27.5 -4q25 -1 46.5 11t36.5 27.5t22.5 30t5.5 17.5l1 19q0 15 -12 59q-5 22 -8 37.5
t-3 26.5q0 18 5 33q1 5 9 13q7 -1 13 -13l31 -31q38 -32 75 -32q16 0 34 7t34 25zM323 371q30 0 30 -46l-1 -119q0 -18 -14 -30.5t-23 -10.5q-22 5 -30.5 15.5t-8.5 37.5l2 111q0 20 13.5 31t31.5 11z" />
    <glyph glyph-name="q" unicode="q" horiz-adv-x="575" 
d="M507 353q3 17 19 38q17 23 17 36q-5 33 -19 58t-37 34q-22 11 -36 11q-5 1 -11 1.5t-14 0.5q-60 0 -79 -25q-16 -24 -26.5 -34.5t-17.5 -10.5q-6 0 -15 21q-8 21 -32.5 38t-52.5 17q-49 0 -86 -43q-19 -23 -32 -49t-25 -62q-11 -36 -15 -65.5t-4 -68.5q1 -41 8.5 -84.5
t23 -79.5t40 -59.5t61.5 -22.5q33 0 64 17.5t47 43.5q3 3 9 -3q8 -5 8 -18q0 -24 -12 -70q-7 -28 -9 -42t-2 -27q0 -22 10 -52q10 -33 45 -45.5t80 -12.5q38 0 72 28t34 69l-3 22l-16 31q-15 42 -15 82v79l4 135q3 36 7.5 64t9.5 48zM270 368q13 -3 25 -14.5t12 -26.5
l-1 -119q-1 -16 -13 -31q-14 -14 -26 -14q-16 3 -24 19.5t-8 36.5l5 115q0 16 9 26t21 8z" />
    <glyph glyph-name="r" unicode="r" horiz-adv-x="490" 
d="M396 319q21 17 29.5 40.5t8.5 50.5l-5 46q-5 29 -37 53t-69 24q-38 0 -60 -24l-11 -15q-8 -8 -14 -8l-9 2l-21 26q-23 14 -41 18.5t-43 4.5q-45 0 -72.5 -22t-27.5 -61q0 -25 19 -79q20 -57 20 -82l-4 -29q-4 -11 -7 -45l-3 -54q0 -72 25 -120q13 -22 42.5 -35t63.5 -13
q38 0 66 18t31 43l5 32q0 16 -22 85q-21 72 -21 104l1 22l4 20q4 10 14 10q7 -1 13 -5q16 -16 33 -22.5t33 -6.5q31 0 59 22z" />
    <glyph glyph-name="s" unicode="s" horiz-adv-x="550" 
d="M305 375q52 -27 97 -27q39 0 60.5 22t21.5 51q0 45 -39 78q-34 26 -72.5 37.5t-76.5 11.5q-10 0 -22 -1.5t-24 -3.5t-22.5 -4t-17.5 -4q-11 -3 -21.5 -6t-21.5 -7q-36 -12 -60.5 -48.5t-24.5 -82.5q0 -20 11 -62q12 -38 75 -68l157 -69l3 -12q-4 -23 -20 -23l-20 4
l-65 29q-52 26 -81 26q-11 0 -32 -6q-20 -6 -37.5 -30.5t-17.5 -53.5l4 -30q5 -15 20 -37.5t53 -36.5q12 -5 20.5 -7.5l17 -5t17.5 -4l21 -3.5t21 -3t17 -2t16 -1h20q85 0 146 37q62 38 69 82q2 11 5 28t3 30q0 75 -75 105l-162 66q-8 8 -8 15q0 21 26 21z" />
    <glyph glyph-name="t" unicode="t" horiz-adv-x="400" 
d="M279 405q6 6 42 6q41 5 41 19l1 20q0 8 -2 18q-1 8 -7 18.5t-23 7.5l-23 -3q-38 0 -38 35l4 38l4 55q0 40 -15 72t-50 47q-20 11 -45 11q-25 1 -46 -10t-36 -27.5t-23 -35t-6 -33.5q0 -19 10 -48l20 -56q11 -30 11 -35q-1 -7 -7 -7l-20 -3l-24 -1l-20 1q-18 0 -20 -11
l-1 -21q0 -26 11.5 -37.5t24.5 -8.5l29 -6q13 -3 16 -14t3 -34q0 -5 -1 -14.5t-3 -24.5q-7 -56 -9 -67q-7 -45 -10 -71.5t-3 -41.5q0 -45 16 -79t48 -52q16 -9 32.5 -12.5t30.5 -3.5q38 0 70 21q15 11 24 24t13 26t5 24.5t1 20.5q0 17 -14 47l-18 46q-6 18 -6 27v25l3 69
l4 48l1 19z" />
    <glyph glyph-name="u" unicode="u" 
d="M458 0q31 8 50 20.5t28.5 26t12.5 26t2 19.5q0 12 -1.5 18.5t-3.5 13.5l-17 46q-8 19 -11 28t-5 20l-3 46l3 61l4 56q0 39 -10 70q-14 35 -38 57q-15 14 -31 20t-36 6q-38 0 -69 -22q-31 -21 -34 -45l-3 -30q0 -17 18 -86t18 -98q0 -27 -5.5 -44.5t-14 -28t-18.5 -15
t-19 -4.5q-18 0 -26 17q-6 18 -6 28l-1 32l5 68q3 26 4 44.5t1 28.5q3 66 -28.5 108t-86.5 44q-40 0 -74 -23q-32 -23 -32 -52q0 -45 3 -66q3 -12 8.5 -25.5t11.5 -27.5q16 -31 16 -55l-7 -63q-6 -54 -6 -78l4 -51q3 -13 7 -24.5t8 -22.5q25 -45 92 -45q36 0 75 17
q38 18 50 39q13 22 21 22q7 0 19 -21q15 -23 42.5 -40t56.5 -17z" />
    <glyph glyph-name="v" unicode="v" horiz-adv-x="540" 
d="M286 12q89 47 146 183t57 240q0 49 -35 82q-34 34 -82 34l-26 -3q-11 -2 -25 -9t-26.5 -18.5t-20 -26.5t-5.5 -32q0 -25 10 -44l17 -29q3 -18 4 -35.5t1 -34.5q-1 -26 -3 -39.5t-5 -20t-7 -8t-9 -4.5q-5 0 -14 16q-8 15 -28 121q-18 106 -65 133t-75 27q-21 0 -38.5 -7.5
t-30.5 -19.5t-20.5 -28.5t-7.5 -34.5q0 -6 1.5 -15l3.5 -21q10 -29 43 -65q34 -37 37 -50q2 -6 9.5 -33.5t18.5 -76.5q13 -49 22 -81.5t16 -49.5q15 -34 41 -45q25 -13 57 -13l21 2z" />
    <glyph glyph-name="w" unicode="w" horiz-adv-x="700" 
d="M535 30q39 70 79 183q40 111 40 200q0 42 -11.5 73t-34.5 42q-22 13 -54 13q-21 0 -37 -4t-31 -12q-29 -15 -39.5 -30.5t-10.5 -34.5q1 -14 20 -68q18 -53 18 -78l-4 -30l-8 -28q-6 -12 -12 -12q-9 0 -15 14t-9 24q-2 11 -4.5 21t-2.5 19l-1 31l1 16l1 15q0 7 -6 10
q-6 6 -27 15.5t-40 9.5q-35 0 -50 -36l-16 -87q-2 -14 -9.5 -25.5t-12.5 -11.5q-9 0 -9 32l-10 75l-11 64q-5 25 -19 50q-14 27 -41.5 39.5t-60.5 12.5q-34 0 -61 -18q-26 -18 -32 -40t-6 -35l83 -169l24 -127q9 -44 20 -71.5t24.5 -43.5t31 -22t40.5 -6q27 0 52 14
q24 13 38 65q13 51 21 62q3 11 10 11q13 0 13 -20q3 -5 14 -46q12 -41 25 -58q14 -18 30.5 -23.5t35.5 -5.5q48 0 64 31z" />
    <glyph glyph-name="x" unicode="x" horiz-adv-x="600" 
d="M403 306q13 15 76 25q64 13 70 44l7 38l1 13q0 24 -10 48q-12 24 -39.5 44.5t-73.5 20.5q-42 0 -68.5 -21t-26.5 -54q0 -20 -8 -20q-10 1 -18 17l-18 36q-17 24 -40.5 33t-47.5 9q-35 0 -63 -16q-28 -18 -41.5 -48t-13.5 -55q0 -41 33 -65q35 -23 73 -31q37 -7 40 -16
q5 -12 5 -29q0 -4 -0.5 -12t-4.5 -22q-6 -14 -15 -17l-88 -13q-64 -21 -64 -94q0 -38 13 -65q15 -28 38 -39q24 -9 32 -9l27 -1q43 0 78 22q36 22 39 51q4 30 13 30q14 0 29 -40q21 -34 51 -51.5t62 -17.5q35 0 67 17q23 17 32.5 26.5t12 17t1.5 14.5t1 18q0 11 -4 30.5
t-9 36.5q-14 44 -58 50l-73 9q-12 3 -18 20t-6 38t7 28z" />
    <glyph glyph-name="y" unicode="y" 
d="M478 310q48 56 60 74q15 22 18 39l4 24q0 15 -5.5 30.5t-15.5 28.5t-22.5 21.5t-25.5 10.5q-25 5 -42 5q-33 0 -57.5 -12.5t-42.5 -35t-30.5 -54t-19.5 -68.5l-4 -23l-5 -10q-6 1 -13 32l-19 83q-18 54 -58 69q-38 16 -66 16q-24 0 -44.5 -8.5t-34.5 -22.5t-21.5 -32.5
t-5.5 -37.5q0 -36 28 -76q14 -18 32.5 -39.5t42.5 -46.5q8 -14 18 -44t23 -75q26 -91 29 -124q0 -29 -6 -38t-16 -9q-6 1 -14.5 3.5t-19.5 7.5q-22 9 -29 8q-33 -6 -50 -15q-15 -11 -28 -35q-12 -27 -12 -49q0 -40 27 -68t57.5 -40.5t63.5 -12.5q61 0 120 47q58 46 70 100
q8 28 16.5 66.5t17.5 88.5q19 99 33 141q20 51 47 81z" />
    <glyph glyph-name="z" unicode="z" horiz-adv-x="600" 
d="M356 236l133 123q66 63 66 116q0 32 -28 44q-25 13 -42 13q-16 0 -45 -17t-50 -17q-39 0 -94 20t-85 20q-45 0 -72 -29.5t-27 -69.5q0 -23 9 -41t25.5 -30.5t39.5 -18.5t49 -4h19l40 5q9 -2 9 -7q0 -10 -38 -43l-118 -105q-80 -74 -80 -124q0 -21 17 -41
q19 -14 29.5 -18.5t22.5 -4.5q13 0 45 21q34 22 40 23q28 0 103 -25q76 -24 140 -24q18 0 34.5 7.5t29.5 20.5t20.5 30t7.5 37q0 23 -12 45.5t-34 40.5q-21 19 -40.5 25.5t-41.5 6.5l-30 -3l-35 -5l-11 -1q-13 1 -13 7q0 8 17 23z" />
    <glyph glyph-name="braceleft" unicode="{" horiz-adv-x="524" 
d="M384 728q18 0 29.5 10t11.5 27q0 12 -9.5 24.5t-31.5 12.5h-93q-69 0 -105.5 -34.5t-36.5 -106.5v-263q0 -25 -9 -37q-11 -12 -34 -12q-16 0 -28.5 -10.5t-12.5 -27.5q0 -20 11 -29.5t30 -9.5q43 0 43 -48v-273q0 -75 36.5 -108t105.5 -33h93q17 0 29 9.5t12 27.5
t-12.5 27.5t-28.5 9.5q-43 0 -43 48v245q0 61 -19.5 93.5t-75.5 41.5q29 4 47.5 14t29 25.5t14.5 38.5t4 54v236q0 24 9 36q10 12 34 12z" />
    <glyph glyph-name="bar" unicode="|" horiz-adv-x="496" 
d="M248 -176q39 0 49 10t10 39v16v831q0 40 -9 52q-7 13 -50 13q-45 0 -52 -13q-7 -11 -7 -52v-831v-16q0 -29 10 -39t49 -10z" />
    <glyph glyph-name="braceright" unicode="}" horiz-adv-x="524" 
d="M418 272q23 0 32 13t9 26t-9.5 25.5t-31.5 12.5q-25 0 -34 13t-9 36v263q0 75 -36.5 108t-105.5 33h-93q-17 0 -29 -9t-12 -28q0 -18 12.5 -27.5t28.5 -9.5q43 0 43 -48v-236q0 -61 20.5 -93.5t74.5 -41.5q-29 -3 -47.5 -12.5t-29 -25.5t-14.5 -39.5t-4 -54.5v-245
q0 -24 -9 -36q-11 -12 -34 -12q-18 0 -29.5 -9.5t-11.5 -27.5q0 -12 9.5 -24.5t31.5 -12.5h93q69 0 105.5 34.5t36.5 106.5v273q0 24 9 36q10 12 34 12z" />
    <glyph glyph-name="asciitilde" unicode="~" horiz-adv-x="568" 
d="M372 282q66 0 94.5 39.5t28.5 112.5h-89q0 -29 -12 -41t-35 -12q-29 0 -75 28t-82 28q-32 0 -56.5 -11t-44.5 -32q-38 -44 -38 -110h93q0 25 16 40t37 15q26 0 73 -29q46 -28 90 -28z" />
    <glyph glyph-name="quotesinglbase" unicode="&#x201a;" horiz-adv-x="300" 
d="M105 -121q57 40 85 80q32 42 38 71l5 20t3 21l2 18q0 10 -4.5 23.5t-14.5 25.5t-26 20t-40 8q-19 0 -37 -6l-40 -15q-21 -10 -38 -33t-17 -44q1 -15 8 -27l29 -30q21 -20 21 -30q0 -20 -18 -45q-17 -26 -17 -34q0 -12 13 -20.5t27 -8.5q12 0 21 6z" />
    <glyph glyph-name="quotedblbase" unicode="&#x201e;" horiz-adv-x="620" 
d="M105 -121q57 40 85 80q32 42 38 71l5 20t3 21l2 18q0 10 -4.5 23.5t-14.5 25.5t-26 20t-40 8q-19 0 -37 -6l-40 -15q-21 -10 -38 -33t-17 -44q1 -15 8 -27l29 -30q21 -20 21 -30q0 -20 -18 -45q-17 -26 -17 -34q0 -12 13 -20.5t27 -8.5q12 0 21 6zM406 -121q57 40 85 80
q32 42 38 71l5 20t3 21l2 18q0 10 -4.5 23.5t-14.5 25.5t-26 20t-40 8q-19 0 -37 -6l-40 -15q-21 -10 -38 -33t-17 -44q1 -15 8 -27l29 -30q21 -20 21 -30q0 -20 -18 -45q-17 -26 -17 -34q0 -12 13 -20.5t27 -8.5q12 0 21 6z" />
    <glyph glyph-name="ellipsis" unicode="&#x2026;" horiz-adv-x="1000" 
d="M721 16q34 -21 75 -21q25 0 48 8t39.5 22t26.5 34.5t10 44.5q0 22 -7 36.5t-26 22.5q-19 9 -31 11t-30 2q-29 0 -53.5 -10.5t-43 -26.5t-28.5 -35.5t-8 -35.5q0 -33 28 -52zM396 16q34 -21 75 -21q25 0 48 8t39.5 22t26.5 34.5t10 44.5q0 22 -7 36.5t-26 22.5
q-19 9 -31 11t-30 2q-29 0 -53.5 -10.5t-43 -26.5t-28.5 -35.5t-8 -35.5q0 -33 28 -52zM61 16q34 -21 75 -21q25 0 48 8t39.5 22t26.5 34.5t10 44.5q0 22 -7 36.5t-26 22.5q-19 9 -31 11t-30 2q-29 0 -53.5 -10.5t-43 -26.5t-28.5 -35.5t-8 -35.5q0 -33 28 -52z" />
    <glyph glyph-name="dagger" unicode="&#x2020;" horiz-adv-x="420" 
d="M282 403q1 7 13 8q5 1 13 1.5t21 0.5l22 -1h22q7 1 10.5 12t3.5 28q0 13 -1 18t-4 13q-6 13 -14 13l-60 -1q-13 1 -20 5q-6 8 -5 20l10 81q2 16 3 32.5t1 35.5l-3 42l-3 15t-5 15q-6 10 -25 13.5t-50 3.5q-22 0 -39 -2t-34 -5q-16 -3 -25 -9.5t-13 -14t-5 -15.5t-1 -15
v-28q0 -9 0.5 -23t4.5 -47l14 -79l2 -12q-1 -13 -13 -13l-16 1h-14l-16 1l-22 -4q-9 -6 -10.5 -16t-1.5 -33l4 -29q4 -9 19 -9h17l20 1q33 0 39 -27q7 -27 24 -177l27 -222q12 -74 20 -74q14 0 34 123q2 16 8 53t15 97t17 115.5t16 107.5z" />
    <glyph glyph-name="daggerdbl" unicode="&#x2021;" horiz-adv-x="560" 
d="M272 541q16 -8 32 -14.5t33 -11.5q9 -3 16 -4.5t13.5 -2t15 -1t20.5 -0.5q40 0 73 16q33 17 47.5 45.5t14.5 60.5q0 50 -25 90q-24 40 -61 40q-12 0 -37 -9l-53 -15q-12 -2 -26 -3.5t-30 -1.5l-55 3l-47 7l-34 3q-31 0 -55 -13t-41 -31.5t-26 -39t-9 -34.5q0 -26 13 -49
q15 -23 30.5 -27.5t27.5 -4.5l41 7q32 7 52 7l33 -4q10 -2 19.5 -5.5t17.5 -7.5zM122 38q38 -22 85 -32q32 -7 53 -8.5t42 -1.5q87 0 145 34q60 34 60 100l-4 33l-14 41q-10 22 -25 31q-16 11 -35 11q-9 -1 -24 -4.5t-37 -9.5q-22 -5 -38.5 -8t-28.5 -3q-19 0 -31 3
q-25 11 -25 31l-2 17q0 31 32 97q32 67 32 95q0 22 -15 39.5t-40 23.5q-17 6 -22 7t-14 1q-49 0 -92 -97q-24 -51 -42 -85.5t-29 -52.5q-28 -40 -28 -96q0 -49 24.5 -94t72.5 -72z" />
    <glyph glyph-name="circumflex" unicode="&#x2c6;" horiz-adv-x="527" 
d="M351 573q24 0 24 29q0 32 -68 83q-67 52 -95 52q-24 0 -94 -53q-68 -53 -68 -82q0 -12 6 -21q8 -8 17 -8q19 0 68 28q50 28 71 28t70 -28q50 -28 69 -28z" />
    <glyph glyph-name="perthousand" unicode="&#x2030;" horiz-adv-x="918" 
d="M819 22q32 26 47 72t15 100q0 90 -24 126t-45.5 45.5t-48.5 9.5q-42 0 -70 -25q-27 -27 -41.5 -70t-14.5 -100q0 -39 9 -76q17 -58 42 -80.5t67 -22.5q40 0 64 21zM759 275q14 -3 20 -14t6 -25l-1 -103q-1 -16 -8 -26.5t-19 -7.5q-15 6 -20 15t-5 26l3 102l8 21
q9 12 16 12zM206 392q32 27 47.5 74.5t15.5 99.5q0 89 -24 124q-24 36 -46.5 45.5t-47.5 9.5q-43 0 -70 -24.5t-42 -70.5q-8 -25 -11 -48t-3 -51q0 -38 9 -75.5t24 -61.5q16 -23 37 -33t49 -10q38 0 62 21zM500 622q9 12 13 34q6 23 4 34q-6 34 -17.5 46t-24.5 12
q-14 0 -20 -6l-20 -21q-15 -15 -24 -42q-6 -15 -24 -54t-49 -103l-130 -263q-71 -135 -82 -147q-11 -13 -14 -22l-3 -18l2 -13l5 -10q0 -20 14.5 -35.5t30.5 -15.5q16 1 28 15l20 19q11 15 15 23q4 11 20 48.5t45 100.5l130 268q69 138 81 150zM543 22q32 26 47 72t15 100
q0 90 -24 126t-45.5 45.5t-48.5 9.5q-42 0 -70 -25q-27 -27 -41.5 -70t-14.5 -100q0 -39 9 -76q17 -58 42 -80.5t67 -22.5q40 0 64 21zM147 645q14 -3 20 -14t6 -25l-1 -103q-2 -16 -8.5 -26.5t-18.5 -7.5q-15 6 -20 15t-5 26l3 103q0 2 3 10.5t4 10.5q8 11 17 11zM483 275
q14 -3 20 -14t6 -25l-1 -103q-1 -16 -8 -26.5t-19 -7.5q-15 6 -20 15t-5 26l3 102l8 21q9 12 16 12z" />
    <glyph glyph-name="Scaron" unicode="&#x160;" horiz-adv-x="560" 
d="M437 484q43 0 69 30t26 73q0 25 -12 51q-11 27 -38 56t-70 41q-44 14 -98 14q-100 0 -171 -62t-71 -152q0 -28 10 -64q12 -33 33 -66q23 -34 110 -81q45 -23 69.5 -39.5t31.5 -25.5q13 -16 13 -30q0 -18 -14.5 -32.5t-33.5 -14.5q-11 0 -27.5 8t-39.5 23q-48 33 -58 34
l-21 2q-31 0 -56 -16q-13 -9 -22 -18.5t-16 -19.5l-18 -34q-4 -12 -4 -29q0 -35 36 -74t89.5 -61.5t113.5 -22.5q86 0 159 46t91 101q18 54 18 86q0 84 -65 155t-125 83q-60 15 -73 34t-10 31q6 20 13 27t20 7q12 0 66 -30t75 -30zM334 797q27 0 94 52q68 53 68 84
q-2 13 -7 20q-9 9 -17 9q-12 0 -67 -29q-53 -28 -72 -28q-20 0 -69 28q-50 29 -70 29q-11 0 -17 -9t-6 -20q0 -32 67 -84t96 -52z" />
    <glyph glyph-name="guilsinglleft" unicode="&#x2039;" horiz-adv-x="293" 
d="M230 117q18 0 33.5 13.5t15.5 30.5q0 19 -48 87q-47 68 -47 96q0 25 47 95q48 70 48 88q0 17 -16 30q-14 14 -33 14q-26 0 -61.5 -29.5t-74.5 -71.5q-38 -41 -59 -69t-21 -57t23.5 -60t56.5 -66q17 -18 34 -34.5t35 -33.5q37 -33 67 -33z" />
    <glyph glyph-name="OE" unicode="&#x152;" horiz-adv-x="930" 
d="M661 554q51 -27 96 -27q42 0 67 23.5t25 68.5q0 52 -44 84t-86 38l-25 5t-25 3l-25 1q-45 0 -87 -13q-41 -11 -62 -21l-26 -14l-22 -18l-4 5q-31 38 -71.5 54.5t-91.5 16.5l-67 -7q-46 -7 -96 -50q-49 -40 -49 -110q0 -23 6 -39.5t21 -29.5q31 -26 70 -26l25 4
q9 4 20.5 10t25.5 16l39 25q7 4 15 4q18 0 30 -15q15 -15 24 -46q12 -31 18 -67q7 -27 7.5 -43t0.5 -29q0 -45 -16 -85.5t-50 -65.5q-8 -8 -24 -8q-20 0 -40 17q-19 19 -25.5 40t-6.5 46q0 14 3.5 33t6.5 35q8 29 9 40q1 6 1.5 15t0.5 20q0 18 -18 27q-19 11 -41 11
q-8 -1 -19.5 -4.5t-27.5 -8.5q-33 -14 -62 -66q-28 -50 -28 -117q0 -93 34 -154q17 -30 32 -51t26 -33q26 -24 67 -38t90 -14q90 0 151 55q18 -12 38 -21.5t40.5 -15.5t39 -9.5t33.5 -4.5q16 -3 32 -4t32 -1q78 0 132 30q55 30 61 63l9 43v12q2 20 -5.5 37t-20.5 29t-29 18
t-31 5q-18 0 -65 -19t-69 -19q-21 0 -36 6q-31 18 -31 46q0 54 53 69l102 17q35 9 35 48q0 28 -18 45q-18 18 -74 24t-66 27q-7 13 -9 20t-2 14q0 21 15 36t36 15q17 -2 26 -7z" />
    <glyph glyph-name="quoteleft" unicode="&#x2018;" horiz-adv-x="300" 
d="M171 475q21 10 35 30t14 42q0 21 -10 32l-32 31q-22 21 -22 39q0 19 10 40l10 28q-2 14 -13 23q-15 9 -29 9q-8 0 -29.5 -14t-44 -38.5t-39 -58t-15.5 -73.5l-1 -20q0 -21 8 -42q9 -18 34 -33t53 -15q16 0 36 5z" />
    <glyph glyph-name="quoteright" unicode="&#x2019;" horiz-adv-x="300" 
d="M118 467q54 42 80.5 82.5t26.5 95.5l1 20q0 23 -9 41q-9 19 -34 34t-52 15q-18 0 -36 -6l-37 -15q-21 -11 -34 -29.5t-13 -39.5t10 -34l32 -31q22 -21 22 -38t-10 -41q-6 -13 -7 -16.5l-3 -10.5q1 -14 13 -24q15 -9 29 -9q13 0 21 6z" />
    <glyph glyph-name="quotedblleft" unicode="&#x201c;" horiz-adv-x="620" 
d="M475 478q21 10 35 30t14 41t-12 33q-12 15 -32 32q-21 21 -21 37q0 18 10 39q11 24 11 30q0 13 -14 22.5t-29 9.5q-15 -2 -43 -24q-29 -21 -54 -63q-25 -39 -28 -73l-3 -46q0 -20 8 -41q10 -19 26 -29q13 -8 25.5 -13t35.5 -5q16 0 36 5zM198 478q23 11 36.5 30.5
t13.5 41.5q0 18 -12 33l-38 38q-15 18 -15 30q0 20 10 41q7 13 8.5 17.5t2.5 9.5q-1 15 -14.5 24t-28.5 9q-13 -1 -42 -22.5t-54 -63.5q-27 -42 -30 -73l-3 -42q0 -22 8 -44q7 -15 18.5 -25t24.5 -15t25 -7t20 -2q13 0 18 1t16 4t19 6.5t17 8.5z" />
    <glyph glyph-name="quotedblright" unicode="&#x201d;" horiz-adv-x="620" 
d="M426 467q28 22 45.5 39.5t32.5 40.5q15 24 22.5 46.5t7.5 51.5l1 16q0 26 -9 44q-4 10 -13 19t-21 16t-25.5 11t-27.5 4q-18 0 -36 -6l-37 -15q-19 -9 -33.5 -29.5t-14.5 -41.5q0 -19 11 -33q3 -4 14 -15l7.5 -7.5t11.5 -9.5q21 -20 21 -36q0 -17 -11 -41
q-10 -21 -10 -28q0 -13 13 -23q15 -9 30 -9q13 0 21 6zM150 467q52 42 79.5 82.5t27.5 95.5l2 21q2 15 -4.5 31t-19.5 28.5t-31.5 21t-40.5 8.5q-20 0 -36 -6l-37 -15q-21 -11 -34.5 -30t-13.5 -40q0 -19 10 -32l33 -33q22 -21 22 -37q0 -17 -11 -41q-10 -21 -10 -28
q0 -13 13 -23q15 -9 30 -9q12 0 21 6z" />
    <glyph glyph-name="bullet" unicode="&#x2022;" horiz-adv-x="650" 
d="M320 225q73 0 124 52t51 123q0 73 -52 124q-53 51 -123 51q-73 0 -124 -52q-51 -53 -51 -123q0 -73 52 -124t123 -51z" />
    <glyph glyph-name="endash" unicode="&#x2013;" horiz-adv-x="750" 
d="M654 305q39 0 52 8q13 9 13 51q0 45 -12 51q-13 8 -53 8h-556h-16q-29 0 -39 -10t-10 -49t10 -49t39 -10h16h556z" />
    <glyph glyph-name="emdash" unicode="&#x2014;" horiz-adv-x="1000" 
d="M914 305q39 0 52 8q13 9 13 51q0 45 -12 51q-13 8 -53 8h-820h-16q-29 0 -39 -10t-10 -49t10 -49t39 -10h16h820z" />
    <glyph glyph-name="tilde" unicode="&#x2dc;" horiz-adv-x="609" 
d="M370 585q16 0 31 7t26 19t17.5 27.5t6.5 32.5q0 28 -16 34q-16 8 -46 8q-13 -2 -21.5 -9t-8.5 -23q0 -19 -15 -19q-6 1 -23.5 7.5t-46.5 17.5q-31 13 -54 19.5t-40 6.5q-15 0 -29.5 -7t-26 -18.5t-18 -27t-6.5 -32.5q0 -28 15 -35.5t46 -7.5q13 1 21 8q10 10 10 25l3 14
q3 4 12 4q12 -1 71 -27q58 -24 92 -24z" />
    <glyph glyph-name="trademark" unicode="&#x2122;" horiz-adv-x="1000" 
d="M255 658l14 -2l22 -1q37 0 64 13q28 15 28 47q0 20 -15 32q-15 13 -30 9q-17 -6 -25 -7t-24 -1l-40 4l-42 13q-21 9 -39 9q-19 0 -34 -6l-33 -16q-18 -10 -28 -27.5t-10 -37.5l3 -21l17 -28q15 -18 42 -18q17 1 32 8l29 19q5 5 13 9l6 3t19 2zM753 629q11 7 65 7
q64 6 70 55q0 29 -10 43q-13 20 -37 26.5t-47 6.5q-29 0 -51 -10t-40.5 -29.5t-35 -47t-33.5 -62.5q0 47 -24 88q-25 42 -59 52q-36 11 -60 11q-34 0 -58 -14.5t-32 -43.5l-2 -18q0 -36 22 -49q24 -12 38 -12l21 2l28 2l11 -1q7 -1 13 -9q15 -15 25 -47.5t10 -97.5
q9 -93 23 -120q16 -27 33 -27q17 2 30.5 12.5t16.5 23.5l29 151q16 82 54 108zM286 485q-3 17 -4 30.5t-1 23.5q1 5 1.5 12t0.5 17l1 34l-2 18l-3 12q-3 6 -15 13t-19 6q-55 -13 -64 -85l-6 -68q-3 -29 -37 -38q-34 -8 -51.5 -19t-17.5 -46t30 -54q32 -20 62 -20q32 0 60 19
t42 45q14 27 19 45t5 38zM768 339l16 -6l15 -1q16 0 29.5 7t23 17.5t14.5 23.5t5 25q0 8 -1 11l-7 19q-4 10 -13 21q-2 2 -4 4.5t-4 4.5q-1 3 -5.5 18t-4.5 33l2 25l3 21l-2 23l-8 26q-6 15 -25 15q-36 0 -51 -36q-10 -21 -14.5 -39.5t-4.5 -38.5q-2 -20 -3 -47.5t-1 -64.5
q0 -20 11 -37q13 -16 29 -24zM412 228q36 0 60 13.5t38.5 38.5t20.5 61.5t6 82.5l-4 78l-6 81q0 17 -16 29.5t-34 9.5q-33 -6 -36 -35q-7 -34 -7 -77v-78q0 -26 -26 -60q-13 -16 -20.5 -27.5t-11.5 -21t-5 -18t-1 -18.5q0 -26 9.5 -42.5t32.5 -16.5z" />
    <glyph glyph-name="scaron" unicode="&#x161;" horiz-adv-x="550" 
d="M305 375q52 -27 97 -27q39 0 60.5 22t21.5 51q0 45 -39 78q-34 26 -72.5 37.5t-76.5 11.5q-10 0 -22 -1.5t-24 -3.5t-22.5 -4t-17.5 -4q-11 -3 -21.5 -6t-21.5 -7q-36 -12 -60.5 -48.5t-24.5 -82.5q0 -20 11 -62q12 -38 75 -68l157 -69l3 -12q-4 -23 -20 -23l-20 4
l-65 29q-52 26 -81 26q-11 0 -32 -6q-20 -6 -37.5 -30.5t-17.5 -53.5l4 -30q5 -15 20 -37.5t53 -36.5q12 -5 20.5 -7.5l17 -5t17.5 -4l21 -3.5t21 -3t17 -2t16 -1h20q85 0 146 37q62 38 69 82q2 11 5 28t3 30q0 75 -75 105l-162 66q-8 8 -8 15q0 21 26 21zM306 566
q27 0 94 52q68 53 68 84q-2 13 -7 20q-9 9 -17 9q-12 0 -67 -29q-53 -28 -72 -28q-20 0 -69 28q-50 29 -70 29q-11 0 -17 -9t-6 -20q0 -32 67 -84t96 -52z" />
    <glyph glyph-name="guilsinglright" unicode="&#x203a;" horiz-adv-x="293" 
d="M193 213q42 43 64 72.5t22 58.5q0 30 -24 60q-24 33 -56 65q-17 18 -34 34.5t-35 33.5q-37 34 -67 34q-18 0 -33.5 -13.5t-15.5 -30.5t47 -88q48 -69 48 -95t-48 -95q-47 -68 -47 -88q0 -17 15.5 -30.5t33.5 -13.5q13 0 28.5 8t32.5 21.5t34.5 31t34.5 35.5z" />
    <glyph glyph-name="oe" unicode="&#x153;" horiz-adv-x="820" 
d="M529 193q72 17 138 52q69 38 82 71q14 36 14 67q0 23 -6.5 45t-17.5 40.5t-26.5 32.5t-33.5 22q-33 16 -57 19q-18 4 -26 4h-19q-81 0 -145 -52l-15 -14q-31 28 -70 42.5t-78 14.5q-42 0 -80.5 -15t-68.5 -44q-29 -27 -55 -100q-24 -71 -24 -145q0 -63 21 -116.5
t58 -81.5q38 -27 67.5 -36t63.5 -9q24 0 48.5 5.5t47 14.5t41.5 21t32 26q30 -29 72.5 -43.5t84.5 -14.5q48 0 92 18q43 21 64 52t21 59q0 16 -6 30q-5 13 -25 34q-20 20 -46 20q-19 0 -41 -16l-45 -38q-7 -7 -18 -10l-18 -3q-16 0 -29 8.5t-13 15.5q0 21 16 24zM513 372
l4 9q23 26 43 26q16 0 24.5 -13t8.5 -22q0 -27 -30 -54q-30 -26 -51 -21q-16 6 -16 30q0 25 17 45zM271 371q17 -3 26.5 -18.5t9.5 -36.5l1 -101q0 -24 -13 -49t-33 -22q-17 3 -29 18q-11 17 -11 41l3 117q0 27 15 39.5t31 11.5z" />
    <glyph glyph-name="Ydieresis" unicode="&#x178;" horiz-adv-x="680" 
d="M451 -43q11 37 20 87.5t18 125.5q19 145 48 249q30 104 71 169q42 64 42 80q0 24 -15 48.5t-42 30.5q-17 6 -24.5 7t-21.5 1q-36 0 -64 -15q-28 -16 -62 -51q-36 -36 -49 -123q-2 -14 -4 -34t-6 -47q-2 -20 -3 -40.5t-1 -40.5q-1 -14 -5 -23q-6 -9 -17 -6l-16 8
q-4 4 -7.5 18t-7 40t-7 65t-8.5 93q-23 119 -80 131q-59 12 -70 12q-23 0 -42.5 -8t-34 -21.5t-22.5 -32t-8 -39.5q0 -35 12 -54l42 -59q30 -36 53 -150q11 -57 22 -93.5t22 -53.5q24 -34 70 -52q45 -16 50 -23q6 -6 6 -15l-4 -20l-11 -51q-10 -33 -28 -39l-29 -6
q-6 1 -23 3.5t-26 4.5q-8 3 -19 5.5t-25 2.5l-34 -7q-21 -8 -34 -30q-8 -12 -11 -24t-3 -28q0 -27 14 -66q16 -38 56 -56.5t91 -18.5l22 1l60 6q23 4 45.5 15t42 29t34.5 41.5t23 53.5zM432 799q31 0 65 14q31 15 28 46q-4 25 -23.5 34t-42.5 9q-18 0 -34 -3t-28 -9.5
t-18.5 -18t-4.5 -27.5q3 -22 21 -33.5t37 -11.5zM225 799q30 0 63 14q31 15 28 46q-8 43 -66 43q-18 0 -34 -3t-28 -9.5t-18.5 -18t-4.5 -27.5q3 -23 21 -34t39 -11z" />
    <glyph glyph-name="exclamdown" unicode="&#xa1;" horiz-adv-x="351" 
d="M161 585q22 2 39 6.5t31 9.5q28 12 39 34.5t11 36.5q0 40 -35 64q-34 25 -72 25q-66 0 -88 -36q-21 -35 -21 -55q0 -34 26 -60q28 -25 70 -25zM60 67q0 -35 28.5 -53.5t68.5 -18.5q50 0 87 25q38 29 38 74q0 214 -28 311q-29 101 -44 115q-17 15 -34 15q-25 0 -46 -21
q-22 -20 -38 -117q-8 -48 -14.5 -91t-10.5 -81t-5.5 -77t-1.5 -81z" />
    <glyph glyph-name="cent" unicode="&#xa2;" horiz-adv-x="470" 
d="M354 406q27 10 43.5 28t16.5 44q0 33 -22.5 64.5t-55.5 44.5l4 3q2 6 2 14l-5 36l-8 33q-4 12 -20 18q-16 8 -36 8l-17 -2l-15 -39v-20l-5 -35q-54 0 -96.5 -22t-63.5 -60q-11 -19 -19 -40t-13 -42q-10 -39 -10 -87q0 -41 9 -78.5t27.5 -68.5t46.5 -55t66 -37l3 -4
q-2 -6 -2 -22l2 -35l7 -24q5 -11 22.5 -21t33.5 -10q23 0 29 19l9 41q5 20 5 33q0 5 6 5q37 0 64.5 15t39.5 36q13 21 16.5 33t3.5 25q0 15 -6 30q-4 15 -24 38q-18 22 -54 22q-40 0 -69 -32q-5 -5 -11 -5q-24 0 -30 18q-17 32 -18.5 58t-1.5 40q0 26 8 47q9 17 24 17
l36 -18q36 -17 56 -17z" />
    <glyph glyph-name="sterling" unicode="&#xa3;" horiz-adv-x="630" 
d="M531 469q27 27 27 76q-1 7 -2.5 19.5t-7.5 27t-19 29t-36 25.5t-58.5 18t-87.5 6q-66 0 -121 -36q-55 -35 -75.5 -76.5t-20.5 -83.5q0 -19 2 -33t6 -30q10 -31 26 -52q13 -13 7 -19q-3 -3 -24 -3h-13q-11 -2 -17 -10q-2 -5 -4 -11.5t-3 -14.5q0 -29 43 -29l43 -4
q0 -59 -74 -104q-73 -43 -73 -91l5 -36q7 -25 40 -35q9 -4 25 -4q17 0 49 15l45 21q8 3 18 4t20 1q29 0 91 -20t93 -20q15 0 25 1.5t21 5.5q24 10 49 35q25 24 25 75q0 18 -8.5 36t-21.5 31q-22 19 -49 19q-18 0 -61 -18q-44 -18 -60 -18q-21 0 -41 11q10 11 22 49
q13 37 20 41q8 5 19 5h27q10 2 15.5 7.5t7.5 12t2.5 13t0.5 10.5q0 9 -5 12q-5 5 -11 7q-7 4 -33 4q-25 3 -27 11q-1 6 -26 48q-23 41 -23 52q1 7 11 22q14 17 31 17t47 -30q32 -29 54 -29l19 4l42 15q12 6 24 21z" />
    <glyph glyph-name="yen" unicode="&#xa5;" horiz-adv-x="690" 
d="M498 394q28 63 69 130q20 31 38 58t30 42q29 35 32 44l3 21q0 22 -12.5 41t-31.5 24q-18 6 -25 7t-21 1q-36 0 -67 -16q-33 -15 -71 -51q-39 -34 -69 -122l-43 -162l-5 -17h-40l-3 9l8 92q9 73 9 105q0 60 -21.5 97t-49.5 43l-37 8q-6 2 -19 2q-53 0 -90 -36t-37 -85
l3 -26l7 -23l26 -46q23 -38 23 -56l3 -84h-46h-15q-16 0 -22 -6t-6 -30q0 -15 1.5 -22.5t6 -11t13 -4t22.5 -0.5h50l1 -22l7 -37h-58h-15q-16 0 -22 -6t-6 -30q0 -15 1.5 -22.5t6 -11t13 -4t22.5 -0.5h117l29 -8l28 4q7 0 7 -6q0 -12 -22 -52q-5 -18 -18.5 -39t-33.5 -46
l-57 -67q-14 -20 -14 -55q0 -31 17 -57q9 -13 21.5 -22.5t25.5 -15.5t25 -9t21 -3q30 0 70 25q41 23 65 75q26 50 38 106l24 98l21 72h164q27 0 35.5 5.5t8.5 32.5q0 23 -7.5 29.5t-22.5 6.5h-14h-141l20 59h121q27 0 35.5 5.5t8.5 32.5q0 23 -7.5 29.5t-22.5 6.5h-14h-91z
" />
    <glyph glyph-name="brokenbar" unicode="&#xa6;" horiz-adv-x="510" 
d="M25 79h450v450h-450v-450zM436 490v-371h-371v371h371z" />
    <glyph glyph-name="section" unicode="&#xa7;" horiz-adv-x="550" 
d="M430 192q61 28 70 70l12 55v17q0 76 -61 134q-61 59 -148 68q-14 2 -18 11.5t-3 19.5q6 30 26 30q7 -1 51 -20q42 -17 56 -15q31 7 48 30t17 53q0 15 -6.5 32.5t-18 33t-28 27.5t-36.5 17q-18 6 -27.5 7t-30.5 1h-14l-49 -4q-41 -6 -91 -57q-48 -51 -48 -117l2 -27
q-39 -24 -60.5 -62.5t-21.5 -81.5q0 -14 3 -29.5t7 -28.5q12 -30 33 -57q23 -28 90 -52q66 -24 81 -42t15 -29q-5 -32 -34 -38l-11 -2q-17 1 -46 20q-32 21 -50 21q-21 0 -37.5 -9t-28.5 -23t-18 -31.5t-6 -34.5q0 -31 26 -57q35 -29 68.5 -41.5t73.5 -12.5q75 0 136 46
q60 46 68 81q10 36 10 49l2 19zM232 432l54 -21q24 -10 39 -19t22.5 -17t10 -14.5t2.5 -12.5q0 -20 -16 -30q-40 24 -65.5 30t-34.5 7q-23 4 -34 17q-11 15 -9 23q0 20 9.5 28.5t21.5 8.5z" />
    <glyph glyph-name="dieresis" unicode="&#xa8;" horiz-adv-x="670" 
d="M380 589q31 0 65 14q31 15 28 46q-4 25 -23.5 34t-42.5 9q-18 0 -34 -3t-28 -9.5t-18.5 -18t-4.5 -27.5q3 -22 21 -33.5t37 -11.5zM173 589q30 0 63 14q31 15 28 46q-8 43 -66 43q-18 0 -34 -3t-28 -9.5t-18.5 -18t-4.5 -27.5q3 -23 21 -34t39 -11z" />
    <glyph glyph-name="copyright" unicode="&#xa9;" horiz-adv-x="758" 
d="M744 351q0 153 -107 258q-106 106 -258 106q-151 0 -258 -107t-107 -257q0 -152 106 -258t259 -106q152 0 258 106q107 107 107 258zM675 351q0 -123 -87 -210q-86 -86 -209 -86q-121 0 -209 86q-87 85 -87 210q0 122 86 208q87 87 210 87q124 0 210 -86t86 -209z
M502 243q-10 19 -22 25q-11 8 -26 8t-46 -11q-29 -10 -40 -7q-20 9 -29 32t-9 53q0 32 10 61q12 28 24.5 36t19.5 8q12 -2 36 -12q24 -9 38 -6q25 8 35 23q14 17 14 39t-13.5 41.5t-34.5 25.5q-21 8 -63 8q-45 1 -77.5 -18t-53 -51.5t-29.5 -73t-8 -82.5q0 -88 42 -149
q43 -61 134 -61q21 0 40.5 6t34 16.5t23 24.5t8.5 31q-1 8 -3.5 18.5t-4.5 14.5z" />
    <glyph glyph-name="guillemotleft" unicode="&#xab;" horiz-adv-x="560" 
d="M473 117q18 0 33.5 13.5t15.5 30.5q0 19 -48 87q-47 68 -47 96q0 25 47 95q48 70 48 88q0 17 -16 30q-14 14 -33 14q-26 0 -61.5 -29.5t-74.5 -71.5q-38 -41 -59 -69t-21 -57t23.5 -60t56.5 -66q17 -18 34 -34.5t35 -33.5q37 -33 67 -33zM230 117q18 0 33.5 13.5
t15.5 30.5q0 19 -48 87q-47 68 -47 96q0 25 47 95q48 70 48 88q0 17 -16 30q-14 14 -33 14q-26 0 -61.5 -29.5t-74.5 -71.5q-38 -41 -59 -69t-21 -57t23.5 -60t56.5 -66q17 -18 34 -34.5t35 -33.5q37 -33 67 -33z" />
    <glyph glyph-name="registered" unicode="&#xae;" horiz-adv-x="758" 
d="M744 351q0 153 -107 258q-106 106 -258 106q-151 0 -258 -107t-107 -257q0 -152 106 -258t259 -106q152 0 258 106q107 107 107 258zM675 351q0 -123 -87 -210q-86 -86 -209 -86q-121 0 -209 86q-87 85 -87 210q0 122 86 208q87 87 210 87q124 0 210 -86t86 -209z
M546 164v8q0 23 -22 44q-21 23 -25 29q-2 4 -4 15.5t-6 31.5q-6 38 -20 51q-13 12 -13 18q0 3 10 11t22 20.5t21.5 29.5t9.5 38t-6.5 40t-17.5 34.5t-25 26.5t-29 16l-49 12l-41 3q-48 0 -82 -17.5t-34 -51.5l4 -28q6 -18 17.5 -25.5t33.5 -7.5l36 3l36 3l20 -1l16 -5
q13 -4 17 -16t3 -23q-6 -29 -39 -35q-6 0 -9 3l-5 6q0 12 -6 21l-14 23q-9 12 -26 12q-29 0 -39 -22q-11 -24 -11 -32l1 -15l4 -23q3 -10 3.5 -16t1.5 -14q-2 -11 -10 -23l-15 -28l-8 -23l-3 -17q-2 -12 3 -23t13 -18.5t16.5 -12t14.5 -3.5l17 -1q35 0 53 37t18 82q0 5 6 7
h8q12 -18 12 -38l-2 -21l-2 -27q0 -43 21 -77q23 -35 61 -35q26 0 43 14q18 16 21 40z" />
    <glyph glyph-name="degree" unicode="&#xb0;" horiz-adv-x="293" 
d="M146 516q48 0 82 34t34 83q0 48 -34 82t-82 34q-49 0 -83 -34t-34 -82t34 -83q34 -34 83 -34zM146 693q26 0 43.5 -17t17.5 -42q0 -27 -17.5 -44.5t-43.5 -17.5q-25 0 -43 17t-18 45q0 27 17.5 43t43.5 16z" />
    <glyph glyph-name="acute" unicode="&#xb4;" horiz-adv-x="368" 
d="M274 676q4 25 -24 33q-21 7 -35 7.5t-25 0.5q-13 -1 -31 -13l-30 -23l-42 -29q-26 -23 -29 -44q-3 -16 6 -20.5t28 -4.5q67 0 123 36t59 57z" />
    <glyph glyph-name="paragraph" unicode="&#xb6;" 
d="M496 647q0 31 24 31t24 24l1 26q0 17 -8.5 25t-36.5 8l-275 1q-79 0 -135 -59q-54 -59 -54 -141q0 -69 49.5 -114t145.5 -45l40 4h9q18 0 18 -16l-1 -29v-331v-14q0 -13 3 -15t19 -2h13q26 0 32.5 5t6.5 29v609v10q1 17 5 21q7 6 22 6q17 0 20.5 -5.5t3.5 -25.5v-613
q0 -14 0.5 -21.5t4.5 -11t11 -4t21 -0.5q24 0 30.5 7t6.5 33v608zM287 675q10 0 10 -6l1 -12v-14l-1 -131l-3 -17q-3 -4 -11 -4q-28 0 -50 25q-20 26 -20 65q0 36 22 64q22 30 52 30z" />
    <glyph glyph-name="cedilla" unicode="&#xb8;" horiz-adv-x="339" 
d="M175 -145q37 0 70 11q36 12 36 38q0 15 -21 39l-40 45h-45l6 -21q4 -11 4 -22q0 -14 -40 -21q-39 -9 -39 -30q1 -16 14 -27q16 -12 55 -12z" />
    <glyph glyph-name="guillemotright" unicode="&#xbb;" horiz-adv-x="560" 
d="M436 213q42 43 64 72.5t22 58.5q0 30 -24 60q-24 33 -56 65q-17 18 -34 34.5t-35 33.5q-37 34 -67 34q-18 0 -33.5 -13.5t-15.5 -30.5t47 -88q48 -69 48 -95t-48 -95q-47 -68 -47 -88q0 -17 15.5 -30.5t33.5 -13.5q13 0 28.5 8t32.5 21.5t34.5 31t34.5 35.5zM193 213
q42 43 64 72.5t22 58.5q0 30 -24 60q-24 33 -56 65q-17 18 -34 34.5t-35 33.5q-37 34 -67 34q-18 0 -33.5 -13.5t-15.5 -30.5t47 -88q48 -69 48 -95t-48 -95q-47 -68 -47 -88q0 -17 15.5 -30.5t33.5 -13.5q13 0 28.5 8t32.5 21.5t34.5 31t34.5 35.5z" />
    <glyph glyph-name="questiondown" unicode="&#xbf;" horiz-adv-x="530" 
d="M301 592q38 0 72 17q17 9 27 18.5t15 19t6.5 18.5t1.5 16q1 22 -10.5 38.5t-27.5 27t-34 15t-31 2.5q-40 0 -80 -22q-38 -23 -38 -66q0 -26 14 -49q14 -22 35 -28.5t50 -6.5zM223 -8q100 0 190 39q91 39 91 112q0 18 -4 32t-12 31q-17 33 -32 40q-17 11 -37 11
q-29 0 -62 -18t-55 -34t-31 -16q-15 0 -27.5 11.5t-12.5 24.5q1 10 5 15l158 129q20 29 20 65q0 18 -6.5 36.5t-16.5 31.5q-28 37 -65 37q-23 0 -33 -12q-8 -10 -13 -44q-3 -33 -42 -57l-83 -58q-21 -15 -41 -34.5t-35 -42t-24 -48t-9 -52.5q0 -28 7 -51t21 -49
q31 -51 68.5 -75t80.5 -24z" />
    <glyph glyph-name="Agrave" unicode="&#xc0;" horiz-adv-x="760" 
d="M520 521l22 -6q13 -4 37 -4q50 0 87 25q37 27 43 69l1 12q0 40 -27 72q-26 33 -72 42q-47 9 -81 9q-100 0 -159 -53q-58 -52 -88 -129l-30 -88l-5 -15q-5 -6 -11 -6h-17l-39 -2l-41 -8q-12 -3 -24.5 -11.5t-22.5 -21t-16.5 -28t-6.5 -31.5l4 -27q4 -11 18 -35
q15 -21 48 -21q42 0 71 36q8 -3 10.5 -4.5t5.5 -5.5l4 -16q0 -18 -3 -44.5t-7 -50.5q-5 -29 -9.5 -48t-7.5 -28q-7 -18 -72 -70q-66 -53 -66 -92q0 -25 11 -58q12 -31 42.5 -49.5t64.5 -18.5l68 10q61 10 100 84q23 43 36 89.5t13 101.5l12 127q4 9 14 9t19 -9l15 -16
q5 -5 7 -16t4 -33q6 -45 20 -71t32 -44q21 -18 44.5 -25t44.5 -7q47 0 78 31q33 31 33 74q0 32 -26 73q-15 23 -22 43.5t-10 47.5q-4 24 -5.5 56.5t-1.5 74.5q0 27 -14.5 48t-35.5 24l-26 3q-48 0 -76 -72q-29 -73 -40 -83q-8 -5 -24 5q-16 12 -13 29q0 62 13 108
q13 48 54 48l11 -1zM603 786q17 0 27 5.5t7 19.5q-6 24 -29 44l-47 33l-37 26q-11 6 -19 6q-31 0 -59 -9t-25 -32q4 -22 58 -58q30 -19 59.5 -27t64.5 -8z" />
    <glyph glyph-name="Aacute" unicode="&#xc1;" horiz-adv-x="760" 
d="M520 521l22 -6q13 -4 37 -4q50 0 87 25q37 27 43 69l1 12q0 40 -27 72q-26 33 -72 42q-47 9 -81 9q-100 0 -159 -53q-58 -52 -88 -129l-30 -88l-5 -15q-5 -6 -11 -6h-17l-39 -2l-41 -8q-12 -3 -24.5 -11.5t-22.5 -21t-16.5 -28t-6.5 -31.5l4 -27q4 -11 18 -35
q15 -21 48 -21q42 0 71 36q8 -3 10.5 -4.5t5.5 -5.5l4 -16q0 -18 -3 -44.5t-7 -50.5q-5 -29 -9.5 -48t-7.5 -28q-7 -18 -72 -70q-66 -53 -66 -92q0 -25 11 -58q12 -31 42.5 -49.5t64.5 -18.5l68 10q61 10 100 84q23 43 36 89.5t13 101.5l12 127q4 9 14 9t19 -9l15 -16
q5 -5 7 -16t4 -33q6 -45 20 -71t32 -44q21 -18 44.5 -25t44.5 -7q47 0 78 31q33 31 33 74q0 32 -26 73q-15 23 -22 43.5t-10 47.5q-4 24 -5.5 56.5t-1.5 74.5q0 27 -14.5 48t-35.5 24l-26 3q-48 0 -76 -72q-29 -73 -40 -83q-8 -5 -24 5q-16 12 -13 29q0 62 13 108
q13 48 54 48l11 -1zM635 886q4 25 -24 33q-21 7 -35 7.5t-25 0.5q-13 -1 -31 -13l-30 -23l-42 -29q-26 -23 -29 -44q-3 -16 6 -20.5t28 -4.5q67 0 123 36t59 57z" />
    <glyph glyph-name="Acircumflex" unicode="&#xc2;" horiz-adv-x="760" 
d="M520 521l22 -6q13 -4 37 -4q50 0 87 25q37 27 43 69l1 12q0 40 -27 72q-26 33 -72 42q-47 9 -81 9q-100 0 -159 -53q-58 -52 -88 -129l-30 -88l-5 -15q-5 -6 -11 -6h-17l-39 -2l-41 -8q-12 -3 -24.5 -11.5t-22.5 -21t-16.5 -28t-6.5 -31.5l4 -27q4 -11 18 -35
q15 -21 48 -21q42 0 71 36q8 -3 10.5 -4.5t5.5 -5.5l4 -16q0 -18 -3 -44.5t-7 -50.5q-5 -29 -9.5 -48t-7.5 -28q-7 -18 -72 -70q-66 -53 -66 -92q0 -25 11 -58q12 -31 42.5 -49.5t64.5 -18.5l68 10q61 10 100 84q23 43 36 89.5t13 101.5l12 127q4 9 14 9t19 -9l15 -16
q5 -5 7 -16t4 -33q6 -45 20 -71t32 -44q21 -18 44.5 -25t44.5 -7q47 0 78 31q33 31 33 74q0 32 -26 73q-15 23 -22 43.5t-10 47.5q-4 24 -5.5 56.5t-1.5 74.5q0 27 -14.5 48t-35.5 24l-26 3q-48 0 -76 -72q-29 -73 -40 -83q-8 -5 -24 5q-16 12 -13 29q0 62 13 108
q13 48 54 48l11 -1zM687 783q24 0 24 29q0 32 -68 83q-67 52 -95 52q-24 0 -94 -53q-68 -53 -68 -82q0 -12 6 -21q8 -8 17 -8q19 0 68 28q50 28 71 28t70 -28q50 -28 69 -28z" />
    <glyph glyph-name="Atilde" unicode="&#xc3;" horiz-adv-x="760" 
d="M520 521l22 -6q13 -4 37 -4q50 0 87 25q37 27 43 69l1 12q0 40 -27 72q-26 33 -72 42q-47 9 -81 9q-100 0 -159 -53q-58 -52 -88 -129l-30 -88l-5 -15q-5 -6 -11 -6h-17l-39 -2l-41 -8q-12 -3 -24.5 -11.5t-22.5 -21t-16.5 -28t-6.5 -31.5l4 -27q4 -11 18 -35
q15 -21 48 -21q42 0 71 36q8 -3 10.5 -4.5t5.5 -5.5l4 -16q0 -18 -3 -44.5t-7 -50.5q-5 -29 -9.5 -48t-7.5 -28q-7 -18 -72 -70q-66 -53 -66 -92q0 -25 11 -58q12 -31 42.5 -49.5t64.5 -18.5l68 10q61 10 100 84q23 43 36 89.5t13 101.5l12 127q4 9 14 9t19 -9l15 -16
q5 -5 7 -16t4 -33q6 -45 20 -71t32 -44q21 -18 44.5 -25t44.5 -7q47 0 78 31q33 31 33 74q0 32 -26 73q-15 23 -22 43.5t-10 47.5q-4 24 -5.5 56.5t-1.5 74.5q0 27 -14.5 48t-35.5 24l-26 3q-48 0 -76 -72q-29 -73 -40 -83q-8 -5 -24 5q-16 12 -13 29q0 62 13 108
q13 48 54 48l11 -1zM636 788q16 0 31 7t26 19t17.5 27.5t6.5 32.5q0 28 -16 34q-16 8 -46 8q-13 -2 -21.5 -9t-8.5 -23q0 -19 -15 -19q-6 1 -23.5 7.5t-46.5 17.5q-31 13 -54 19.5t-40 6.5q-15 0 -29.5 -7t-26 -18.5t-18 -27t-6.5 -32.5q0 -28 15 -35.5t46 -7.5q13 1 21 8
q10 10 10 25l3 14q3 4 12 4q12 -1 71 -27q58 -24 92 -24z" />
    <glyph glyph-name="Adieresis" unicode="&#xc4;" horiz-adv-x="760" 
d="M520 521l22 -6q13 -4 37 -4q50 0 87 25q37 27 43 69l1 12q0 40 -27 72q-26 33 -72 42q-47 9 -81 9q-100 0 -159 -53q-58 -52 -88 -129l-30 -88l-5 -15q-5 -6 -11 -6h-17l-39 -2l-41 -8q-12 -3 -24.5 -11.5t-22.5 -21t-16.5 -28t-6.5 -31.5l4 -27q4 -11 18 -35
q15 -21 48 -21q42 0 71 36q8 -3 10.5 -4.5t5.5 -5.5l4 -16q0 -18 -3 -44.5t-7 -50.5q-5 -29 -9.5 -48t-7.5 -28q-7 -18 -72 -70q-66 -53 -66 -92q0 -25 11 -58q12 -31 42.5 -49.5t64.5 -18.5l68 10q61 10 100 84q23 43 36 89.5t13 101.5l12 127q4 9 14 9t19 -9l15 -16
q5 -5 7 -16t4 -33q6 -45 20 -71t32 -44q21 -18 44.5 -25t44.5 -7q47 0 78 31q33 31 33 74q0 32 -26 73q-15 23 -22 43.5t-10 47.5q-4 24 -5.5 56.5t-1.5 74.5q0 27 -14.5 48t-35.5 24l-26 3q-48 0 -76 -72q-29 -73 -40 -83q-8 -5 -24 5q-16 12 -13 29q0 62 13 108
q13 48 54 48l11 -1zM621 799q31 0 65 14q31 15 28 46q-4 25 -23.5 34t-42.5 9q-18 0 -34 -3t-28 -9.5t-18.5 -18t-4.5 -27.5q3 -22 21 -33.5t37 -11.5zM414 799q30 0 63 14q31 15 28 46q-8 43 -66 43q-18 0 -34 -3t-28 -9.5t-18.5 -18t-4.5 -27.5q3 -23 21 -34t39 -11z" />
    <glyph glyph-name="Aring" unicode="&#xc5;" horiz-adv-x="760" 
d="M520 521l22 -6q13 -4 37 -4q50 0 87 25q37 27 43 69l1 12q0 40 -27 72q-26 33 -72 42q-47 9 -81 9q-100 0 -159 -53q-58 -52 -88 -129l-30 -88l-5 -15q-5 -6 -11 -6h-17l-39 -2l-41 -8q-12 -3 -24.5 -11.5t-22.5 -21t-16.5 -28t-6.5 -31.5l4 -27q4 -11 18 -35
q15 -21 48 -21q42 0 71 36q8 -3 10.5 -4.5t5.5 -5.5l4 -16q0 -18 -3 -44.5t-7 -50.5q-5 -29 -9.5 -48t-7.5 -28q-7 -18 -72 -70q-66 -53 -66 -92q0 -25 11 -58q12 -31 42.5 -49.5t64.5 -18.5l68 10q61 10 100 84q23 43 36 89.5t13 101.5l12 127q4 9 14 9t19 -9l15 -16
q5 -5 7 -16t4 -33q6 -45 20 -71t32 -44q21 -18 44.5 -25t44.5 -7q47 0 78 31q33 31 33 74q0 32 -26 73q-15 23 -22 43.5t-10 47.5q-4 24 -5.5 56.5t-1.5 74.5q0 27 -14.5 48t-35.5 24l-26 3q-48 0 -76 -72q-29 -73 -40 -83q-8 -5 -24 5q-16 12 -13 29q0 62 13 108
q13 48 54 48l11 -1zM554 773q19 0 38 4.5t33 14.5t23 25t9 36t-8.5 35.5t-23 24.5t-33 14.5t-37.5 4.5q-21 0 -39.5 -4.5t-32.5 -14t-22.5 -24.5t-8.5 -36q0 -44 29 -62q31 -18 73 -18zM555 898q22 0 34.5 -13.5t12.5 -31.5q0 -21 -13.5 -33.5t-34.5 -12.5q-22 0 -35 13
q-12 15 -12 33q0 20 12.5 32.5t35.5 12.5z" />
    <glyph glyph-name="AE" unicode="&#xc6;" horiz-adv-x="1040" 
d="M794 554q51 -27 96 -27q42 0 67 23.5t25 68.5q0 52 -45 84q-45 33 -90 39q-14 3 -24 4.5t-15 2.5t-13 1h-17q-30 0 -60 -6t-58 -16l-10 3q-48 9 -84 9q-100 0 -159 -53q-58 -52 -88 -129l-30 -88l-5 -15q-5 -6 -11 -6h-17l-39 -2l-41 -8q-12 -3 -24.5 -11.5t-22.5 -21
t-16.5 -28t-6.5 -31.5l4 -27q4 -11 18 -35q15 -21 48 -21q42 0 71 36q8 -3 10.5 -4.5t5.5 -5.5l4 -16q0 -18 -3 -44.5t-7 -50.5q-5 -29 -9.5 -48t-7.5 -28q-7 -18 -72 -70q-66 -53 -66 -92q0 -25 11 -58q12 -31 42.5 -49.5t64.5 -18.5l68 10q61 10 100 84q23 43 36 89.5
t13 101.5q5 60 8.5 91.5t4.5 35.5q4 9 17 9q14 -3 16.5 -7t4.5 -7q0 -135 81 -181q82 -46 211 -46q79 0 133 30q55 30 61 63l9 43v12q0 24 -12 47q-6 12 -14 19.5t-15.5 12t-14 6t-9.5 1.5q-6 2 -20 2q-19 0 -66 -19t-69 -19l-15 1l-15 4q-21 36 -31 82q17 32 79 41l84 15
q21 6 21 44q0 28 -18 45q-18 18 -74 24t-66 27q-7 13 -9 20t-2 14q0 21 15 36t36 15q17 -2 26 -7zM532 524q6 -40 27 -73l-21 -54q-18 -48 -35 -62q-8 -5 -24 5q-16 12 -13 29q0 56 13 107q15 48 53 48z" />
    <glyph glyph-name="Ccedilla" unicode="&#xc7;" horiz-adv-x="570" 
d="M411 506q38 10 59.5 40.5t21.5 67.5q0 12 -2 22t-5 19q-7 21 -26 47q-17 26 -55.5 35.5t-95.5 9.5q-97 0 -163 -57q-65 -56 -86 -126q-10 -35 -16.5 -63.5t-9.5 -51.5q-6 -47 -6 -96q0 -156 70 -263q71 -107 224 -107q71 0 124 39q52 39 52 97l-3 28q-2 10 -5.5 19
t-8.5 19q-12 25 -31.5 37.5t-43.5 12.5t-70 -17t-60 -17q-11 1 -28 8q-9 4 -18 17.5t-16 33t-11.5 43.5t-4.5 51q0 56 18 106q18 48 39 62q23 14 34 14q15 0 51 -16t56 -16zM245 -145q37 0 70 11q36 12 36 38q0 15 -21 39l-40 45h-45l6 -21q4 -11 4 -22q0 -14 -40 -21
q-39 -9 -39 -30q1 -16 14 -27q16 -12 55 -12z" />
    <glyph glyph-name="Egrave" unicode="&#xc8;" 
d="M353 554q51 -27 96 -27q42 0 67 23.5t25 68.5q0 52 -44 84t-86 38l-25 5t-25 3l-25 1q-44 0 -86 -12q-46 -13 -81 -32q-39 -23 -60 -62.5t-21 -84.5t22 -90t62 -78q-60 -34 -92.5 -79t-32.5 -103q0 -36 16 -80q12 -35 38 -59t57.5 -39t63 -22.5t54.5 -8.5q16 -3 32 -4
t32 -1q78 0 132 30q55 30 61 63l9 43v12q2 20 -5.5 37t-20.5 29t-29 18t-31 5q-18 0 -65 -19t-69 -19q-21 0 -36 6q-31 18 -31 46q0 54 53 69l102 17q35 9 35 48q0 28 -18 45q-18 18 -74 24t-66 27q-7 13 -9 20t-2 14q0 21 15 36t36 15q17 -2 26 -7zM400 786q17 0 27 5.5
t7 19.5q-6 24 -29 44l-47 33l-37 26q-11 6 -19 6q-31 0 -59 -9t-25 -32q4 -22 58 -58q30 -19 59.5 -27t64.5 -8z" />
    <glyph glyph-name="Eacute" unicode="&#xc9;" 
d="M353 554q51 -27 96 -27q42 0 67 23.5t25 68.5q0 52 -44 84t-86 38l-25 5t-25 3l-25 1q-44 0 -86 -12q-46 -13 -81 -32q-39 -23 -60 -62.5t-21 -84.5t22 -90t62 -78q-60 -34 -92.5 -79t-32.5 -103q0 -36 16 -80q12 -35 38 -59t57.5 -39t63 -22.5t54.5 -8.5q16 -3 32 -4
t32 -1q78 0 132 30q55 30 61 63l9 43v12q2 20 -5.5 37t-20.5 29t-29 18t-31 5q-18 0 -65 -19t-69 -19q-21 0 -36 6q-31 18 -31 46q0 54 53 69l102 17q35 9 35 48q0 28 -18 45q-18 18 -74 24t-66 27q-7 13 -9 20t-2 14q0 21 15 36t36 15q17 -2 26 -7zM446 886q4 25 -24 33
q-21 7 -35 7.5t-25 0.5q-13 -1 -31 -13l-30 -23l-42 -29q-26 -23 -29 -44q-3 -16 6 -20.5t28 -4.5q67 0 123 36t59 57z" />
    <glyph glyph-name="Ecircumflex" unicode="&#xca;" 
d="M353 554q51 -27 96 -27q42 0 67 23.5t25 68.5q0 52 -44 84t-86 38l-25 5t-25 3l-25 1q-44 0 -86 -12q-46 -13 -81 -32q-39 -23 -60 -62.5t-21 -84.5t22 -90t62 -78q-60 -34 -92.5 -79t-32.5 -103q0 -36 16 -80q12 -35 38 -59t57.5 -39t63 -22.5t54.5 -8.5q16 -3 32 -4
t32 -1q78 0 132 30q55 30 61 63l9 43v12q2 20 -5.5 37t-20.5 29t-29 18t-31 5q-18 0 -65 -19t-69 -19q-21 0 -36 6q-31 18 -31 46q0 54 53 69l102 17q35 9 35 48q0 28 -18 45q-18 18 -74 24t-66 27q-7 13 -9 20t-2 14q0 21 15 36t36 15q17 -2 26 -7zM491 776q24 0 24 29
q0 32 -68 83q-67 52 -95 52q-24 0 -94 -53q-68 -53 -68 -82q0 -12 6 -21q8 -8 17 -8q19 0 68 28q50 28 71 28t70 -28q50 -28 69 -28z" />
    <glyph glyph-name="Edieresis" unicode="&#xcb;" 
d="M353 554q51 -27 96 -27q42 0 67 23.5t25 68.5q0 52 -44 84t-86 38l-25 5t-25 3l-25 1q-44 0 -86 -12q-46 -13 -81 -32q-39 -23 -60 -62.5t-21 -84.5t22 -90t62 -78q-60 -34 -92.5 -79t-32.5 -103q0 -36 16 -80q12 -35 38 -59t57.5 -39t63 -22.5t54.5 -8.5q16 -3 32 -4
t32 -1q78 0 132 30q55 30 61 63l9 43v12q2 20 -5.5 37t-20.5 29t-29 18t-31 5q-18 0 -65 -19t-69 -19q-21 0 -36 6q-31 18 -31 46q0 54 53 69l102 17q35 9 35 48q0 28 -18 45q-18 18 -74 24t-66 27q-7 13 -9 20t-2 14q0 21 15 36t36 15q17 -2 26 -7zM411 799q31 0 65 14
q31 15 28 46q-4 25 -23.5 34t-42.5 9q-18 0 -34 -3t-28 -9.5t-18.5 -18t-4.5 -27.5q3 -22 21 -33.5t37 -11.5zM204 799q30 0 63 14q31 15 28 46q-8 43 -66 43q-18 0 -34 -3t-28 -9.5t-18.5 -18t-4.5 -27.5q3 -23 21 -34t39 -11z" />
    <glyph glyph-name="Igrave" unicode="&#xcc;" horiz-adv-x="550" 
d="M426 135q9 24 12 51l3 57l-6 89q0 8 -1.5 29.5t-3.5 55.5q-1 7 -1 15v19q0 68 17 131q18 63 41 92t23 38q0 17 -12 29t-28 9l-73 -16q-20 -5 -31.5 -6.5t-37.5 -1.5q-39 0 -75 10q-30 10 -54 10q-54 0 -94 -33q-39 -32 -39 -79q0 -18 9 -46q10 -29 30.5 -44t45.5 -15
q33 0 67 19q18 10 31 18t22 15q15 6 24 6q14 0 14 -10l-20 -58q-14 -38 -20 -66.5t-8 -54.5t-1.5 -55t-0.5 -68q0 -25 -10 -38q-11 -11 -23 -11l-18 7q-13 7 -44 7q-22 0 -42 -5.5t-35 -16t-24 -26t-9 -36.5q0 -24 15 -63q16 -38 55.5 -61.5t93.5 -23.5q69 0 129 36
q61 37 79 91zM414 793q17 0 27 5.5t7 19.5q-6 24 -29 44l-47 33l-37 26q-11 6 -19 6q-31 0 -59 -9t-25 -32q4 -22 58 -58q30 -19 59.5 -27t64.5 -8z" />
    <glyph glyph-name="Iacute" unicode="&#xcd;" horiz-adv-x="550" 
d="M426 135q9 24 12 51l3 57l-6 89q0 8 -1.5 29.5t-3.5 55.5q-1 7 -1 15v19q0 68 17 131q18 63 41 92t23 38q0 17 -12 29t-28 9l-73 -16q-20 -5 -31.5 -6.5t-37.5 -1.5q-39 0 -75 10q-30 10 -54 10q-54 0 -94 -33q-39 -32 -39 -79q0 -18 9 -46q10 -29 30.5 -44t45.5 -15
q33 0 67 19q18 10 31 18t22 15q15 6 24 6q14 0 14 -10l-20 -58q-14 -38 -20 -66.5t-8 -54.5t-1.5 -55t-0.5 -68q0 -25 -10 -38q-11 -11 -23 -11l-18 7q-13 7 -44 7q-22 0 -42 -5.5t-35 -16t-24 -26t-9 -36.5q0 -24 15 -63q16 -38 55.5 -61.5t93.5 -23.5q69 0 129 36
q61 37 79 91zM474 886q4 25 -24 33q-21 7 -35 7.5t-25 0.5q-13 -1 -31 -13l-30 -23l-42 -29q-26 -23 -29 -44q-3 -16 6 -20.5t28 -4.5q67 0 123 36t59 57z" />
    <glyph glyph-name="Icircumflex" unicode="&#xce;" horiz-adv-x="550" 
d="M426 135q9 24 12 51l3 57l-6 89q0 8 -1.5 29.5t-3.5 55.5q-1 7 -1 15v19q0 68 17 131q18 63 41 92t23 38q0 17 -12 29t-28 9l-73 -16q-20 -5 -31.5 -6.5t-37.5 -1.5q-39 0 -75 10q-30 10 -54 10q-54 0 -94 -33q-39 -32 -39 -79q0 -18 9 -46q10 -29 30.5 -44t45.5 -15
q33 0 67 19q18 10 31 18t22 15q15 6 24 6q14 0 14 -10l-20 -58q-14 -38 -20 -66.5t-8 -54.5t-1.5 -55t-0.5 -68q0 -25 -10 -38q-11 -11 -23 -11l-18 7q-13 7 -44 7q-22 0 -42 -5.5t-35 -16t-24 -26t-9 -36.5q0 -24 15 -63q16 -38 55.5 -61.5t93.5 -23.5q69 0 129 36
q61 37 79 91zM484 790q24 0 24 29q0 32 -68 83q-67 52 -95 52q-24 0 -94 -53q-68 -53 -68 -82q0 -12 6 -21q8 -8 17 -8q19 0 68 28q50 28 71 28t70 -28q50 -28 69 -28z" />
    <glyph glyph-name="Idieresis" unicode="&#xcf;" horiz-adv-x="550" 
d="M426 135q9 24 12 51l3 57l-6 89q0 8 -1.5 29.5t-3.5 55.5q-1 7 -1 15v19q0 68 17 131q18 63 41 92t23 38q0 17 -12 29t-28 9l-73 -16q-20 -5 -31.5 -6.5t-37.5 -1.5q-39 0 -75 10q-30 10 -54 10q-54 0 -94 -33q-39 -32 -39 -79q0 -18 9 -46q10 -29 30.5 -44t45.5 -15
q33 0 67 19q18 10 31 18t22 15q15 6 24 6q14 0 14 -10l-20 -58q-14 -38 -20 -66.5t-8 -54.5t-1.5 -55t-0.5 -68q0 -25 -10 -38q-11 -11 -23 -11l-18 7q-13 7 -44 7q-22 0 -42 -5.5t-35 -16t-24 -26t-9 -36.5q0 -24 15 -63q16 -38 55.5 -61.5t93.5 -23.5q69 0 129 36
q61 37 79 91zM432 799q31 0 65 14q31 15 28 46q-4 25 -23.5 34t-42.5 9q-18 0 -34 -3t-28 -9.5t-18.5 -18t-4.5 -27.5q3 -22 21 -33.5t37 -11.5zM225 799q30 0 63 14q31 15 28 46q-8 43 -66 43q-18 0 -34 -3t-28 -9.5t-18.5 -18t-4.5 -27.5q3 -23 21 -34t39 -11z" />
    <glyph glyph-name="Ntilde" unicode="&#xd1;" horiz-adv-x="790" 
d="M623 275q-3 16 -4 28t-1 22q0 57 62 176l69 130q6 13 6 25q0 29 -22 57q-23 29 -48 32l-32 5h-17q-105 0 -126 -118q0 -13 -1 -33t-3 -49q-4 -51 -5.5 -83.5t-1.5 -49.5q0 -19 -7 -19q-5 0 -8 24l-28 141q-24 88 -77 143q-53 54 -156 54q-62 0 -109 -38q-45 -38 -45 -90
q0 -29 15 -60q15 -30 37.5 -39t54.5 -9l27 1l28 1q18 0 26.5 -1t19.5 -4q22 -8 58 -41q38 -33 50 -125q7 -45 13 -91.5t10 -86.5q22 -92 76 -123q52 -30 79 -30q43 0 75 28q34 28 34 47l2 33q0 35 -14.5 69t-36.5 74zM337 27q9 54 9 119q0 43 -3 87t-8 80l-18 126
q0 17 -32 41q-31 25 -62 25q-28 0 -44.5 -22t-16.5 -76q-1 -35 -2 -73.5t-1 -86.5q0 -27 -5.5 -57t-14.5 -65q-17 -65 -40 -95q-24 -31 -31 -47q-6 -18 -6 -35q0 -21 9 -40q9 -20 36 -45q28 -26 68 -26q17 0 57 23q38 22 64 57q26 36 41 110zM559 802q16 0 31 7t26 19
t17.5 27.5t6.5 32.5q0 28 -16 34q-16 8 -46 8q-13 -2 -21.5 -9t-8.5 -23q0 -19 -15 -19q-6 1 -23.5 7.5t-46.5 17.5q-31 13 -54 19.5t-40 6.5q-15 0 -29.5 -7t-26 -18.5t-18 -27t-6.5 -32.5q0 -28 15 -35.5t46 -7.5q13 1 21 8q10 10 10 25l3 14q3 4 12 4q12 -1 71 -27
q58 -24 92 -24z" />
    <glyph glyph-name="Ograve" unicode="&#xd2;" horiz-adv-x="590" 
d="M472 100q37 67 58 142t21 147q0 81 -26.5 157t-69.5 128q-21 26 -41.5 42.5t-41.5 26.5t-44 13.5t-48 3.5l-67 -7q-46 -7 -96 -50q-49 -40 -49 -110q0 -23 6 -39.5t21 -29.5q31 -26 70 -26l25 4q9 4 20.5 10t25.5 16l39 25q7 4 15 4q18 0 30 -15q15 -15 24 -46
q12 -31 18 -67q7 -27 7.5 -43t0.5 -29q0 -45 -16 -85.5t-50 -65.5q-8 -8 -24 -8q-20 0 -40 17q-19 19 -25.5 40t-6.5 46q0 14 3.5 33t6.5 35q8 29 9 40q1 6 1.5 15t0.5 20q0 18 -18 27q-19 11 -41 11q-8 -1 -19.5 -4.5t-27.5 -8.5q-33 -14 -62 -66q-28 -50 -28 -117
q0 -93 34 -154q17 -30 32 -51t26 -33q26 -24 67 -38t90 -14q128 0 190 104zM365 793q17 0 27 5.5t7 19.5q-6 24 -29 44l-47 33l-37 26q-11 6 -19 6q-31 0 -59 -9t-25 -32q4 -22 58 -58q30 -19 59.5 -27t64.5 -8z" />
    <glyph glyph-name="Oacute" unicode="&#xd3;" horiz-adv-x="590" 
d="M472 100q37 67 58 142t21 147q0 81 -26.5 157t-69.5 128q-21 26 -41.5 42.5t-41.5 26.5t-44 13.5t-48 3.5l-67 -7q-46 -7 -96 -50q-49 -40 -49 -110q0 -23 6 -39.5t21 -29.5q31 -26 70 -26l25 4q9 4 20.5 10t25.5 16l39 25q7 4 15 4q18 0 30 -15q15 -15 24 -46
q12 -31 18 -67q7 -27 7.5 -43t0.5 -29q0 -45 -16 -85.5t-50 -65.5q-8 -8 -24 -8q-20 0 -40 17q-19 19 -25.5 40t-6.5 46q0 14 3.5 33t6.5 35q8 29 9 40q1 6 1.5 15t0.5 20q0 18 -18 27q-19 11 -41 11q-8 -1 -19.5 -4.5t-27.5 -8.5q-33 -14 -62 -66q-28 -50 -28 -117
q0 -93 34 -154q17 -30 32 -51t26 -33q26 -24 67 -38t90 -14q128 0 190 104zM397 886q4 25 -24 33q-21 7 -35 7.5t-25 0.5q-13 -1 -31 -13l-30 -23l-42 -29q-26 -23 -29 -44q-3 -16 6 -20.5t28 -4.5q67 0 123 36t59 57z" />
    <glyph glyph-name="Ocircumflex" unicode="&#xd4;" horiz-adv-x="590" 
d="M472 100q37 67 58 142t21 147q0 81 -26.5 157t-69.5 128q-21 26 -41.5 42.5t-41.5 26.5t-44 13.5t-48 3.5l-67 -7q-46 -7 -96 -50q-49 -40 -49 -110q0 -23 6 -39.5t21 -29.5q31 -26 70 -26l25 4q9 4 20.5 10t25.5 16l39 25q7 4 15 4q18 0 30 -15q15 -15 24 -46
q12 -31 18 -67q7 -27 7.5 -43t0.5 -29q0 -45 -16 -85.5t-50 -65.5q-8 -8 -24 -8q-20 0 -40 17q-19 19 -25.5 40t-6.5 46q0 14 3.5 33t6.5 35q8 29 9 40q1 6 1.5 15t0.5 20q0 18 -18 27q-19 11 -41 11q-8 -1 -19.5 -4.5t-27.5 -8.5q-33 -14 -62 -66q-28 -50 -28 -117
q0 -93 34 -154q17 -30 32 -51t26 -33q26 -24 67 -38t90 -14q128 0 190 104zM414 783q24 0 24 29q0 32 -68 83q-67 52 -95 52q-24 0 -94 -53q-68 -53 -68 -82q0 -12 6 -21q8 -8 17 -8q19 0 68 28q50 28 71 28t70 -28q50 -28 69 -28z" />
    <glyph glyph-name="Otilde" unicode="&#xd5;" horiz-adv-x="590" 
d="M472 100q37 67 58 142t21 147q0 81 -26.5 157t-69.5 128q-21 26 -41.5 42.5t-41.5 26.5t-44 13.5t-48 3.5l-67 -7q-46 -7 -96 -50q-49 -40 -49 -110q0 -23 6 -39.5t21 -29.5q31 -26 70 -26l25 4q9 4 20.5 10t25.5 16l39 25q7 4 15 4q18 0 30 -15q15 -15 24 -46
q12 -31 18 -67q7 -27 7.5 -43t0.5 -29q0 -45 -16 -85.5t-50 -65.5q-8 -8 -24 -8q-20 0 -40 17q-19 19 -25.5 40t-6.5 46q0 14 3.5 33t6.5 35q8 29 9 40q1 6 1.5 15t0.5 20q0 18 -18 27q-19 11 -41 11q-8 -1 -19.5 -4.5t-27.5 -8.5q-33 -14 -62 -66q-28 -50 -28 -117
q0 -93 34 -154q17 -30 32 -51t26 -33q26 -24 67 -38t90 -14q128 0 190 104zM398 788q16 0 31 7t26 19t17.5 27.5t6.5 32.5q0 28 -16 34q-16 8 -46 8q-13 -2 -21.5 -9t-8.5 -23q0 -19 -15 -19q-6 1 -23.5 7.5t-46.5 17.5q-31 13 -54 19.5t-40 6.5q-15 0 -29.5 -7t-26 -18.5
t-18 -27t-6.5 -32.5q0 -28 15 -35.5t46 -7.5q13 1 21 8q10 10 10 25l3 14q3 4 12 4q12 -1 71 -27q58 -24 92 -24z" />
    <glyph glyph-name="Odieresis" unicode="&#xd6;" horiz-adv-x="590" 
d="M472 100q37 67 58 142t21 147q0 81 -26.5 157t-69.5 128q-21 26 -41.5 42.5t-41.5 26.5t-44 13.5t-48 3.5l-67 -7q-46 -7 -96 -50q-49 -40 -49 -110q0 -23 6 -39.5t21 -29.5q31 -26 70 -26l25 4q9 4 20.5 10t25.5 16l39 25q7 4 15 4q18 0 30 -15q15 -15 24 -46
q12 -31 18 -67q7 -27 7.5 -43t0.5 -29q0 -45 -16 -85.5t-50 -65.5q-8 -8 -24 -8q-20 0 -40 17q-19 19 -25.5 40t-6.5 46q0 14 3.5 33t6.5 35q8 29 9 40q1 6 1.5 15t0.5 20q0 18 -18 27q-19 11 -41 11q-8 -1 -19.5 -4.5t-27.5 -8.5q-33 -14 -62 -66q-28 -50 -28 -117
q0 -93 34 -154q17 -30 32 -51t26 -33q26 -24 67 -38t90 -14q128 0 190 104zM362 799q31 0 65 14q31 15 28 46q-4 25 -23.5 34t-42.5 9q-18 0 -34 -3t-28 -9.5t-18.5 -18t-4.5 -27.5q3 -22 21 -33.5t37 -11.5zM155 799q30 0 63 14q31 15 28 46q-8 43 -66 43q-18 0 -34 -3
t-28 -9.5t-18.5 -18t-4.5 -27.5q3 -23 21 -34t39 -11z" />
    <glyph glyph-name="multiply" unicode="&#xd7;" horiz-adv-x="510" 
d="M337 184q9 -4 24 -4q27 0 47.5 16t20.5 38l-4 19q-5 12 -12 21l11 -12l-22 31q-23 29 -32 36l-31 25l21 16q15 10 32 40q17 31 17 38q2 10 2 24q0 49 -29 58t-45 9q-14 -8 -23.5 -14t-16.5 -12q-8 -7 -15 -14t-12 -15l-26 -33l-17 20q-11 15 -38 30q-12 8 -19.5 12.5
t-13.5 6.5t-12.5 2.5t-17.5 0.5q-20 0 -33.5 -6.5t-21.5 -17t-11 -24t-1 -26.5q8 -14 14 -23.5t12 -16.5q11 -12 18 -18t11 -9l34 -28l-34 -26q-17 -15 -25 -25t-11.5 -17.5t-3.5 -13.5t-1 -12q-4 -9 -4 -25q0 -27 15.5 -47t37.5 -20q20 0 40 16l-11 -10l37 25q24 18 31 30
l24 30l27 -34q16 -22 32.5 -31.5t34.5 -9.5z" />
    <glyph glyph-name="Oslash" unicode="&#xd8;" horiz-adv-x="590" 
d="M463 663l27 54q13 28 10 40q-6 17 -12.5 24.5t-10.5 7.5q-5 0 -9 -4q-10 -8 -20 -33l-21 -46q-29 28 -68 40q-37 14 -79 14l-67 -7q-46 -7 -96 -50q-49 -40 -49 -110q0 -23 6 -39.5t21 -29.5q31 -26 70 -26l25 4q9 4 20.5 10t25.5 16l39 25q7 4 15 4q17 0 29.5 -11.5
t18.5 -30.5l-122 -264l-1 5q-7 18 -7 45q0 14 3.5 33t6.5 35q8 29 9 40q1 6 1.5 15t0.5 20q0 18 -18 27q-19 11 -41 11q-8 -1 -19.5 -4.5t-27.5 -8.5q-33 -14 -62 -66q-28 -50 -28 -117q0 -96 30 -148l39 -64l21 -24l-32 -56q-16 -28 -16 -42q0 -12 15.5 -21t27.5 -7
q14 3 26 33l26 61l12 -5q56 -17 100 -17q127 0 177 84q49 85 70.5 161t21.5 148q0 36 -6 72t-16 70q-21 72 -66 132zM255 205l105 232l7 -31l3 -50q0 -26 -4 -46t-12 -40q-16 -37 -37 -54.5t-36 -17.5q-16 1 -26 7z" />
    <glyph glyph-name="Ugrave" unicode="&#xd9;" horiz-adv-x="650" 
d="M528 291l-1 19l-1 24q0 61 22 159q11 51 16.5 86.5t5.5 56.5v18l-4 31q-6 25 -36 43t-70 18q-39 0 -83 -28q-45 -29 -45 -109q0 -9 1.5 -19.5t3.5 -23.5l12 -41q8 -18 8 -62v-12l-4 -104l-8 -73q-3 -6 -9 -15t-11 -15q-17 -17 -29 -17q-16 1 -23 20l-10 37q-3 19 -3 55
l8 104q9 78 9 111q0 69 -25 115q-26 47 -67 62q-39 16 -57 16q-46 0 -81 -38q-33 -38 -33 -87q0 -38 24 -71q26 -34 35 -71q11 -38 11 -80q0 -6 -1.5 -19.5t-3.5 -35.5t-4 -37t-4 -25q-7 -48 -10 -76t-3 -44v-18l4 -40q6 -30 30 -63q25 -32 58 -38q17 -2 30 -3.5t21 -1.5
q42 0 65 21q22 22 40 52q19 31 25 31q4 0 14 -17.5t26.5 -38t40 -37.5t55.5 -15l14 -1q52 0 84 32t32 83q0 27 -35 94q-34 67 -34 88zM379 793q17 0 27 5.5t7 19.5q-6 24 -29 44l-47 33l-37 26q-11 6 -19 6q-31 0 -59 -9t-25 -32q4 -22 58 -58q30 -19 59.5 -27t64.5 -8z" />
    <glyph glyph-name="Uacute" unicode="&#xda;" horiz-adv-x="650" 
d="M528 291l-1 19l-1 24q0 61 22 159q11 51 16.5 86.5t5.5 56.5v18l-4 31q-6 25 -36 43t-70 18q-39 0 -83 -28q-45 -29 -45 -109q0 -9 1.5 -19.5t3.5 -23.5l12 -41q8 -18 8 -62v-12l-4 -104l-8 -73q-3 -6 -9 -15t-11 -15q-17 -17 -29 -17q-16 1 -23 20l-10 37q-3 19 -3 55
l8 104q9 78 9 111q0 69 -25 115q-26 47 -67 62q-39 16 -57 16q-46 0 -81 -38q-33 -38 -33 -87q0 -38 24 -71q26 -34 35 -71q11 -38 11 -80q0 -6 -1.5 -19.5t-3.5 -35.5t-4 -37t-4 -25q-7 -48 -10 -76t-3 -44v-18l4 -40q6 -30 30 -63q25 -32 58 -38q17 -2 30 -3.5t21 -1.5
q42 0 65 21q22 22 40 52q19 31 25 31q4 0 14 -17.5t26.5 -38t40 -37.5t55.5 -15l14 -1q52 0 84 32t32 83q0 27 -35 94q-34 67 -34 88zM432 886q4 25 -24 33q-21 7 -35 7.5t-25 0.5q-13 -1 -31 -13l-30 -23l-42 -29q-26 -23 -29 -44q-3 -16 6 -20.5t28 -4.5q67 0 123 36
t59 57z" />
    <glyph glyph-name="Ucircumflex" unicode="&#xdb;" horiz-adv-x="650" 
d="M528 291l-1 19l-1 24q0 61 22 159q11 51 16.5 86.5t5.5 56.5v18l-4 31q-6 25 -36 43t-70 18q-39 0 -83 -28q-45 -29 -45 -109q0 -9 1.5 -19.5t3.5 -23.5l12 -41q8 -18 8 -62v-12l-4 -104l-8 -73q-3 -6 -9 -15t-11 -15q-17 -17 -29 -17q-16 1 -23 20l-10 37q-3 19 -3 55
l8 104q9 78 9 111q0 69 -25 115q-26 47 -67 62q-39 16 -57 16q-46 0 -81 -38q-33 -38 -33 -87q0 -38 24 -71q26 -34 35 -71q11 -38 11 -80q0 -6 -1.5 -19.5t-3.5 -35.5t-4 -37t-4 -25q-7 -48 -10 -76t-3 -44v-18l4 -40q6 -30 30 -63q25 -32 58 -38q17 -2 30 -3.5t21 -1.5
q42 0 65 21q22 22 40 52q19 31 25 31q4 0 14 -17.5t26.5 -38t40 -37.5t55.5 -15l14 -1q52 0 84 32t32 83q0 27 -35 94q-34 67 -34 88zM442 783q24 0 24 29q0 32 -68 83q-67 52 -95 52q-24 0 -94 -53q-68 -53 -68 -82q0 -12 6 -21q8 -8 17 -8q19 0 68 28q50 28 71 28t70 -28
q50 -28 69 -28z" />
    <glyph glyph-name="Udieresis" unicode="&#xdc;" horiz-adv-x="650" 
d="M528 291l-1 19l-1 24q0 61 22 159q11 51 16.5 86.5t5.5 56.5v18l-4 31q-6 25 -36 43t-70 18q-39 0 -83 -28q-45 -29 -45 -109q0 -9 1.5 -19.5t3.5 -23.5l12 -41q8 -18 8 -62v-12l-4 -104l-8 -73q-3 -6 -9 -15t-11 -15q-17 -17 -29 -17q-16 1 -23 20l-10 37q-3 19 -3 55
l8 104q9 78 9 111q0 69 -25 115q-26 47 -67 62q-39 16 -57 16q-46 0 -81 -38q-33 -38 -33 -87q0 -38 24 -71q26 -34 35 -71q11 -38 11 -80q0 -6 -1.5 -19.5t-3.5 -35.5t-4 -37t-4 -25q-7 -48 -10 -76t-3 -44v-18l4 -40q6 -30 30 -63q25 -32 58 -38q17 -2 30 -3.5t21 -1.5
q42 0 65 21q22 22 40 52q19 31 25 31q4 0 14 -17.5t26.5 -38t40 -37.5t55.5 -15l14 -1q52 0 84 32t32 83q0 27 -35 94q-34 67 -34 88zM397 799q31 0 65 14q31 15 28 46q-4 25 -23.5 34t-42.5 9q-18 0 -34 -3t-28 -9.5t-18.5 -18t-4.5 -27.5q3 -22 21 -33.5t37 -11.5z
M190 799q30 0 63 14q31 15 28 46q-8 43 -66 43q-18 0 -34 -3t-28 -9.5t-18.5 -18t-4.5 -27.5q3 -23 21 -34t39 -11z" />
    <glyph glyph-name="Yacute" unicode="&#xdd;" horiz-adv-x="680" 
d="M451 -43q11 37 20 87.5t18 125.5q19 145 48 249q30 104 71 169q42 64 42 80q0 24 -15 48.5t-42 30.5q-17 6 -24.5 7t-21.5 1q-36 0 -64 -15q-28 -16 -62 -51q-36 -36 -49 -123q-2 -14 -4 -34t-6 -47q-2 -20 -3 -40.5t-1 -40.5q-1 -14 -5 -23q-6 -9 -17 -6l-16 8
q-4 4 -7.5 18t-7 40t-7 65t-8.5 93q-23 119 -80 131q-59 12 -70 12q-23 0 -42.5 -8t-34 -21.5t-22.5 -32t-8 -39.5q0 -35 12 -54l42 -59q30 -36 53 -150q11 -57 22 -93.5t22 -53.5q24 -34 70 -52q45 -16 50 -23q6 -6 6 -15l-4 -20l-11 -51q-10 -33 -28 -39l-29 -6
q-6 1 -23 3.5t-26 4.5q-8 3 -19 5.5t-25 2.5l-34 -7q-21 -8 -34 -30q-8 -12 -11 -24t-3 -28q0 -27 14 -66q16 -38 56 -56.5t91 -18.5l22 1l60 6q23 4 45.5 15t42 29t34.5 41.5t23 53.5zM523 900q4 25 -24 33q-21 7 -35 7.5t-25 0.5q-13 -1 -31 -13l-30 -23l-42 -29
q-26 -23 -29 -44q-3 -16 6 -20.5t28 -4.5q67 0 123 36t59 57z" />
    <glyph glyph-name="germandbls" unicode="&#xdf;" horiz-adv-x="680" 
d="M463 410q13 14 24.5 28.5t21.5 28.5q15 21 15 42q0 10 -1 13q-15 81 -141 153t-182 72q-31 0 -64 -14q-23 -14 -37 -27.5t-21 -26.5t-9.5 -25.5t-3.5 -23.5q0 -18 9 -57q6 -21 8 -32.5t3 -18.5q0 -18 -26 -18q-28 -3 -35 -8q-7 -7 -7 -29q0 -17 6.5 -28t28.5 -11h12
l21 -2q2 0 7 -6l-3 -186l-3 -184q0 -20 -25 -66q-24 -47 -24 -69q0 -12 1 -16.5t4 -18.5q4 -11 8 -20t9 -17q11 -16 35.5 -22.5t45.5 -6.5q63 0 83 47q20 48 20 118l-1 19v15l4 168q0 13 0.5 41t1.5 72q3 88 3 132l1 17l1 22l-2 25l-9 27q-8 17 -34 29q-26 14 -27 28
q0 11 5 12.5t21 1.5q8 -1 22.5 -4.5t35.5 -8.5l75 -21q29 -11 29 -25q-1 -7 -29 -58q-27 -50 -27 -95l5 -50q8 -34 58 -63t138 -71l3 -13q-1 -13 -5.5 -17.5t-12.5 -4.5l-10 1l-57 23q-50 22 -86 22q-26 0 -42.5 -22t-16.5 -52q0 -32 14 -55t28 -35q15 -12 56.5 -27.5
t105.5 -15.5q74 0 124 36q50 38 54 76l7 48l1 14q0 78 -68 108l-149 66q-14 14 -14 29q0 17 17 37z" />
    <glyph glyph-name="agrave" unicode="&#xe0;" horiz-adv-x="560" 
d="M539 122q-22 48 -31 85t-9 71l5 68q3 23 4 41.5t1 31.5q0 35 -29 68q-29 36 -63 40q-17 3 -27 4.5t-14 2.5q-5 1 -20 1q-11 2 -24 2h-27q-66 0 -121 -18q-27 -9 -45 -20t-28 -24t-14 -27t-4 -27q0 -22 10 -43q11 -20 32 -35q22 -13 47 -13q27 0 69 27l47 30q6 2 12 2
q11 0 17.5 -8.5t6.5 -19.5q-2 -14 -20 -30q-20 -17 -111 -39t-111 -52q-13 -17 -19 -28.5t-10 -25.5q-6 -15 -7 -23t-1 -27q0 -28 14 -61q15 -30 49 -51.5t70 -21.5q33 0 62 16q31 17 41 27l17 17l6 5q4 -1 16 -19q8 -10 17.5 -18t20.5 -15q25 -13 54 -13q14 0 36 5l36 11
q9 3 18 11t16.5 19t12 23.5t4.5 24.5q0 14 -6 26zM256 202q11 13 27.5 18t29.5 5q9 0 11 -6l2 -9q0 -25 -20 -48t-41 -23l-22 5q-13 6 -13 21q1 14 11 24l5 5t6 5q2 2 4 3zM376 583q17 0 27 5.5t7 19.5q-6 24 -29 44l-47 33l-37 26q-11 6 -19 6q-31 0 -59 -9t-25 -32
q4 -22 58 -58q30 -19 59.5 -27t64.5 -8z" />
    <glyph glyph-name="aacute" unicode="&#xe1;" horiz-adv-x="560" 
d="M539 122q-22 48 -31 85t-9 71l5 68q3 23 4 41.5t1 31.5q0 35 -29 68q-29 36 -63 40q-17 3 -27 4.5t-14 2.5q-5 1 -20 1q-11 2 -24 2h-27q-66 0 -121 -18q-27 -9 -45 -20t-28 -24t-14 -27t-4 -27q0 -22 10 -43q11 -20 32 -35q22 -13 47 -13q27 0 69 27l47 30q6 2 12 2
q11 0 17.5 -8.5t6.5 -19.5q-2 -14 -20 -30q-20 -17 -111 -39t-111 -52q-13 -17 -19 -28.5t-10 -25.5q-6 -15 -7 -23t-1 -27q0 -28 14 -61q15 -30 49 -51.5t70 -21.5q33 0 62 16q31 17 41 27l17 17l6 5q4 -1 16 -19q8 -10 17.5 -18t20.5 -15q25 -13 54 -13q14 0 36 5l36 11
q9 3 18 11t16.5 19t12 23.5t4.5 24.5q0 14 -6 26zM256 202q11 13 27.5 18t29.5 5q9 0 11 -6l2 -9q0 -25 -20 -48t-41 -23l-22 5q-13 6 -13 21q1 14 11 24l5 5t6 5q2 2 4 3zM425 676q4 25 -24 33q-21 7 -35 7.5t-25 0.5q-13 -1 -31 -13l-30 -23l-42 -29q-26 -23 -29 -44
q-3 -16 6 -20.5t28 -4.5q67 0 123 36t59 57z" />
    <glyph glyph-name="acircumflex" unicode="&#xe2;" horiz-adv-x="560" 
d="M539 122q-22 48 -31 85t-9 71l5 68q3 23 4 41.5t1 31.5q0 35 -29 68q-29 36 -63 40q-17 3 -27 4.5t-14 2.5q-5 1 -20 1q-11 2 -24 2h-27q-66 0 -121 -18q-27 -9 -45 -20t-28 -24t-14 -27t-4 -27q0 -22 10 -43q11 -20 32 -35q22 -13 47 -13q27 0 69 27l47 30q6 2 12 2
q11 0 17.5 -8.5t6.5 -19.5q-2 -14 -20 -30q-20 -17 -111 -39t-111 -52q-13 -17 -19 -28.5t-10 -25.5q-6 -15 -7 -23t-1 -27q0 -28 14 -61q15 -30 49 -51.5t70 -21.5q33 0 62 16q31 17 41 27l17 17l6 5q4 -1 16 -19q8 -10 17.5 -18t20.5 -15q25 -13 54 -13q14 0 36 5l36 11
q9 3 18 11t16.5 19t12 23.5t4.5 24.5q0 14 -6 26zM256 202q11 13 27.5 18t29.5 5q9 0 11 -6l2 -9q0 -25 -20 -48t-41 -23l-22 5q-13 6 -13 21q1 14 11 24l5 5t6 5q2 2 4 3zM435 573q24 0 24 29q0 32 -68 83q-67 52 -95 52q-24 0 -94 -53q-68 -53 -68 -82q0 -12 6 -21
q8 -8 17 -8q19 0 68 28q50 28 71 28t70 -28q50 -28 69 -28z" />
    <glyph glyph-name="atilde" unicode="&#xe3;" horiz-adv-x="560" 
d="M539 122q-22 48 -31 85t-9 71l5 68q3 23 4 41.5t1 31.5q0 35 -29 68q-29 36 -63 40q-17 3 -27 4.5t-14 2.5q-5 1 -20 1q-11 2 -24 2h-27q-66 0 -121 -18q-27 -9 -45 -20t-28 -24t-14 -27t-4 -27q0 -22 10 -43q11 -20 32 -35q22 -13 47 -13q27 0 69 27l47 30q6 2 12 2
q11 0 17.5 -8.5t6.5 -19.5q-2 -14 -20 -30q-20 -17 -111 -39t-111 -52q-13 -17 -19 -28.5t-10 -25.5q-6 -15 -7 -23t-1 -27q0 -28 14 -61q15 -30 49 -51.5t70 -21.5q33 0 62 16q31 17 41 27l17 17l6 5q4 -1 16 -19q8 -10 17.5 -18t20.5 -15q25 -13 54 -13q14 0 36 5l36 11
q9 3 18 11t16.5 19t12 23.5t4.5 24.5q0 14 -6 26zM256 202q11 13 27.5 18t29.5 5q9 0 11 -6l2 -9q0 -25 -20 -48t-41 -23l-22 5q-13 6 -13 21q1 14 11 24l5 5t6 5q2 2 4 3zM412 578q16 0 31 7t26 19t17.5 27.5t6.5 32.5q0 28 -16 34q-16 8 -46 8q-13 -2 -21.5 -9t-8.5 -23
q0 -19 -15 -19q-6 1 -23.5 7.5t-46.5 17.5q-31 13 -54 19.5t-40 6.5q-15 0 -29.5 -7t-26 -18.5t-18 -27t-6.5 -32.5q0 -28 15 -35.5t46 -7.5q13 1 21 8q10 10 10 25l3 14q3 4 12 4q12 -1 71 -27q58 -24 92 -24z" />
    <glyph glyph-name="adieresis" unicode="&#xe4;" horiz-adv-x="560" 
d="M539 122q-22 48 -31 85t-9 71l5 68q3 23 4 41.5t1 31.5q0 35 -29 68q-29 36 -63 40q-17 3 -27 4.5t-14 2.5q-5 1 -20 1q-11 2 -24 2h-27q-66 0 -121 -18q-27 -9 -45 -20t-28 -24t-14 -27t-4 -27q0 -22 10 -43q11 -20 32 -35q22 -13 47 -13q27 0 69 27l47 30q6 2 12 2
q11 0 17.5 -8.5t6.5 -19.5q-2 -14 -20 -30q-20 -17 -111 -39t-111 -52q-13 -17 -19 -28.5t-10 -25.5q-6 -15 -7 -23t-1 -27q0 -28 14 -61q15 -30 49 -51.5t70 -21.5q33 0 62 16q31 17 41 27l17 17l6 5q4 -1 16 -19q8 -10 17.5 -18t20.5 -15q25 -13 54 -13q14 0 36 5l36 11
q9 3 18 11t16.5 19t12 23.5t4.5 24.5q0 14 -6 26zM256 202q11 13 27.5 18t29.5 5q9 0 11 -6l2 -9q0 -25 -20 -48t-41 -23l-22 5q-13 6 -13 21q1 14 11 24l5 5t6 5q2 2 4 3zM376 589q31 0 65 14q31 15 28 46q-4 25 -23.5 34t-42.5 9q-18 0 -34 -3t-28 -9.5t-18.5 -18
t-4.5 -27.5q3 -22 21 -33.5t37 -11.5zM169 589q30 0 63 14q31 15 28 46q-8 43 -66 43q-18 0 -34 -3t-28 -9.5t-18.5 -18t-4.5 -27.5q3 -23 21 -34t39 -11z" />
    <glyph glyph-name="aring" unicode="&#xe5;" horiz-adv-x="560" 
d="M539 122q-22 48 -31 85t-9 71l5 68q3 23 4 41.5t1 31.5q0 35 -29 68q-29 36 -63 40q-17 3 -27 4.5t-14 2.5q-5 1 -20 1q-11 2 -24 2h-27q-66 0 -121 -18q-27 -9 -45 -20t-28 -24t-14 -27t-4 -27q0 -22 10 -43q11 -20 32 -35q22 -13 47 -13q27 0 69 27l47 30q6 2 12 2
q11 0 17.5 -8.5t6.5 -19.5q-2 -14 -20 -30q-20 -17 -111 -39t-111 -52q-13 -17 -19 -28.5t-10 -25.5q-6 -15 -7 -23t-1 -27q0 -28 14 -61q15 -30 49 -51.5t70 -21.5q33 0 62 16q31 17 41 27l17 17l6 5q4 -1 16 -19q8 -10 17.5 -18t20.5 -15q25 -13 54 -13q14 0 36 5l36 11
q9 3 18 11t16.5 19t12 23.5t4.5 24.5q0 14 -6 26zM256 202q11 13 27.5 18t29.5 5q9 0 11 -6l2 -9q0 -25 -20 -48t-41 -23l-22 5q-13 6 -13 21q1 14 11 24l5 5t6 5q2 2 4 3zM295 570q19 0 38 4.5t33 14.5t23 25t9 36t-8.5 35.5t-23 24.5t-33 14.5t-37.5 4.5q-21 0 -39.5 -4.5
t-32.5 -14t-22.5 -24.5t-8.5 -36q0 -44 29 -62q31 -18 73 -18zM296 695q22 0 34.5 -13.5t12.5 -31.5q0 -21 -13.5 -33.5t-34.5 -12.5q-22 0 -35 13q-12 15 -12 33q0 20 12.5 32.5t35.5 12.5z" />
    <glyph glyph-name="ae" unicode="&#xe6;" horiz-adv-x="850" 
d="M557 193q72 17 138 52q69 38 82 71q14 36 14 67q0 23 -6.5 45t-17.5 40.5t-26.5 32.5t-33.5 22q-33 16 -57 19q-18 4 -26 4h-19q-76 0 -138 -47q-27 25 -60 30q-33 6 -51 6q-11 2 -24 2h-27q-66 0 -121 -18q-27 -9 -45 -20t-28 -24t-14 -27t-4 -27q0 -22 10 -43
q11 -20 32 -35q22 -13 47 -13q27 0 69 27l47 30q6 2 12 2q11 0 17.5 -8.5t6.5 -19.5q-2 -14 -20 -30q-20 -17 -111 -39t-111 -52q-13 -17 -19 -28.5t-10 -25.5q-6 -15 -7 -23t-1 -27q0 -28 14 -61q15 -30 49 -51.5t70 -21.5q33 0 62 16q31 17 41 27l17 17l6 5q4 -1 16 -19
q8 -10 17.5 -18t20.5 -15q25 -13 54 -13q14 0 36 5l27 8l15 7q52 -23 105 -23q48 0 92 18q43 21 64 52t21 59q0 16 -6 30q-5 13 -25 34q-20 20 -46 20q-19 0 -41 -16l-45 -38q-7 -7 -18 -10l-18 -3q-16 0 -29 8.5t-13 15.5q0 21 16 24zM541 372l4 9q23 26 43 26
q16 0 24.5 -13t8.5 -22q0 -27 -30 -54q-30 -26 -51 -21q-16 6 -16 30q0 25 17 45zM256 202q11 13 27.5 18t29.5 5q9 0 11 -6l2 -9q0 -25 -20 -48t-41 -23l-22 5q-13 6 -13 21q1 14 11 24l5 5t6 5q2 2 4 3z" />
    <glyph glyph-name="ccedilla" unicode="&#xe7;" horiz-adv-x="480" 
d="M374 333q33 14 48 29q20 20 20 46q0 42 -25 76.5t-70 44.5q-26 7 -39 9q-7 1 -17.5 1.5t-26.5 0.5q-60 0 -107.5 -23.5t-70.5 -65.5q-25 -40 -38 -93q-8 -28 -11 -52t-3 -51q0 -77 35 -141q34 -63 85 -81q33 -12 46.5 -16t28.5 -7t28.5 -4t24.5 -1q42 0 78.5 15.5
t48.5 36.5q5 7 7.5 12t4.5 7q3 6 8.5 20t5.5 29q0 14 -6 31t-24 38t-54 21q-41 0 -61 -20q-18 -19 -25 -19q-23 0 -35 30t-12 78q0 34 10 58q12 23 29 23l38 -18q37 -18 55 -18zM231 -124q37 0 70 11q36 12 36 38q0 15 -21 39l-40 45h-45l6 -21q4 -11 4 -22q0 -14 -40 -21
q-39 -9 -39 -30q1 -16 14 -27q16 -12 55 -12z" />
    <glyph glyph-name="egrave" unicode="&#xe8;" horiz-adv-x="510" 
d="M228 193q72 17 138 52q69 38 82 71q14 36 14 67q0 23 -6.5 45t-17.5 40.5t-26.5 32.5t-33.5 22q-33 16 -57 19q-18 4 -26 4h-19q-82 0 -138 -46q-57 -46 -82 -102.5t-25 -122.5q0 -43 13 -91q15 -46 44 -92q29 -45 79.5 -69t108.5 -24q48 0 92 18q42 21 63.5 51.5
t21.5 59.5q0 16 -6 30q-5 13 -25 34q-20 20 -46 20q-19 0 -41 -16l-45 -38q-7 -7 -18 -10l-18 -3q-16 0 -29 8.5t-13 15.5q0 21 16 24zM212 372l4 9q23 26 43 26q16 0 24.5 -13t8.5 -22q0 -27 -30 -54q-30 -26 -51 -21q-16 6 -16 30q0 25 17 45zM329 583q17 0 27 5.5t7 19.5
q-6 24 -29 44l-47 33l-37 26q-11 6 -19 6q-31 0 -59 -9t-25 -32q4 -22 58 -58q30 -19 59.5 -27t64.5 -8z" />
    <glyph glyph-name="eacute" unicode="&#xe9;" horiz-adv-x="510" 
d="M228 193q72 17 138 52q69 38 82 71q14 36 14 67q0 23 -6.5 45t-17.5 40.5t-26.5 32.5t-33.5 22q-33 16 -57 19q-18 4 -26 4h-19q-82 0 -138 -46q-57 -46 -82 -102.5t-25 -122.5q0 -43 13 -91q15 -46 44 -92q29 -45 79.5 -69t108.5 -24q48 0 92 18q42 21 63.5 51.5
t21.5 59.5q0 16 -6 30q-5 13 -25 34q-20 20 -46 20q-19 0 -41 -16l-45 -38q-7 -7 -18 -10l-18 -3q-16 0 -29 8.5t-13 15.5q0 21 16 24zM212 372l4 9q23 26 43 26q16 0 24.5 -13t8.5 -22q0 -27 -30 -54q-30 -26 -51 -21q-16 6 -16 30q0 25 17 45zM376 683q4 25 -24 33
q-21 7 -35 7.5t-25 0.5q-13 -1 -31 -13l-30 -23l-42 -29q-26 -23 -29 -44q-3 -16 6 -20.5t28 -4.5q67 0 123 36t59 57z" />
    <glyph glyph-name="ecircumflex" unicode="&#xea;" horiz-adv-x="510" 
d="M228 193q72 17 138 52q69 38 82 71q14 36 14 67q0 23 -6.5 45t-17.5 40.5t-26.5 32.5t-33.5 22q-33 16 -57 19q-18 4 -26 4h-19q-82 0 -138 -46q-57 -46 -82 -102.5t-25 -122.5q0 -43 13 -91q15 -46 44 -92q29 -45 79.5 -69t108.5 -24q48 0 92 18q42 21 63.5 51.5
t21.5 59.5q0 16 -6 30q-5 13 -25 34q-20 20 -46 20q-19 0 -41 -16l-45 -38q-7 -7 -18 -10l-18 -3q-16 0 -29 8.5t-13 15.5q0 21 16 24zM212 372l4 9q23 26 43 26q16 0 24.5 -13t8.5 -22q0 -27 -30 -54q-30 -26 -51 -21q-16 6 -16 30q0 25 17 45zM407 573q24 0 24 29
q0 32 -68 83q-67 52 -95 52q-24 0 -94 -53q-68 -53 -68 -82q0 -12 6 -21q8 -8 17 -8q19 0 68 28q50 28 71 28t70 -28q50 -28 69 -28z" />
    <glyph glyph-name="edieresis" unicode="&#xeb;" horiz-adv-x="510" 
d="M228 193q72 17 138 52q69 38 82 71q14 36 14 67q0 23 -6.5 45t-17.5 40.5t-26.5 32.5t-33.5 22q-33 16 -57 19q-18 4 -26 4h-19q-82 0 -138 -46q-57 -46 -82 -102.5t-25 -122.5q0 -43 13 -91q15 -46 44 -92q29 -45 79.5 -69t108.5 -24q48 0 92 18q42 21 63.5 51.5
t21.5 59.5q0 16 -6 30q-5 13 -25 34q-20 20 -46 20q-19 0 -41 -16l-45 -38q-7 -7 -18 -10l-18 -3q-16 0 -29 8.5t-13 15.5q0 21 16 24zM212 372l4 9q23 26 43 26q16 0 24.5 -13t8.5 -22q0 -27 -30 -54q-30 -26 -51 -21q-16 6 -16 30q0 25 17 45zM355 589q31 0 65 14
q31 15 28 46q-4 25 -23.5 34t-42.5 9q-18 0 -34 -3t-28 -9.5t-18.5 -18t-4.5 -27.5q3 -22 21 -33.5t37 -11.5zM148 589q30 0 63 14q31 15 28 46q-8 43 -66 43q-18 0 -34 -3t-28 -9.5t-18.5 -18t-4.5 -27.5q3 -23 21 -34t39 -11z" />
    <glyph glyph-name="igrave" unicode="&#xec;" horiz-adv-x="360" 
d="M281 169q-12 21 -12 80l4 93l10 104q0 10 -2 18.5t-6 18.5q-8 20 -24 28t-25 10q-9 3 -14.5 4t-16.5 4h-22q-43 0 -73 -21t-30 -54l6 -34q8 -27 8 -45q0 -2 0.5 -5.5t1.5 -8.5v-13v-18l-6 -84q-3 -31 -4 -54t-1 -36l1 -41l7 -41q6 -20 19.5 -34t29.5 -22.5t33 -12
t31 -3.5q38 0 68 18q30 19 33 37l4 29q2 10 2 23l-5 27q-4 11 -8 18t-9 15zM251 583q17 0 27 5.5t7 19.5q-6 24 -29 44l-47 33l-37 26q-11 6 -19 6q-31 0 -59 -9t-25 -32q4 -22 58 -58q30 -19 59.5 -27t64.5 -8z" />
    <glyph glyph-name="iacute" unicode="&#xed;" horiz-adv-x="360" 
d="M281 169q-12 21 -12 80l4 93l10 104q0 10 -2 18.5t-6 18.5q-8 20 -24 28t-25 10q-9 3 -14.5 4t-16.5 4h-22q-43 0 -73 -21t-30 -54l6 -34q8 -27 8 -45q0 -2 0.5 -5.5t1.5 -8.5v-13v-18l-6 -84q-3 -31 -4 -54t-1 -36l1 -41l7 -41q6 -20 19.5 -34t29.5 -22.5t33 -12
t31 -3.5q38 0 68 18q30 19 33 37l4 29q2 10 2 23l-5 27q-4 11 -8 18t-9 15zM292 676q4 25 -24 33q-21 7 -35 7.5t-25 0.5q-13 -1 -31 -13l-30 -23l-42 -29q-26 -23 -29 -44q-3 -16 6 -20.5t28 -4.5q67 0 123 36t59 57z" />
    <glyph glyph-name="icircumflex" unicode="&#xee;" horiz-adv-x="360" 
d="M281 169q-12 21 -12 80l4 93l10 104q0 10 -2 18.5t-6 18.5q-8 20 -24 28t-25 10q-9 3 -14.5 4t-16.5 4h-22q-43 0 -73 -21t-30 -54l6 -34q8 -27 8 -45q0 -2 0.5 -5.5t1.5 -8.5v-13v-18l-6 -84q-3 -31 -4 -54t-1 -36l1 -41l7 -41q6 -20 19.5 -34t29.5 -22.5t33 -12
t31 -3.5q38 0 68 18q30 19 33 37l4 29q2 10 2 23l-5 27q-4 11 -8 18t-9 15zM309 573q24 0 24 29q0 32 -68 83q-67 52 -95 52q-24 0 -94 -53q-68 -53 -68 -82q0 -12 6 -21q8 -8 17 -8q19 0 68 28q50 28 71 28t70 -28q50 -28 69 -28z" />
    <glyph glyph-name="idieresis" unicode="&#xef;" horiz-adv-x="360" 
d="M281 169q-12 21 -12 80l4 93l10 104q0 10 -2 18.5t-6 18.5q-8 20 -24 28t-25 10q-9 3 -14.5 4t-16.5 4h-22q-43 0 -73 -21t-30 -54l6 -34q8 -27 8 -45q0 -2 0.5 -5.5t1.5 -8.5v-13v-18l-6 -84q-3 -31 -4 -54t-1 -36l1 -41l7 -41q6 -20 19.5 -34t29.5 -22.5t33 -12
t31 -3.5q38 0 68 18q30 19 33 37l4 29q2 10 2 23l-5 27q-4 11 -8 18t-9 15zM274 589q31 0 65 14q31 15 28 46q-4 25 -23.5 34t-42.5 9q-18 0 -34 -3t-28 -9.5t-18.5 -18t-4.5 -27.5q3 -22 21 -33.5t37 -11.5zM67 589q30 0 63 14q31 15 28 46q-8 43 -66 43q-18 0 -34 -3
t-28 -9.5t-18.5 -18t-4.5 -27.5q3 -23 21 -34t39 -11z" />
    <glyph glyph-name="ntilde" unicode="&#xf1;" horiz-adv-x="610" 
d="M557 194q-3 12 -5.5 20.5t-3.5 16.5t-1.5 17t-0.5 22l4 61q1 5 1.5 12t2.5 17v35l-1 32l-3 26q-3 14 -17 38q-27 46 -97 46q-29 0 -63 -14q-32 -14 -44 -27l-19 -22q-4 -5 -6.5 -6t-4.5 -2q-10 0 -20 12l-29 36q-23 20 -56 20q-12 0 -23 -2t-30 -6q-18 -4 -34 -12
t-28 -19.5t-19 -25t-7 -28.5l8 -31l23 -66q16 -41 16 -84q0 -31 -13 -64l-18 -52q-6 -23 -6 -44q0 -28 14 -51q7 -11 20 -20t28.5 -15.5t32.5 -10t33 -3.5q38 0 67 17q30 18 36.5 39t6.5 33l-4 37l-10 51l-8 49q-2 12 -2 23v25q0 45 12 72q13 27 45 33q14 2 20 -13t7.5 -21
t1.5 -16l-7 -81q-2 -15 -6 -42q-1 -6 -1 -18v-28q0 -27 6 -55q9 -47 39 -75.5t81 -27.5q30 0 54 12q20 13 31.5 24.5t17 22.5t7.5 21t2 19q0 15 -11 43zM405 585q16 0 31 7t26 19t17.5 27.5t6.5 32.5q0 28 -16 34q-16 8 -46 8q-13 -2 -21.5 -9t-8.5 -23q0 -19 -15 -19
q-6 1 -23.5 7.5t-46.5 17.5q-31 13 -54 19.5t-40 6.5q-15 0 -29.5 -7t-26 -18.5t-18 -27t-6.5 -32.5q0 -28 15 -35.5t46 -7.5q13 1 21 8q10 10 10 25l3 14q3 4 12 4q12 -1 71 -27q58 -24 92 -24z" />
    <glyph glyph-name="ograve" unicode="&#xf2;" horiz-adv-x="520" 
d="M127 30q29 -22 60 -31t65 -9q57 0 110 27q52 27 75 62q11 18 20.5 42t17 51t11.5 56t4 57q0 80 -34 144q-33 65 -90 86q-54 22 -97 22q-42 0 -80.5 -15t-68.5 -44q-29 -27 -55 -100q-24 -71 -24 -145q0 -63 20 -116.5t66 -86.5zM271 371q17 -3 26.5 -18.5t9.5 -36.5
l1 -101q0 -24 -13 -49t-33 -22q-17 3 -29 18q-11 17 -11 41l3 117q0 27 15 39.5t31 11.5zM329 583q17 0 27 5.5t7 19.5q-6 24 -29 44l-47 33l-37 26q-11 6 -19 6q-31 0 -59 -9t-25 -32q4 -22 58 -58q30 -19 59.5 -27t64.5 -8z" />
    <glyph glyph-name="oacute" unicode="&#xf3;" horiz-adv-x="520" 
d="M127 30q29 -22 60 -31t65 -9q57 0 110 27q52 27 75 62q11 18 20.5 42t17 51t11.5 56t4 57q0 80 -34 144q-33 65 -90 86q-54 22 -97 22q-42 0 -80.5 -15t-68.5 -44q-29 -27 -55 -100q-24 -71 -24 -145q0 -63 20 -116.5t66 -86.5zM271 371q17 -3 26.5 -18.5t9.5 -36.5
l1 -101q0 -24 -13 -49t-33 -22q-17 3 -29 18q-11 17 -11 41l3 117q0 27 15 39.5t31 11.5zM369 676q4 25 -24 33q-21 7 -35 7.5t-25 0.5q-13 -1 -31 -13l-30 -23l-42 -29q-26 -23 -29 -44q-3 -16 6 -20.5t28 -4.5q67 0 123 36t59 57z" />
    <glyph glyph-name="ocircumflex" unicode="&#xf4;" horiz-adv-x="520" 
d="M127 30q29 -22 60 -31t65 -9q57 0 110 27q52 27 75 62q11 18 20.5 42t17 51t11.5 56t4 57q0 80 -34 144q-33 65 -90 86q-54 22 -97 22q-42 0 -80.5 -15t-68.5 -44q-29 -27 -55 -100q-24 -71 -24 -145q0 -63 20 -116.5t66 -86.5zM271 371q17 -3 26.5 -18.5t9.5 -36.5
l1 -101q0 -24 -13 -49t-33 -22q-17 3 -29 18q-11 17 -11 41l3 117q0 27 15 39.5t31 11.5zM414 573q24 0 24 29q0 32 -68 83q-67 52 -95 52q-24 0 -94 -53q-68 -53 -68 -82q0 -12 6 -21q8 -8 17 -8q19 0 68 28q50 28 71 28t70 -28q50 -28 69 -28z" />
    <glyph glyph-name="otilde" unicode="&#xf5;" horiz-adv-x="520" 
d="M127 30q29 -22 60 -31t65 -9q57 0 110 27q52 27 75 62q11 18 20.5 42t17 51t11.5 56t4 57q0 80 -34 144q-33 65 -90 86q-54 22 -97 22q-42 0 -80.5 -15t-68.5 -44q-29 -27 -55 -100q-24 -71 -24 -145q0 -63 20 -116.5t66 -86.5zM271 371q17 -3 26.5 -18.5t9.5 -36.5
l1 -101q0 -24 -13 -49t-33 -22q-17 3 -29 18q-11 17 -11 41l3 117q0 27 15 39.5t31 11.5zM370 585q16 0 31 7t26 19t17.5 27.5t6.5 32.5q0 28 -16 34q-16 8 -46 8q-13 -2 -21.5 -9t-8.5 -23q0 -19 -15 -19q-6 1 -23.5 7.5t-46.5 17.5q-31 13 -54 19.5t-40 6.5
q-15 0 -29.5 -7t-26 -18.5t-18 -27t-6.5 -32.5q0 -28 15 -35.5t46 -7.5q13 1 21 8q10 10 10 25l3 14q3 4 12 4q12 -1 71 -27q58 -24 92 -24z" />
    <glyph glyph-name="odieresis" unicode="&#xf6;" horiz-adv-x="520" 
d="M127 30q29 -22 60 -31t65 -9q57 0 110 27q52 27 75 62q11 18 20.5 42t17 51t11.5 56t4 57q0 80 -34 144q-33 65 -90 86q-54 22 -97 22q-42 0 -80.5 -15t-68.5 -44q-29 -27 -55 -100q-24 -71 -24 -145q0 -63 20 -116.5t66 -86.5zM271 371q17 -3 26.5 -18.5t9.5 -36.5
l1 -101q0 -24 -13 -49t-33 -22q-17 3 -29 18q-11 17 -11 41l3 117q0 27 15 39.5t31 11.5zM362 589q31 0 65 14q31 15 28 46q-4 25 -23.5 34t-42.5 9q-18 0 -34 -3t-28 -9.5t-18.5 -18t-4.5 -27.5q3 -22 21 -33.5t37 -11.5zM155 589q30 0 63 14q31 15 28 46q-8 43 -66 43
q-18 0 -34 -3t-28 -9.5t-18.5 -18t-4.5 -27.5q3 -23 21 -34t39 -11z" />
    <glyph glyph-name="oslash" unicode="&#xf8;" horiz-adv-x="520" 
d="M306 331l1 -15l1 -101q0 -24 -13 -49t-33 -22t-32 24zM223 230l2 90q0 27 15 39.5t31 11.5q9 -2 15 -6zM128 29l-28 -58q-6 -14 -6 -22q1 -11 7 -15q8 -2 16.5 4t13.5 18l26 55q20 -11 45.5 -16t48.5 -5q60 0 110 25q51 25 74 62t39 93t16 116q0 69 -25 126.5t-79 90.5
l20 43l8 18l3 14q-5 14 -10 14l-10 1q-10 -13 -17 -29l-22 -46l-9 4q-41 15 -80 15q-42 0 -80 -15t-68 -44q-30 -30 -55 -100q-25 -69 -25 -145q0 -63 21 -117t66 -87z" />
    <glyph glyph-name="ugrave" unicode="&#xf9;" 
d="M458 0q31 8 50 20.5t28.5 26t12.5 26t2 19.5q0 12 -1.5 18.5t-3.5 13.5l-17 46q-8 19 -11 28t-5 20l-3 46l3 61l4 56q0 39 -10 70q-14 35 -38 57q-15 14 -31 20t-36 6q-38 0 -69 -22q-31 -21 -34 -45l-3 -30q0 -17 18 -86t18 -98q0 -27 -5.5 -44.5t-14 -28t-18.5 -15
t-19 -4.5q-18 0 -26 17q-6 18 -6 28l-1 32l5 68q3 26 4 44.5t1 28.5q3 66 -28.5 108t-86.5 44q-40 0 -74 -23q-32 -23 -32 -52q0 -45 3 -66q3 -12 8.5 -25.5t11.5 -27.5q16 -31 16 -55l-7 -63q-6 -54 -6 -78l4 -51q3 -13 7 -24.5t8 -22.5q25 -45 92 -45q36 0 75 17
q38 18 50 39q13 22 21 22q7 0 19 -21q15 -23 42.5 -40t56.5 -17zM329 583q17 0 27 5.5t7 19.5q-6 24 -29 44l-47 33l-37 26q-11 6 -19 6q-31 0 -59 -9t-25 -32q4 -22 58 -58q30 -19 59.5 -27t64.5 -8z" />
    <glyph glyph-name="uacute" unicode="&#xfa;" 
d="M458 0q31 8 50 20.5t28.5 26t12.5 26t2 19.5q0 12 -1.5 18.5t-3.5 13.5l-17 46q-8 19 -11 28t-5 20l-3 46l3 61l4 56q0 39 -10 70q-14 35 -38 57q-15 14 -31 20t-36 6q-38 0 -69 -22q-31 -21 -34 -45l-3 -30q0 -17 18 -86t18 -98q0 -27 -5.5 -44.5t-14 -28t-18.5 -15
t-19 -4.5q-18 0 -26 17q-6 18 -6 28l-1 32l5 68q3 26 4 44.5t1 28.5q3 66 -28.5 108t-86.5 44q-40 0 -74 -23q-32 -23 -32 -52q0 -45 3 -66q3 -12 8.5 -25.5t11.5 -27.5q16 -31 16 -55l-7 -63q-6 -54 -6 -78l4 -51q3 -13 7 -24.5t8 -22.5q25 -45 92 -45q36 0 75 17
q38 18 50 39q13 22 21 22q7 0 19 -21q15 -23 42.5 -40t56.5 -17zM411 676q4 25 -24 33q-21 7 -35 7.5t-25 0.5q-13 -1 -31 -13l-30 -23l-42 -29q-26 -23 -29 -44q-3 -16 6 -20.5t28 -4.5q67 0 123 36t59 57z" />
    <glyph glyph-name="ucircumflex" unicode="&#xfb;" 
d="M458 0q31 8 50 20.5t28.5 26t12.5 26t2 19.5q0 12 -1.5 18.5t-3.5 13.5l-17 46q-8 19 -11 28t-5 20l-3 46l3 61l4 56q0 39 -10 70q-14 35 -38 57q-15 14 -31 20t-36 6q-38 0 -69 -22q-31 -21 -34 -45l-3 -30q0 -17 18 -86t18 -98q0 -27 -5.5 -44.5t-14 -28t-18.5 -15
t-19 -4.5q-18 0 -26 17q-6 18 -6 28l-1 32l5 68q3 26 4 44.5t1 28.5q3 66 -28.5 108t-86.5 44q-40 0 -74 -23q-32 -23 -32 -52q0 -45 3 -66q3 -12 8.5 -25.5t11.5 -27.5q16 -31 16 -55l-7 -63q-6 -54 -6 -78l4 -51q3 -13 7 -24.5t8 -22.5q25 -45 92 -45q36 0 75 17
q38 18 50 39q13 22 21 22q7 0 19 -21q15 -23 42.5 -40t56.5 -17zM407 573q24 0 24 29q0 32 -68 83q-67 52 -95 52q-24 0 -94 -53q-68 -53 -68 -82q0 -12 6 -21q8 -8 17 -8q19 0 68 28q50 28 71 28t70 -28q50 -28 69 -28z" />
    <glyph glyph-name="udieresis" unicode="&#xfc;" 
d="M458 0q31 8 50 20.5t28.5 26t12.5 26t2 19.5q0 12 -1.5 18.5t-3.5 13.5l-17 46q-8 19 -11 28t-5 20l-3 46l3 61l4 56q0 39 -10 70q-14 35 -38 57q-15 14 -31 20t-36 6q-38 0 -69 -22q-31 -21 -34 -45l-3 -30q0 -17 18 -86t18 -98q0 -27 -5.5 -44.5t-14 -28t-18.5 -15
t-19 -4.5q-18 0 -26 17q-6 18 -6 28l-1 32l5 68q3 26 4 44.5t1 28.5q3 66 -28.5 108t-86.5 44q-40 0 -74 -23q-32 -23 -32 -52q0 -45 3 -66q3 -12 8.5 -25.5t11.5 -27.5q16 -31 16 -55l-7 -63q-6 -54 -6 -78l4 -51q3 -13 7 -24.5t8 -22.5q25 -45 92 -45q36 0 75 17
q38 18 50 39q13 22 21 22q7 0 19 -21q15 -23 42.5 -40t56.5 -17zM348 589q31 0 65 14q31 15 28 46q-4 25 -23.5 34t-42.5 9q-18 0 -34 -3t-28 -9.5t-18.5 -18t-4.5 -27.5q3 -22 21 -33.5t37 -11.5zM141 589q30 0 63 14q31 15 28 46q-8 43 -66 43q-18 0 -34 -3t-28 -9.5
t-18.5 -18t-4.5 -27.5q3 -23 21 -34t39 -11z" />
    <glyph glyph-name="yacute" unicode="&#xfd;" 
d="M478 310q48 56 60 74q15 22 18 39l4 24q0 15 -5.5 30.5t-15.5 28.5t-22.5 21.5t-25.5 10.5q-25 5 -42 5q-33 0 -57.5 -12.5t-42.5 -35t-30.5 -54t-19.5 -68.5l-4 -23l-5 -10q-6 1 -13 32l-19 83q-18 54 -58 69q-38 16 -66 16q-24 0 -44.5 -8.5t-34.5 -22.5t-21.5 -32.5
t-5.5 -37.5q0 -36 28 -76q14 -18 32.5 -39.5t42.5 -46.5q8 -14 18 -44t23 -75q26 -91 29 -124q0 -29 -6 -38t-16 -9q-6 1 -14.5 3.5t-19.5 7.5q-22 9 -29 8q-33 -6 -50 -15q-15 -11 -28 -35q-12 -27 -12 -49q0 -40 27 -68t57.5 -40.5t63.5 -12.5q61 0 120 47q58 46 70 100
q8 28 16.5 66.5t17.5 88.5q19 99 33 141q20 51 47 81zM441 676q4 25 -24 33q-21 7 -35 7.5t-25 0.5q-13 -1 -31 -13l-30 -23l-42 -29q-26 -23 -29 -44q-3 -16 6 -20.5t28 -4.5q67 0 123 36t59 57z" />
    <glyph glyph-name="ydieresis" unicode="&#xff;" 
d="M478 310q48 56 60 74q15 22 18 39l4 24q0 15 -5.5 30.5t-15.5 28.5t-22.5 21.5t-25.5 10.5q-25 5 -42 5q-33 0 -57.5 -12.5t-42.5 -35t-30.5 -54t-19.5 -68.5l-4 -23l-5 -10q-6 1 -13 32l-19 83q-18 54 -58 69q-38 16 -66 16q-24 0 -44.5 -8.5t-34.5 -22.5t-21.5 -32.5
t-5.5 -37.5q0 -36 28 -76q14 -18 32.5 -39.5t42.5 -46.5q8 -14 18 -44t23 -75q26 -91 29 -124q0 -29 -6 -38t-16 -9q-6 1 -14.5 3.5t-19.5 7.5q-22 9 -29 8q-33 -6 -50 -15q-15 -11 -28 -35q-12 -27 -12 -49q0 -40 27 -68t57.5 -40.5t63.5 -12.5q61 0 120 47q58 46 70 100
q8 28 16.5 66.5t17.5 88.5q19 99 33 141q20 51 47 81zM378 589q31 0 65 14q31 15 28 46q-4 25 -23.5 34t-42.5 9q-18 0 -34 -3t-28 -9.5t-18.5 -18t-4.5 -27.5q3 -22 21 -33.5t37 -11.5zM171 589q30 0 63 14q31 15 28 46q-8 43 -66 43q-18 0 -34 -3t-28 -9.5t-18.5 -18
t-4.5 -27.5q3 -23 21 -34t39 -11z" />
    <glyph glyph-name=".null" unicode="&#xe000;" horiz-adv-x="0" 
 />
    <glyph glyph-name="nonmarkingreturn" unicode="&#xe001;" horiz-adv-x="260" 
 />
    <glyph glyph-name="nonbreakingspace" unicode="&#xe002;" horiz-adv-x="260" 
 />
    <glyph glyph-name="minus" unicode="&#xe003;" horiz-adv-x="480" 
d="M389 299q23 17 29 33q8 16 8 34q0 21 -11 38l-17 21q-27 10 -39 10q-8 2 -26 2l-40 -6q-16 -3 -32.5 -4t-30.5 -1q-13 0 -24.5 0.5t-36.5 4.5l-35 6q-20 0 -34 -7.5t-22 -15.5q-42 -24 -42 -68q0 -32 23 -52.5t80 -20.5l26 4q17 5 54 5q23 0 40 -2t37 -6q17 -2 49 7
q33 10 44 18z" />
    <glyph glyph-name="macron" unicode="&#xe004;" horiz-adv-x="614" 
d="M447 605q22 0 29 5.5t7 31.5q0 27 -6.5 31.5t-29.5 4.5h-272h-9q-16 0 -21.5 -5.5t-5.5 -30.5q0 -14 1.5 -21.5t5 -11t10.5 -4t19 -0.5h272z" />
    <glyph glyph-name="periodcentered" unicode="&#xe005;" horiz-adv-x="1000" 
d="M396 322q34 -22 75 -22q25 0 48 8t39.5 22.5t26.5 35t10 44.5q0 22 -7 36.5t-26 22.5q-19 9 -31 11t-30 2q-29 0 -53.5 -10.5t-43 -26.5t-28.5 -35.5t-8 -35.5q0 -33 28 -52z" />
    <glyph glyph-name="SI" unicode="&#xe006;" horiz-adv-x="600" 
d="M356 236l133 123q66 63 66 116q0 32 -28 44q-25 13 -42 13q-16 0 -45 -17t-50 -17q-39 0 -94 20t-85 20q-45 0 -72 -29.5t-27 -69.5q0 -23 9 -41t25.5 -30.5t39.5 -18.5t49 -4h19l40 5q9 -2 9 -7q0 -10 -38 -43l-118 -105q-80 -74 -80 -124q0 -21 17 -41
q19 -14 29.5 -18.5t22.5 -4.5q13 0 45 21q34 22 40 23q28 0 103 -25q76 -24 140 -24q18 0 34.5 7.5t29.5 20.5t20.5 30t7.5 37q0 23 -12 45.5t-34 40.5q-21 19 -40.5 25.5t-41.5 6.5l-30 -3l-35 -5l-11 -1q-13 1 -13 7q0 8 17 23zM341 566q27 0 94 52q68 53 68 84
q-2 13 -7 20q-9 9 -17 9q-12 0 -67 -29q-53 -28 -72 -28q-20 0 -69 28q-50 29 -70 29q-11 0 -17 -9t-6 -20q0 -32 67 -84t96 -52z" />
    <glyph glyph-name="c275" unicode="&#xe007;" horiz-adv-x="689" 
d="M345 581q29 0 53 7t51 22q51 31 51 67q0 22 -26 28q-13 4 -22 5.5t-14 2.5t-13.5 1.5t-21.5 0.5q-13 -1 -26 -13l-24 -24l-34 -30q-18 -20 -15 -42q3 -17 12.5 -21t28.5 -4zM75 581q29 0 53 7t51 22q51 31 51 67q0 22 -26 28q-13 4 -22 5.5t-14 2.5t-13.5 1.5t-21.5 0.5
q-13 -1 -26 -13l-24 -24l-34 -30q-18 -20 -15 -42q3 -17 12.5 -21t28.5 -4z" />
    <glyph glyph-name="c276" unicode="&#xe008;" horiz-adv-x="614" 
d="M447 605q22 0 29 5.5t7 31.5q0 27 -6.5 31.5t-29.5 4.5h-272h-9q-16 0 -21.5 -5.5t-5.5 -30.5q0 -14 1.5 -21.5t5 -11t10.5 -4t19 -0.5h272z" />
    <glyph glyph-name="FS" unicode="&#xe009;" horiz-adv-x="510" 
d="M430 306q21 15 29 29t8 31q0 15 -9 30q-8 17 -18 23q-18 5 -21 5q-3 1 -13.5 3t-27.5 2l-41 -5q-11 -2 -28 -3t-40 -1h-13h-15l-60 2l-42 3l-16 3l-11 1q-24 0 -37 -7l-19 -13q-39 -21 -39 -61q0 -21 14 -41q16 -18 31 -19l32 -4q7 -1 12 -1.5t8 -0.5h11l23 3q12 4 81 4
q73 0 108 -6q15 -3 49 6q19 6 29.5 10.5t14.5 6.5z" />
    <glyph glyph-name="notequal" unicode="&#xe00a;" horiz-adv-x="560" 
d="M272 541q16 -8 32 -14.5t33 -11.5q9 -3 16 -4.5t13.5 -2t15 -1t20.5 -0.5q40 0 73 16q33 17 47.5 45.5t14.5 60.5q0 50 -25 90q-24 40 -61 40q-12 0 -37 -9l-53 -15q-12 -2 -26 -3.5t-30 -1.5l-55 3l-47 7l-34 3q-31 0 -55 -13t-41 -31.5t-26 -39t-9 -34.5q0 -26 13 -49
q15 -23 30.5 -27.5t27.5 -4.5l41 7q32 7 52 7l33 -4q10 -2 19.5 -5.5t17.5 -7.5zM122 38q38 -22 85 -32q32 -7 53 -8.5t42 -1.5q87 0 145 34q60 34 60 100l-4 33l-14 41q-10 22 -25 31q-16 11 -35 11q-9 -1 -24 -4.5t-37 -9.5q-22 -5 -38.5 -8t-28.5 -3q-19 0 -31 3
q-25 11 -25 31l-2 17q0 31 32 97q32 67 32 95q0 22 -15 39.5t-40 23.5q-17 6 -22 7t-14 1q-49 0 -92 -97q-24 -51 -42 -85.5t-29 -52.5q-28 -40 -28 -96q0 -49 24.5 -94t72.5 -72z" />
    <glyph glyph-name="apple" unicode="&#xe00b;" horiz-adv-x="630" 
d="M307 560q16 0 58 48q24 26 45 50.5t40 47.5l64 80q-34 -34 -111 -68q-77 -35 -97 -58q-19 -22 -19 -56q0 -19 5.5 -31.5t14.5 -12.5zM577 375l12 19q5 20 5 43l-1 12l-5 20q-2 9 -8 21t-15 24.5t-20 23t-23 16.5q-32 13 -70 13q-14 0 -26 -2t-25 -5q-26 -8 -48 -24
q-23 -15 -54 -15q-39 0 -67 15q-28 16 -37 16q-6 2 -24 2q-30 2 -55.5 -8t-43.5 -30t-28 -49t-8 -64q0 -16 3 -32t7 -29q11 -32 37 -75q27 -42 34 -60l20 -131q13 -76 48 -76q28 0 54 18q20 13 28.5 21t15.5 18q7 7 20 7l21 -4q14 -5 36 -25q22 -21 37 -21l17 4
q17 9 24.5 23.5t10.5 19.5l28 41l55 63q7 10 7 18q0 10 -23 24q-22 13 -38 13q-8 0 -13 -12t-22 -34q-20 -23 -31 -30t-18 -7q-7 1 -32 20q-14 12 -22.5 16t-17.5 4q-18 0 -43 -33q-24 -32 -46 -32t-28 44l-13 94q-8 19 -30 51q-21 32 -26 43t-7 23.5t-5 23.5v22
q0 29 11.5 48t38.5 19q17 2 30.5 -5.5t27 -17.5t29 -18.5t37.5 -8.5q23 0 48 16l44 25q19 10 42 10q20 0 29 -6l19 -14q10 -7 34 -49q25 -42 45 -42q13 1 18 5z" />
    </font>
</defs>
</svg>
